<?xml version="1.0" encoding="utf-8"?>
<!-- Generator: Adobe Illustrator 16.0.0, SVG Export Plug-In . SVG Version: 6.00 Build 0)  -->
<!DOCTYPE svg PUBLIC "-//W3C//DTD SVG 1.1//EN" "http://www.w3.org/Graphics/SVG/1.1/DTD/svg11.dtd">
<svg version="1.1" id="Layer_1" xmlns="http://www.w3.org/2000/svg" xmlns:xlink="http://www.w3.org/1999/xlink" x="0px" y="0px"
	 width="50px" height="50px" viewBox="0 0 50 50" enable-background="new 0 0 50 50" xml:space="preserve">
<path d="M35.607,16.159L21.99,29.777l-5.904-5.902c-0.982-0.981-2.577-0.981-3.555,0c-0.984,0.981-0.984,2.576,0,3.555l7.448,7.451
	c0.491,0.485,1.133,0.733,1.778,0.733c0.078,0,0.156-0.017,0.234-0.022c0.078,0.008,0.155,0.022,0.233,0.022
	c0.646,0,1.289-0.248,1.778-0.733l15.166-15.166c0.98-0.985,0.98-2.575,0-3.556C38.182,15.176,36.591,15.176,35.607,16.159z" fill="#20D93F"/>
</svg>
