<?xml version="1.0" encoding="UTF-8" standalone="no"?>
<svg width="228px" height="128px" viewBox="0 0 228 128" version="1.1" xmlns="http://www.w3.org/2000/svg" xmlns:xlink="http://www.w3.org/1999/xlink" xmlns:sketch="http://www.bohemiancoding.com/sketch/ns">
    <!-- Generator: Sketch 3.5.1 (25234) - http://www.bohemiancoding.com/sketch -->
    <title>Oval 11 Copy</title>
    <desc>Created with Sketch.</desc>
    <defs></defs>
    <g id="Page-1" stroke="none" stroke-width="1" fill="none" fill-rule="evenodd" sketch:type="MSPage">
        <path d="M133.37765,13.8127134 C141.175629,5.9030549 152.01523,1 164,1 C187.748244,1 207,20.2517558 207,44 C207,44.549864 206.989679,45.0973173 206.96922,45.642177 C219.007383,53.2632939 227,66.698259 227,82 C227,105.748244 207.748244,125 184,125 C170.964301,125 159.283414,119.199359 151.397709,110.038446 C140.747187,120.527642 126.129443,127 110,127 C95.9332865,127 83.0163462,122.077235 72.8779627,113.86049 C65.2456476,120.782517 55.1153468,125 44,125 C20.2517558,125 1,105.748244 1,82 C1,58.2517558 20.2517558,39 44,39 C48.6979083,39 53.2198544,39.753384 57.4516119,41.1459258 C67.2237785,22.0619043 87.0865037,9 110,9 C118.305074,9 126.20936,10.7159742 133.37765,13.8127134 Z" id="Oval-11-Copy" stroke="#D6E9FF" stroke-width="2" fill="#FFFFFF" sketch:type="MSShapeGroup"></path>
    </g>
</svg>