<?xml version="1.0" encoding="UTF-8" standalone="no"?>
<svg width="159px" height="92px" viewBox="0 0 159 92" version="1.1" xmlns="http://www.w3.org/2000/svg" xmlns:xlink="http://www.w3.org/1999/xlink" xmlns:sketch="http://www.bohemiancoding.com/sketch/ns">
    <!-- Generator: Sketch 3.5.1 (25234) - http://www.bohemiancoding.com/sketch -->
    <title>Oval 15</title>
    <desc>Created with Sketch.</desc>
    <defs></defs>
    <g id="Page-1" stroke="none" stroke-width="1" fill="none" fill-rule="evenodd" sketch:type="MSPage">
        <path d="M107.080336,20.3036394 C101.787366,8.93023876 89.8625292,1 76,1 C60.6736062,1 47.7157483,10.6935146 43.4702569,24.0165883 C40.7624453,23.3529037 37.9243373,23 35,23 C16.2223185,23 1,37.5507456 1,55.5 C1,73.4492544 16.2223185,88 35,88 C41.7952361,88 48.1248763,86.0944936 53.4360223,82.8119866 C59.4388379,87.9062013 67.341446,91 76,91 C88.2751929,91 99.0310398,84.7818963 105.008299,75.4611408 C110.431193,78.9583284 116.966163,81 124,81 C142.777681,81 158,66.4492544 158,48.5 C158,30.5507456 142.777681,16 124,16 C117.840251,16 112.063086,17.5657676 107.080336,20.3036394 Z" id="Oval-15" stroke="#D6E9FF" stroke-width="2" fill="#FFFFFF" sketch:type="MSShapeGroup"></path>
    </g>
</svg>