<svg width="813" height="68" viewBox="0 0 813 68" xmlns="http://www.w3.org/2000/svg"><title>Group 23</title><g fill="none" fill-rule="evenodd"><g fill="#8CC63F"><path d="M169.7 2.6l4 1.7v.3c.6 0 .7 0 1 .2 3.5 1.7 6.6 3.5 9.3 5.4l.8.7 1.7 1c.4-.4.4-1 .7-1.5.2-.6.6-1.3.6-2 .8-2 1.6-3.8 2.6-5.7 0-.2.3-.4.4-.6V4c-.3.8-.2 1.5-.3 2.2v8.1c.2.4.2.8.2 1.3 0 .4.7.8 1 1.3 1-2.8 2.5-5.4 4.2-8 1-1.7 2.3-3.4 3.8-5 0 .4-.2 1-.4 1.3-3 7.5-3 15.2-.4 22.6l.7-3.2L201 19l.5-2.5c.4-2.2 1-4.3 1.3-6.4l.5-2.2c0 .2.2.3.3.5L206 18l.6 3c0 .7.3 1.4.5 2 .3.8.3 1.6.7 2.3.3-.7.8-1.4.8-2l7.2-17.8c.4.6.2 1.3.3 2v1.2c-.2.8 0 1.6 0 2.4v10.5c.2-.6.2-1.2.5-1.8L218 14c0-1 .4-2.2.6-3.2l.6.6 3 11.2c.3 1 .7 1.8.8 2.7.3-1 .5-2 .5-3v.4l.3-3.3c0-1.3 0-2.7-.3-4 0-1-.2-2.2-.4-3.3 0-1-.4-2-.7-2.8 0-.4-.3-.8-.2-1.2.7.6 1 1 1.5 1.7 1.8 2.5 3.3 5 4.6 7.4l1 2.3c1.8-1.5 4-3 6.5-4.3l.3-.2.7-3.8c.3-.8.5-1.5.4-2.2 0-.6 0-1.3.5-2l1.5 6.4 5.4-2.3.4-.3c1.3-2.6 2.8-5 4.8-7.6 0 .7-.2 1.4-.3 2-.2 1.4-.4 2.7-.4 4 .3.2-.2.4-.2.7 0 4 .6 8 2 11.8.4.8.8 1.6 1 2.4l.8-2.6L254 15l.5-1c.5.6.5 1.4.8 2.2L258 26c.6-.6 1-1.3 1.2-2 3-6 .4-12.4-7.2-18-.2 0-.3-.3-.2-.5 2 1 4 2 5.6 3 3.3 2.2 6 4.5 7.8 6.8.3.8 1 1.6 1.4 2.4.4.7.8 1.5 1 2.2.2.4.3.8.7 1.2v-2c0-.4 0-1-.2-1.4 0-.8-.2-1.5-.4-2.2-1-3.2-3-6.4-5.8-9.4l-.4-.6c1.7 1 3 2 4.5 3.2 1.8 1.5 3.4 3 4.8 4.7.6.7 1 1.4 1.7 2l1-2.7c1.3-3.4 3-6.8 5-10.2 0 .5 0 1-.2 1.5l-.3 3-.2 2v6c0 1 0 2 .3 2.8 0 .7.4 1.4.4 2 0 .7.2 1.2.3 1.8 0 .4 0 .7.2 1 .2-.2.3-.6.3-1l2-8c.8 1.7 1.3 3.5 1.8 5.2l1.8 5.7 4-24.2V0l.6.5c.2 1.7.6 3.3 1 5 1 4.8 2 9.6 2.8 14.5.6-1.6.5-3 .5-4.6 0-2 0-4-.5-6-.5-2.6-1.3-5-2.5-7.5v-.6l3.4 4c3.7 4.5 6 9.2 7.2 14 0 .7.3 1.5.4 2.2l.5 4V27c0 .6-.2 1 0 1.5l.4 14.4L0 50V40c.4-.5.4-7.4.4-8C.7 29 1.7 26 3 22.8c.2-.3 0-.6 0-1l-1.5-4.3-.3-1.2c0-.2 0-.3.3-.5.3.5 1 1 1.3 1.5.7.7 1.2 1.4 2 2L6.4 17v.7c-.3 1-.4 1.8-.4 2.7 0 .5.7 1 1 1.4.5-1.5.8-3 1.2-4.7l.5-2c.4.7.5 1.2.6 1.8L10 15l.3 1.2 3 11c.3.8 1.2 1.7 1.4 2.6.4-.6.5-1.3.6-2 .2-1-.3-2-.6-3L10.2 11v-.5l2.3 2.5 6 6.4c0 .2.2.3.4.5 1-1.8 2-3.5 3.4-5.2.2-.2 0-.5 0-.7-1-1-2-2.3-3-3.5-.4-.3-1-.7-1-1 2.4 1.3 4.4 2.8 6.3 4.3 2 1.5 3.5 3 4.8 4.8 1-2.4 2.4-4.8 4-7 1-1.7 2.3-3.3 3.8-4.8 0 .3 0 .6-.3 1-.8 1.8-1.4 3.7-1.8 5.6-.2 1-.5 2-.4 3 0-.2 0-.3-.2-.4 0 .8-.2 1.7 0 2.5-.2 1.4 0 3 0 4.4v.4c.4 2.4 1 4.8 2 7.2l2-10.8c.8-3.2 1.3-6.3 2-9.5.4.4.4.8.5 1.2L44 24c.5 1.3.7 2.6 1 4 .5-.7.7-1.5 1-2.2l.4-1v.2c0-.6.4-1.2.7-1.7.6-1 1-2 1.2-2.8l4-9.7c.3-.8.5-1.6 1-2.4v1.3l.2 12.4v2l.8-2.8L56 14c0-.3 0-.5.3-.7l3 10.7c.3 1 .5 2 1 3 0-.8.5-1.7.5-2.5v.2c0-.5 0-1 .2-1.6v-4.7c0-1.5-.3-3-.7-4.5 0-.7-.5-1.4-.4-2 .5 0 .6.3.7.6v-.2l.8 1c3 3.7 5.2 7.6 6.5 11.5 0 .6.2 1 .5 1.6.3-.8.4-1.6.3-2.4 0-.6 0-1.2-.2-1.8-.4-3.6-2.5-7.2-6-10.6 0 0 0-.2-.2-.2l.3-.3c1 .7 2 1.3 2.7 2 3 2 5.5 4.2 7.3 6.4.4.5 1 1 1 1.6 0-.5.2-1 0-1.3v-1.3c0-3 0-6-.2-9V9c.6.7.8 1.5 1.2 2.2l5.7 12.6 2 4.3c0-.4.2-.8.3-1l3-15.3c0-.4.2-1 .4-1.4.5.7.5 1.5.8 2.2 1 5 2.3 10 3.5 15 .2.7.3 1.6.7 2.3 0-.4.3-.8.5-1.3 0-1.3.3-2.7.8-4 .3-.7.2-1.4.4-2v-4.2c-.3-3.6-1.2-7-3-10.6l-.3-1c1 .7 1.5 1.5 2.3 2.3 1.5 1.7 2.8 3.5 4 5.3.6 1 1 2 1.7 3 2.4-2.4 5.7-4.6 9.5-6.8h.5v.2c-3.4 2.5-5.7 5.3-7 8-.7 1.7-1.2 3.4-.6 5l.6 3.2c.3-1.3.7-2.5 1.2-3.7.3-.8.8-1.6 1-2.4 1-2.7 2.4-5.3 4-7.8l.6-.8c.2.5 0 1 0 1.4 0 .6-.3 1.3-.2 2 0 .8-.2 1.7 0 2.5 0 1-.2 2 0 2.8.2 0 .3 0 .4-.3 2-1.6 4.8-3.2 7.8-4.7.6-.3.4-.6.5-1l1.2-6 .3.6c0 .7.3 1.4.5 2 .2 1 .3 2 .7 2.8l5-2c.5-.2 1.2-.4 1.2-.6 1-2.2 2.5-4.4 4.2-6.6.2 1-.3 1.7-.4 2.6-.5 2.7-.3 5.4-.2 8 .3 2.5.8 5 1.7 7.2l.8-3c.4-1.3.8-2.5 1-3.8 1.5 4.3 3 8.7 4 13 1-1 1.7-2.3 2-3.4 2.6-5.7.4-11.5-6-16.6l-2.5-2 1 .5c6.6 3 11.3 6.7 14 10.6.4.5.8 1 1 1.7.2-1-.2-1.8-.4-2.7-.6-2-1.6-4-3-6L139 8c2 1 3.5 2.2 4.8 3.4 2.5 2 4.7 4.4 6.2 6.6.2.4.4.8.8 1v-1.2-5c0-1-.2-1.7 0-2.5 0 .2.2.3.4.5l1 2c1.5 3.3 3 6.5 4.7 9.8.2.8.5 1.5 1 2.2.4-1.4 1-2.7 1.8-4l3-5.4c.2 0 .4-.3.6-.4v1.8c-.2.7 0 1.4-.2 2v2.8l.2 3c.3.5 0 1 .5 1.7.8-2 1.8-4 2.8-5.7l5-10c.8-1.2 1.3-2.4 2-3.7.2.3.2.6.2.8v10.8c.7-.2 1-.5 1.3-.8 1.7-1.4 3.7-2.8 6-4 0 .2-.3.4-.5.6-4.5 4.2-6.5 8.8-5.7 13.2.3.8.6 1.5.7 2.3.5-.8.5-1.5.8-2.2l2-7.4c.3-1 .4-2 .8-3l.5 1 2 6.7c.4 1.2 1 2.5 1 3.8.3-.5.4-1 .4-1.3l1-7.2.6-2.2c0-.7-.6-1.3-1-2-2.8-4.8-8-9.3-15.2-13.3-.4-.3-1-.5-1-.7h-.5.5l2.2.8z"/><path d="M468.5 16c1.4.8 2.5 1.5 4 2.2-.3 0-.2.2-.2.2.6 0 .7.2 1 .3 3.3 2 6.2 4 8.8 6.2.2 0 .5.4.8.6l1.6 1.4c.4-.5.5-1 .8-1.5.3-.6.7-1.3.8-2l3-5.5c.2 0 .4-.3.6-.5l-.3 1.8-.4 2.2c-.4 1.5-.4 3-.6 4.6V31c-.2.5.5 1 .7 1.4 1.5-2.5 3-5 5-7.5l4.4-4.7c0 .5-.4 1-.6 1.4-3.6 7.2-4.4 14.8-2.3 22.4l1-3L498 35c.5-.7.7-1.5 1-2.3l1.8-6.3.7-2.2c0 .2.2.3.3.5l1.4 10 .5 3c0 .6 0 1.3.2 2 0 .8 0 1.6.4 2.3.3-.6.8-1.3 1-2l8.7-17c.4.7.2 1.3 0 2V26c-.2.8 0 1.6-.2 2.4L513 39l.6-1.8c.6-2 1.2-3.7 2-5.6.2-1 .6-2 1-3 .2 0 .3.3.4.6l2 11.4c.3 1 .6 1.8.6 2.7.4-1 .7-2 .8-3v.5c0-1 .5-2.2.5-3.2 0-1.4.2-2.7 0-4 0-1.2 0-2.3-.2-3.4 0-1-.3-2-.5-3 0-.4-.2-.8 0-1 .4.4.7 1 1 1.6 1.7 2.6 3 5.3 4 8l1 2c1.7-1.3 4-2.5 6.7-3.7h.2l1-3.8c.5-.7.7-1.4.7-2 .2-.7 0-1.4.6-2l1 6.5L542 31l.6-.3c1.5-2.4 3.2-5 5.4-7.2 0 .7-.3 1.3-.4 2-.4 1.3-.7 2.6-.8 4 .4 0 0 .3 0 .5-.5 4-.2 8 1 12 0 .8.5 1.6.6 2.4.5-.8.7-1.6 1-2.4l2-6 .6-1.3c.4.8.3 1.6.5 2.3l2 10c.6-.5 1-1 1.2-1.7 3.5-5.8 1.5-12.5-5.5-18.5-.2-.2-.3-.4-.2-.6 2 1 3.8 2.3 5.3 3.5 3 2.4 5.5 5 7.2 7.4.3 1 1 1.7 1.2 2.6l1 2.3c0 .3 0 .8.3 1.2.2-.6.2-1.3.3-2V40c-.3-.8-.3-1.5-.4-2.2-.8-3.3-2.5-6.7-5-10-.3-.2-.4-.4-.4-.6 1.6 1.2 3 2.4 4 3.6 2 1.7 3.4 3.4 4.7 5.2.5.7.8 1.4 1.5 2 .4-.8.7-1.7 1.2-2.5 1.6-3.3 3.5-6.6 5.8-9.8 0 .5 0 1-.2 1.5l-.7 2.8c0 .7-.4 1.4-.4 2l-.5 6c0 1 0 2 .2 3v2c0 .6 0 1 .2 1.7v1.2c.4-.4.6-.8.6-1l2.7-8c.6 2 1 3.6 1.3 5.4l1.2 6 6-23.8c.2 0 .2-.2.3-.3l.4.5c0 1.6.2 3.3.4 5l1.6 14.7c.7-1.5.7-3 1-4.6 0-2 .3-4 0-6-.3-2.6-1-5-2-7.7v-.6c1.2 1.4 2.2 2.8 3 4.3 3.3 4.8 5.2 9.7 6 14.6l.2 2.2c0 1.3.2 2.7 0 4V52c0 .5-.3 1 0 1.4l-1 10.4-301.4-17 1-14.5c.5-.5.4-1 .4-1.6.6-3 2-6 3.5-9v-1l-1-4.5-.2-1.2c0-.2 0-.4.3-.5.2.5.8 1 1 1.6.8.8 1.2 1.6 2 2.4.5-.8 1-1.5 1.7-2.2v.7c-.4.8-.6 1.7-.7 2.6 0 .5.6 1 1 1.4l1.5-4.5.7-2c.4.6.4 1.2.5 1.7l.7-1.6c.3.4.2.8.3 1.2l2 11c.3 1 1 2 1.2 3 .4-.7.6-1.4.8-2 .3-1-.2-2-.4-3-1-4.7-2-9.5-3.2-14.3V10c1 1 1.4 1.8 2.2 2.7l5.3 7 .4.4c1-1.5 2.4-3 4-4.6.2-.2 0-.5 0-.7-.8-1.3-1.7-2.6-2.7-3.8l-1-1.3c2.4 1.6 4.3 3.2 6 5 1.8 1.6 3.2 3.3 4.4 5 1.3-2.2 2.8-4.4 4.6-6.6 1.3-1.4 2.6-3 4.2-4.3 0 .3-.2.6-.4 1-1 1.7-1.7 3.5-2.3 5.4-.2 1-.6 2-.7 3v-.3c0 .8-.4 1.6-.4 2.4l-.3 4.5c0 .2 0 .4.2.5 0 2.5.4 5 1 7.3l3.3-10.5 2.8-9.3c.3.4.2.8.3 1.2l2 12.7c0 1.4.2 2.7.6 4l1-2c.3-.4.5-.7.5-1v.2l.8-1.6 1.4-2.7 4.6-9.3 1.3-2.3V13l-1 12.3c0 .7-.2 1.3 0 2 0-1 .5-1.8.8-2.8l2.4-7c0-.3.2-.4.3-.6l2.2 10.8.6 3c.3-.7.7-1.6.7-2.4l.2.2c0-.5 0-1 .2-1.6.3-1.6.4-3.2.5-4.7 0-1.5-.3-3-.5-4.6 0-.7-.3-1.4-.2-2.2.5.3.6.6.8.8V16c.3.4.5.8.8 1 2.7 4 4.5 8.2 5.4 12.3 0 .5.2 1 .4 1.6.4-1 .5-1.7.5-2.5 0-.5.3-1 0-1.7 0-3.7-1.8-7.4-5-11 0-.2 0-.3-.2-.4 0 0 .3 0 .4-.2.7.7 1.7 1.4 2.5 2 2.8 2.4 5 4.8 6.7 7.2.3.5.7 1 .8 1.6 0-.4.3-.8.3-1.3v-1.2l.6-9c0-.2 0-.4.2-.6l1 2c1.4 4.5 3 8.8 4.5 13.2.6 1.5 1 3 1.7 4.5 0-.3 0-.7.2-1L384 18c.2-.6.2-1 .6-1.5l.4 2.2 2.2 15.2c.2.7.2 1.5.5 2.4l.6-1.3c.2-1.2.5-2.6 1.2-4 .4-.5.3-1.2.5-1.8l.4-4.2c0-3.5-.6-7.2-2-10.8 0-.4-.2-.7-.3-1 1 .7 1.5 1.6 2.2 2.4 1.3 2 2.5 3.8 3.5 5.7l1.5 3c2.5-2 6-4 10-5.8h.6v.2c-3.6 2.3-6 4.8-7.7 7.5-.7 1.5-1.3 3-1 4.8.3 1 .4 2.2.6 3.3l1.4-3.6c.4-.7 1-1.4 1-2.2 1.4-2.5 3-5 5-7.4l.6-.5-.2 1.3c0 .6-.3 1.2-.4 2 0 .7-.3 1.6-.3 2.5 0 1-.2 1.8 0 2.8l.4-.3c2.3-1.5 5-2.8 8.2-4 .6-.2.5-.6.6-1 .7-2 1-4 1.8-5.8l.3.5c0 .7 0 1.4.2 2 0 1 .2 2 .4 3 1.7-.6 3.4-1.2 5.2-1.6.5-.3 1.2-.4 1.3-.7 1.4-2 3-4 5-6.2 0 1-.6 2-.7 2.7-.7 2.7-.8 5.4-1 8 .2 2.5.4 5 1.2 7.3l1-3c.4-1.2 1-2.4 1.3-3.7l3 13.4c.8-1 1.6-2.2 2.2-3.3 3-5.4 1.3-11.4-4.5-17l-2.5-2.2 1 .6c6.3 3.6 10.7 7.6 13 11.7l1 1.8c0-1-.2-1.8-.3-2.7-.5-2-1.3-4-2.6-6.2-.6-1.3-1.6-2.5-2.5-3.8 1.7 1.3 3.2 2.5 4.4 3.8 2.3 2.4 4.2 4.7 5.5 7.2l.7 1 .2-1.2c0-1.7.2-3.4.3-5 0-1 0-1.7.2-2.5l.4.3c0 .7.5 1.4.7 2l4 10.3c.3.8.5 1.5 1 2.3.5-1.4 1.3-2.7 2-4 1-1.8 2.3-3.4 3.5-5l.7-.5v.8c0 .3 0 .7-.3 1l-.4 2-.2 2.8v3c0 .6 0 1.2.3 1.8l3.3-5.4 6-9.4c.8-1 1.4-2.4 2.3-3.5v.8c0 2-.3 4-.4 6-.2 1.6-.5 3-.5 4.7.6-.2 1-.4 1.2-.7 2-1.2 4-2.4 6.4-3.5 0 .2-.2.4-.5.6-4.8 3.8-7.2 8.2-6.7 12.7 0 .8.2 1.6.4 2.4.5-.7.6-1.4 1-2l2.5-7.4 1-2.6c.3.3.4.7.4 1l1.6 6.7.8 4c.2-.4.4-.8.4-1.3.5-2.3 1-4.7 1.8-7 0-.7.5-1.4.6-2.2 0-.6-.5-1.3-.7-2-2.5-5-7.2-10-14-14.6-.5-.4-1-.7-1.2-1l-.3.2.3-.2c.6.4 1.6.7 2.2 1z"/><path d="M766.6 13.8l4.2 1.5c-.2 0 0 .3 0 .3.5 0 .7 0 1 .2 3.5 1.5 6.8 3.2 9.6 5l1 .5 1.7 1.2c.4-.5.4-1 .6-1.6.2-.8.6-1.5.6-2 .7-2 1.4-4 2.3-6 0-.3.2-.5.4-.7-.2.6 0 1.2-.2 1.8v2.4c0 1.5 0 3 .2 4.6 0 1.2 0 2.4.3 3.5l.2 1.3c0 .5.7.8 1 1.3 1-2.7 2.2-5.4 4-8.2 1-1.7 2-3.5 3.6-5.2 0 .4 0 1-.3 1.4-2.6 7.7-2.4 15.4.8 22.8.3-1 .4-2 .6-3.2l1-6c.3-.8.3-1.6.4-2.5l1-6.4c0-.8.2-1.5.4-2.3l.3.4 3 9.8.8 3c0 .6.4 1.3.6 2 .2.7.3 1.5.8 2.2.3-.7.7-1.4.7-2 2-6.2 3.4 3 3.7 3.4 0 0 .3-8 1.3-4 .4 1.5 1 8 1 8v11L598 64.8l-1-10.6c.3-.6.2-1 0-1.7.3-3 1-6.3 2.3-9.6v-1c-.7-1.4-1.3-3-1.8-4.3 0-.5-.2-.8-.4-1.2 0-.2.2-.4.4-.5.3.5 1 1 1.4 1.4l2 2 1.6-2.4v.7c-.2 1-.3 2-.2 2.8 0 .5.7 1 1 1.3.5-1.6.7-3.2 1-4.8.2-.7.2-1.3.5-2 .4.5.5 1 .7 1.6 0-.5.3-1 .4-1.7.4.3.4.6.5 1l3.7 10.8c.3 1 1.2 1.8 1.5 2.7.3-.7.4-1.3.5-2 0-1-.5-2-.8-3L606 30.8c-.2-.2-.2-.3-.2-.5l2.6 2.4 6.3 6.2.4.4c1-1.8 2-3.5 3.4-5.3.2-.3 0-.6 0-.8-1-1.2-2-2.3-3.3-3.4l-1-1c2.6 1.2 4.7 2.5 6.7 4 2 1.4 3.7 3 5 4.6 1-2.5 2.3-5 3.8-7.4 1-1.7 2-3.3 3.5-5 0 .3 0 .7-.2 1-.7 2-1.2 4-1.5 5.8 0 1-.4 2-.3 3v-.3c0 .8-.3 1.7-.2 2.5 0 1.5.2 3 .4 4.4v.6c.5 2.4 1.3 4.8 2.3 7 .6-3.6 1-7.2 1.7-11l1.5-9.6c.3.4.3.8.5 1.2l3.6 12.4 1.3 4 1-2.2.2-1.2v.3c0-.7.4-1.3.6-1.8.5-1 1-2 1-3l3.5-10c.3-.7.5-1.5 1-2.4V27l1 12.6v2l.6-3c.4-2.4 1-5 1.3-7.4l.3-.6 3.6 10.7 1 3c.3-1 .6-1.8.5-2.7 0 0 0 .2.2.3-.2-.6-.2-1.2 0-1.7 0-1.7-.2-3.3-.3-5-.2-1.4-.6-3-1-4.4 0-.8-.6-1.5-.5-2.2.5 0 .6.4.8.7v-.3l.8 1c3.3 3.6 5.7 7.4 7.2 11.3 0 .6.3 1 .6 1.6.3-.7.3-1.5.2-2.3 0-.6 0-1.2-.3-1.7-.6-3.7-3-7.2-6.6-10.5-.2 0-.3 0-.4-.2l.4-.2 2.8 1.7c3 2 5.7 4 7.7 6.3.4.4 1 1 1 1.4 0-.4.3-.8 0-1.3v-1l-.7-9.2v-.6c.6.7.8 1.4 1.2 2l6.5 12.5c.8 1.4 1.4 3 2.3 4.3v-1c1-5.2 1.7-10.4 2.4-15.5 0-.5 0-1 .4-1.5.4.7.5 1.5.7 2.2l4.4 15c.3.7.4 1.5.8 2.3l.4-1.4c0-1.2 0-2.6.6-4 .3-.7 0-1.4.2-2 0-1.5 0-3-.2-4.3-.4-3.5-1.6-7-3.4-10.5l-.5-1c1 .6 1.6 1.4 2.4 2.2 1.7 1.7 3 3.4 4.4 5 .7 1 1.2 2 2 3 2.2-2.5 5.4-5 9-7.3h.8v.2c-3.3 2.8-5.5 5.7-6.7 8.6-.6 1.7-1 3.4-.3 5l1 3.2c0-1.3.5-2.5 1-3.7.2-.8.6-1.6.7-2.4.8-2.8 2-5.5 3.7-8.2 0-.3.3-.5.5-.8.2.5 0 1 0 1.4 0 .7-.2 1.3 0 2 0 .8-.2 1.7 0 2.6 0 1 0 2 .3 2.8l.4-.4c2-1.8 4.5-3.6 7.5-5.2.5-.3.3-.7.4-1 .3-2 .5-4 1-6.2l.2.6.6 2c.3 1 .5 2 1 3 1.5-1 3-1.7 4.8-2.4.5-.3 1.2-.5 1.3-.8 1-2.3 2.2-4.6 3.8-6.8.2.8-.2 1.8-.2 2.6-.4 2.8 0 5.5.2 8.3.4 2.3 1 4.7 2 7l.7-3 .8-4c1.7 4.3 3.3 8.7 4.7 13 .8-1.2 1.5-2.4 2-3.6 2-6-.4-11.7-7-16.5-1-.6-2-1.2-2.8-2l1.2.5c6.7 2.8 11.6 6.2 14.6 10 .4.5 1 1 1 1.6.2-1-.2-1.8-.5-2.6-.8-2-2-4-3.4-5.8-.8-1.2-2-2.4-3-3.5 1.8 1 3.5 2 5 3.2 2.6 2 5 4 6.5 6.2.2.4.4.8.8 1V30c0-1.7-.3-3.5-.4-5.2 0-.8-.3-1.6-.2-2.4l.5.3 1 2 5.3 9.7 1.3 2.2c.3-1.5 1-3 1.5-4.3.8-2 1.8-3.7 2.8-5.5l.6-.6V28c-.2.8 0 1.5-.2 2.2 0 1 0 1.8.2 2.8 0 1 .3 2 .4 3 .2.5 0 1 .5 1.7.7-2 1.7-4 2.5-6l4.7-10c.6-1.4 1-2.7 1.8-4 0 .2 0 .5.2.8l.3 6c.2 1.6 0 3.2.4 4.8l1-.8c1.7-1.5 3.6-3 6-4.5l-.6.7c-4.4 4.5-6 9.2-5 13.7 0 .7.5 1.5.7 2.2.5-.7.5-1.5.7-2.2.6-2.6 1-5 1.7-7.6.2-1 .3-2 .7-3l.5 1c1 2.3 1.6 4.5 2.5 6.7.4 1.2 1 2.5 1.3 3.7l.2-1.3c.2-2.5.4-5 .8-7.4 0-.8.3-1.5.3-2.2 0-.7-.6-1.4-1-2-3-4.7-8.6-9-16.2-12.7l-1-.6-.5.2s.2 0 .3-.2l2.3.8z"/></g><g fill="#8CC63F"><path d="M169.7 2.6l4 1.7v.3c.6 0 .7 0 1 .2 3.5 1.7 6.6 3.5 9.3 5.4l.8.7 1.7 1c.4-.4.4-1 .7-1.5.2-.6.6-1.3.6-2 .8-2 1.6-3.8 2.6-5.7 0-.2.3-.4.4-.6V4c-.3.8-.2 1.5-.3 2.2v8.1c.2.4.2.8.2 1.3 0 .4.7.8 1 1.3 1-2.8 2.5-5.4 4.2-8 1-1.7 2.3-3.4 3.8-5 0 .4-.2 1-.4 1.3-3 7.5-3 15.2-.4 22.6l.7-3.2L201 19l.5-2.5c.4-2.2 1-4.3 1.3-6.4l.5-2.2c0 .2.2.3.3.5L206 18l.6 3c0 .7.3 1.4.5 2 .3.8.3 1.6.7 2.3.3-.7.8-1.4.8-2l7.2-17.8c.4.6.2 1.3.3 2v1.2c-.2.8 0 1.6 0 2.4v10.5c.2-.6.2-1.2.5-1.8L218 14c0-1 .4-2.2.6-3.2l.6.6 3 11.2c.3 1 .7 1.8.8 2.7.3-1 .5-2 .5-3v.4l.3-3.3c0-1.3 0-2.7-.3-4 0-1-.2-2.2-.4-3.3 0-1-.4-2-.7-2.8 0-.4-.3-.8-.2-1.2.7.6 1 1 1.5 1.7 1.8 2.5 3.3 5 4.6 7.4l1 2.3c1.8-1.5 4-3 6.5-4.3l.3-.2.7-3.8c.3-.8.5-1.5.4-2.2 0-.6 0-1.3.5-2l1.5 6.4 5.4-2.3.4-.3c1.3-2.6 2.8-5 4.8-7.6 0 .7-.2 1.4-.3 2-.2 1.4-.4 2.7-.4 4 .3.2-.2.4-.2.7 0 4 .6 8 2 11.8.4.8.8 1.6 1 2.4l.8-2.6L254 15l.5-1c.5.6.5 1.4.8 2.2L258 26c.6-.6 1-1.3 1.2-2 3-6 .4-12.4-7.2-18-.2 0-.3-.3-.2-.5 2 1 4 2 5.6 3 3.3 2.2 6 4.5 7.8 6.8.3.8 1 1.6 1.4 2.4.4.7.8 1.5 1 2.2.2.4.3.8.7 1.2v-2c0-.4 0-1-.2-1.4 0-.8-.2-1.5-.4-2.2-1-3.2-3-6.4-5.8-9.4l-.4-.6c1.7 1 3 2 4.5 3.2 1.8 1.5 3.4 3 4.8 4.7.6.7 1 1.4 1.7 2l1-2.7c1.3-3.4 3-6.8 5-10.2 0 .5 0 1-.2 1.5l-.3 3-.2 2v6c0 1 0 2 .3 2.8 0 .7.4 1.4.4 2 0 .7.2 1.2.3 1.8 0 .4 0 .7.2 1 .2-.2.3-.6.3-1l2-8c.8 1.7 1.3 3.5 1.8 5.2l1.8 5.7 4-24.2V0l.6.5c.2 1.7.6 3.3 1 5 1 4.8 2 9.6 2.8 14.5.6-1.6.5-3 .5-4.6 0-2 0-4-.5-6-.5-2.6-1.3-5-2.5-7.5v-.6l3.4 4c3.7 4.5 6 9.2 7.2 14 0 .7.3 1.5.4 2.2l.5 4V27c0 .6-.2 1 0 1.5l.4 14.4L0 50V40c.4-.5.4-7.4.4-8C.7 29 1.7 26 3 22.8c.2-.3 0-.6 0-1l-1.5-4.3-.3-1.2c0-.2 0-.3.3-.5.3.5 1 1 1.3 1.5.7.7 1.2 1.4 2 2L6.4 17v.7c-.3 1-.4 1.8-.4 2.7 0 .5.7 1 1 1.4.5-1.5.8-3 1.2-4.7l.5-2c.4.7.5 1.2.6 1.8L10 15l.3 1.2 3 11c.3.8 1.2 1.7 1.4 2.6.4-.6.5-1.3.6-2 .2-1-.3-2-.6-3L10.2 11v-.5l2.3 2.5 6 6.4c0 .2.2.3.4.5 1-1.8 2-3.5 3.4-5.2.2-.2 0-.5 0-.7-1-1-2-2.3-3-3.5-.4-.3-1-.7-1-1 2.4 1.3 4.4 2.8 6.3 4.3 2 1.5 3.5 3 4.8 4.8 1-2.4 2.4-4.8 4-7 1-1.7 2.3-3.3 3.8-4.8 0 .3 0 .6-.3 1-.8 1.8-1.4 3.7-1.8 5.6-.2 1-.5 2-.4 3 0-.2 0-.3-.2-.4 0 .8-.2 1.7 0 2.5-.2 1.4 0 3 0 4.4v.4c.4 2.4 1 4.8 2 7.2l2-10.8c.8-3.2 1.3-6.3 2-9.5.4.4.4.8.5 1.2L44 24c.5 1.3.7 2.6 1 4 .5-.7.7-1.5 1-2.2l.4-1v.2c0-.6.4-1.2.7-1.7.6-1 1-2 1.2-2.8l4-9.7c.3-.8.5-1.6 1-2.4v1.3l.2 12.4v2l.8-2.8L56 14c0-.3 0-.5.3-.7l3 10.7c.3 1 .5 2 1 3 0-.8.5-1.7.5-2.5v.2c0-.5 0-1 .2-1.6v-4.7c0-1.5-.3-3-.7-4.5 0-.7-.5-1.4-.4-2 .5 0 .6.3.7.6v-.2l.8 1c3 3.7 5.2 7.6 6.5 11.5 0 .6.2 1 .5 1.6.3-.8.4-1.6.3-2.4 0-.6 0-1.2-.2-1.8-.4-3.6-2.5-7.2-6-10.6 0 0 0-.2-.2-.2l.3-.3c1 .7 2 1.3 2.7 2 3 2 5.5 4.2 7.3 6.4.4.5 1 1 1 1.6 0-.5.2-1 0-1.3v-1.3c0-3 0-6-.2-9V9c.6.7.8 1.5 1.2 2.2l5.7 12.6 2 4.3c0-.4.2-.8.3-1l3-15.3c0-.4.2-1 .4-1.4.5.7.5 1.5.8 2.2 1 5 2.3 10 3.5 15 .2.7.3 1.6.7 2.3 0-.4.3-.8.5-1.3 0-1.3.3-2.7.8-4 .3-.7.2-1.4.4-2v-4.2c-.3-3.6-1.2-7-3-10.6l-.3-1c1 .7 1.5 1.5 2.3 2.3 1.5 1.7 2.8 3.5 4 5.3.6 1 1 2 1.7 3 2.4-2.4 5.7-4.6 9.5-6.8h.5v.2c-3.4 2.5-5.7 5.3-7 8-.7 1.7-1.2 3.4-.6 5l.6 3.2c.3-1.3.7-2.5 1.2-3.7.3-.8.8-1.6 1-2.4 1-2.7 2.4-5.3 4-7.8l.6-.8c.2.5 0 1 0 1.4 0 .6-.3 1.3-.2 2 0 .8-.2 1.7 0 2.5 0 1-.2 2 0 2.8.2 0 .3 0 .4-.3 2-1.6 4.8-3.2 7.8-4.7.6-.3.4-.6.5-1l1.2-6 .3.6c0 .7.3 1.4.5 2 .2 1 .3 2 .7 2.8l5-2c.5-.2 1.2-.4 1.2-.6 1-2.2 2.5-4.4 4.2-6.6.2 1-.3 1.7-.4 2.6-.5 2.7-.3 5.4-.2 8 .3 2.5.8 5 1.7 7.2l.8-3c.4-1.3.8-2.5 1-3.8 1.5 4.3 3 8.7 4 13 1-1 1.7-2.3 2-3.4 2.6-5.7.4-11.5-6-16.6l-2.5-2 1 .5c6.6 3 11.3 6.7 14 10.6.4.5.8 1 1 1.7.2-1-.2-1.8-.4-2.7-.6-2-1.6-4-3-6L139 8c2 1 3.5 2.2 4.8 3.4 2.5 2 4.7 4.4 6.2 6.6.2.4.4.8.8 1v-1.2-5c0-1-.2-1.7 0-2.5 0 .2.2.3.4.5l1 2c1.5 3.3 3 6.5 4.7 9.8.2.8.5 1.5 1 2.2.4-1.4 1-2.7 1.8-4l3-5.4c.2 0 .4-.3.6-.4v1.8c-.2.7 0 1.4-.2 2v2.8l.2 3c.3.5 0 1 .5 1.7.8-2 1.8-4 2.8-5.7l5-10c.8-1.2 1.3-2.4 2-3.7.2.3.2.6.2.8v10.8c.7-.2 1-.5 1.3-.8 1.7-1.4 3.7-2.8 6-4 0 .2-.3.4-.5.6-4.5 4.2-6.5 8.8-5.7 13.2.3.8.6 1.5.7 2.3.5-.8.5-1.5.8-2.2l2-7.4c.3-1 .4-2 .8-3l.5 1 2 6.7c.4 1.2 1 2.5 1 3.8.3-.5.4-1 .4-1.3l1-7.2.6-2.2c0-.7-.6-1.3-1-2-2.8-4.8-8-9.3-15.2-13.3-.4-.3-1-.5-1-.7h-.5.5l2.2.8z"/><path d="M468.5 16c1.4.8 2.5 1.5 4 2.2-.3 0-.2.2-.2.2.6 0 .7.2 1 .3 3.3 2 6.2 4 8.8 6.2.2 0 .5.4.8.6l1.6 1.4c.4-.5.5-1 .8-1.5.3-.6.7-1.3.8-2l3-5.5c.2 0 .4-.3.6-.5l-.3 1.8-.4 2.2c-.4 1.5-.4 3-.6 4.6V31c-.2.5.5 1 .7 1.4 1.5-2.5 3-5 5-7.5l4.4-4.7c0 .5-.4 1-.6 1.4-3.6 7.2-4.4 14.8-2.3 22.4l1-3L498 35c.5-.7.7-1.5 1-2.3l1.8-6.3.7-2.2c0 .2.2.3.3.5l1.4 10 .5 3c0 .6 0 1.3.2 2 0 .8 0 1.6.4 2.3.3-.6.8-1.3 1-2l8.7-17c.4.7.2 1.3 0 2V26c-.2.8 0 1.6-.2 2.4L513 39l.6-1.8c.6-2 1.2-3.7 2-5.6.2-1 .6-2 1-3 .2 0 .3.3.4.6l2 11.4c.3 1 .6 1.8.6 2.7.4-1 .7-2 .8-3v.5c0-1 .5-2.2.5-3.2 0-1.4.2-2.7 0-4 0-1.2 0-2.3-.2-3.4 0-1-.3-2-.5-3 0-.4-.2-.8 0-1 .4.4.7 1 1 1.6 1.7 2.6 3 5.3 4 8l1 2c1.7-1.3 4-2.5 6.7-3.7h.2l1-3.8c.5-.7.7-1.4.7-2 .2-.7 0-1.4.6-2l1 6.5L542 31l.6-.3c1.5-2.4 3.2-5 5.4-7.2 0 .7-.3 1.3-.4 2-.4 1.3-.7 2.6-.8 4 .4 0 0 .3 0 .5-.5 4-.2 8 1 12 0 .8.5 1.6.6 2.4.5-.8.7-1.6 1-2.4l2-6 .6-1.3c.4.8.3 1.6.5 2.3l2 10c.6-.5 1-1 1.2-1.7 3.5-5.8 1.5-12.5-5.5-18.5-.2-.2-.3-.4-.2-.6 2 1 3.8 2.3 5.3 3.5 3 2.4 5.5 5 7.2 7.4.3 1 1 1.7 1.2 2.6l1 2.3c0 .3 0 .8.3 1.2.2-.6.2-1.3.3-2V40c-.3-.8-.3-1.5-.4-2.2-.8-3.3-2.5-6.7-5-10-.3-.2-.4-.4-.4-.6 1.6 1.2 3 2.4 4 3.6 2 1.7 3.4 3.4 4.7 5.2.5.7.8 1.4 1.5 2 .4-.8.7-1.7 1.2-2.5 1.6-3.3 3.5-6.6 5.8-9.8 0 .5 0 1-.2 1.5l-.7 2.8c0 .7-.4 1.4-.4 2l-.5 6c0 1 0 2 .2 3v2c0 .6 0 1 .2 1.7v1.2c.4-.4.6-.8.6-1l2.7-8c.6 2 1 3.6 1.3 5.4l1.2 6 6-23.8c.2 0 .2-.2.3-.3l.4.5c0 1.6.2 3.3.4 5l1.6 14.7c.7-1.5.7-3 1-4.6 0-2 .3-4 0-6-.3-2.6-1-5-2-7.7v-.6c1.2 1.4 2.2 2.8 3 4.3 3.3 4.8 5.2 9.7 6 14.6l.2 2.2c0 1.3.2 2.7 0 4V52c0 .5-.3 1 0 1.4l-1 10.4-301.4-17 1-14.5c.5-.5.4-1 .4-1.6.6-3 2-6 3.5-9v-1l-1-4.5-.2-1.2c0-.2 0-.4.3-.5.2.5.8 1 1 1.6.8.8 1.2 1.6 2 2.4.5-.8 1-1.5 1.7-2.2v.7c-.4.8-.6 1.7-.7 2.6 0 .5.6 1 1 1.4l1.5-4.5.7-2c.4.6.4 1.2.5 1.7l.7-1.6c.3.4.2.8.3 1.2l2 11c.3 1 1 2 1.2 3 .4-.7.6-1.4.8-2 .3-1-.2-2-.4-3-1-4.7-2-9.5-3.2-14.3V10c1 1 1.4 1.8 2.2 2.7l5.3 7 .4.4c1-1.5 2.4-3 4-4.6.2-.2 0-.5 0-.7-.8-1.3-1.7-2.6-2.7-3.8l-1-1.3c2.4 1.6 4.3 3.2 6 5 1.8 1.6 3.2 3.3 4.4 5 1.3-2.2 2.8-4.4 4.6-6.6 1.3-1.4 2.6-3 4.2-4.3 0 .3-.2.6-.4 1-1 1.7-1.7 3.5-2.3 5.4-.2 1-.6 2-.7 3v-.3c0 .8-.4 1.6-.4 2.4l-.3 4.5c0 .2 0 .4.2.5 0 2.5.4 5 1 7.3l3.3-10.5 2.8-9.3c.3.4.2.8.3 1.2l2 12.7c0 1.4.2 2.7.6 4l1-2c.3-.4.5-.7.5-1v.2l.8-1.6 1.4-2.7 4.6-9.3 1.3-2.3V13l-1 12.3c0 .7-.2 1.3 0 2 0-1 .5-1.8.8-2.8l2.4-7c0-.3.2-.4.3-.6l2.2 10.8.6 3c.3-.7.7-1.6.7-2.4l.2.2c0-.5 0-1 .2-1.6.3-1.6.4-3.2.5-4.7 0-1.5-.3-3-.5-4.6 0-.7-.3-1.4-.2-2.2.5.3.6.6.8.8V16c.3.4.5.8.8 1 2.7 4 4.5 8.2 5.4 12.3 0 .5.2 1 .4 1.6.4-1 .5-1.7.5-2.5 0-.5.3-1 0-1.7 0-3.7-1.8-7.4-5-11 0-.2 0-.3-.2-.4 0 0 .3 0 .4-.2.7.7 1.7 1.4 2.5 2 2.8 2.4 5 4.8 6.7 7.2.3.5.7 1 .8 1.6 0-.4.3-.8.3-1.3v-1.2l.6-9c0-.2 0-.4.2-.6l1 2c1.4 4.5 3 8.8 4.5 13.2.6 1.5 1 3 1.7 4.5 0-.3 0-.7.2-1L384 18c.2-.6.2-1 .6-1.5l.4 2.2 2.2 15.2c.2.7.2 1.5.5 2.4l.6-1.3c.2-1.2.5-2.6 1.2-4 .4-.5.3-1.2.5-1.8l.4-4.2c0-3.5-.6-7.2-2-10.8 0-.4-.2-.7-.3-1 1 .7 1.5 1.6 2.2 2.4 1.3 2 2.5 3.8 3.5 5.7l1.5 3c2.5-2 6-4 10-5.8h.6v.2c-3.6 2.3-6 4.8-7.7 7.5-.7 1.5-1.3 3-1 4.8.3 1 .4 2.2.6 3.3l1.4-3.6c.4-.7 1-1.4 1-2.2 1.4-2.5 3-5 5-7.4l.6-.5-.2 1.3c0 .6-.3 1.2-.4 2 0 .7-.3 1.6-.3 2.5 0 1-.2 1.8 0 2.8l.4-.3c2.3-1.5 5-2.8 8.2-4 .6-.2.5-.6.6-1 .7-2 1-4 1.8-5.8l.3.5c0 .7 0 1.4.2 2 0 1 .2 2 .4 3 1.7-.6 3.4-1.2 5.2-1.6.5-.3 1.2-.4 1.3-.7 1.4-2 3-4 5-6.2 0 1-.6 2-.7 2.7-.7 2.7-.8 5.4-1 8 .2 2.5.4 5 1.2 7.3l1-3c.4-1.2 1-2.4 1.3-3.7l3 13.4c.8-1 1.6-2.2 2.2-3.3 3-5.4 1.3-11.4-4.5-17l-2.5-2.2 1 .6c6.3 3.6 10.7 7.6 13 11.7l1 1.8c0-1-.2-1.8-.3-2.7-.5-2-1.3-4-2.6-6.2-.6-1.3-1.6-2.5-2.5-3.8 1.7 1.3 3.2 2.5 4.4 3.8 2.3 2.4 4.2 4.7 5.5 7.2l.7 1 .2-1.2c0-1.7.2-3.4.3-5 0-1 0-1.7.2-2.5l.4.3c0 .7.5 1.4.7 2l4 10.3c.3.8.5 1.5 1 2.3.5-1.4 1.3-2.7 2-4 1-1.8 2.3-3.4 3.5-5l.7-.5v.8c0 .3 0 .7-.3 1l-.4 2-.2 2.8v3c0 .6 0 1.2.3 1.8l3.3-5.4 6-9.4c.8-1 1.4-2.4 2.3-3.5v.8c0 2-.3 4-.4 6-.2 1.6-.5 3-.5 4.7.6-.2 1-.4 1.2-.7 2-1.2 4-2.4 6.4-3.5 0 .2-.2.4-.5.6-4.8 3.8-7.2 8.2-6.7 12.7 0 .8.2 1.6.4 2.4.5-.7.6-1.4 1-2l2.5-7.4 1-2.6c.3.3.4.7.4 1l1.6 6.7.8 4c.2-.4.4-.8.4-1.3.5-2.3 1-4.7 1.8-7 0-.7.5-1.4.6-2.2 0-.6-.5-1.3-.7-2-2.5-5-7.2-10-14-14.6-.5-.4-1-.7-1.2-1l-.3.2.3-.2c.6.4 1.6.7 2.2 1z"/><path d="M766.6 13.8l4.2 1.5c-.2 0 0 .3 0 .3.5 0 .7 0 1 .2 3.5 1.5 6.8 3.2 9.6 5l1 .5 1.7 1.2c.4-.5.4-1 .6-1.6.2-.8.6-1.5.6-2 .7-2 1.4-4 2.3-6 0-.3.2-.5.4-.7-.2.6 0 1.2-.2 1.8v2.4c0 1.5 0 3 .2 4.6 0 1.2 0 2.4.3 3.5l.2 1.3c0 .5.7.8 1 1.3 1-2.7 2.2-5.4 4-8.2 1-1.7 2-3.5 3.6-5.2 0 .4 0 1-.3 1.4-2.6 7.7-2.4 15.4.8 22.8.3-1 .4-2 .6-3.2l1-6c.3-.8.3-1.6.4-2.5l1-6.4c0-.8.2-1.5.4-2.3l.3.4 3 9.8.8 3c0 .6.4 1.3.6 2 .2.7.3 1.5.8 2.2.3-.7.7-1.4.7-2 2-6.2 3.4 3 3.7 3.4 0 0 .3-8 1.3-4 .4 1.5 1 8 1 8v11L598 64.8l-1-10.6c.3-.6.2-1 0-1.7.3-3 1-6.3 2.3-9.6v-1c-.7-1.4-1.3-3-1.8-4.3 0-.5-.2-.8-.4-1.2 0-.2.2-.4.4-.5.3.5 1 1 1.4 1.4l2 2 1.6-2.4v.7c-.2 1-.3 2-.2 2.8 0 .5.7 1 1 1.3.5-1.6.7-3.2 1-4.8.2-.7.2-1.3.5-2 .4.5.5 1 .7 1.6 0-.5.3-1 .4-1.7.4.3.4.6.5 1l3.7 10.8c.3 1 1.2 1.8 1.5 2.7.3-.7.4-1.3.5-2 0-1-.5-2-.8-3L606 30.8c-.2-.2-.2-.3-.2-.5l2.6 2.4 6.3 6.2.4.4c1-1.8 2-3.5 3.4-5.3.2-.3 0-.6 0-.8-1-1.2-2-2.3-3.3-3.4l-1-1c2.6 1.2 4.7 2.5 6.7 4 2 1.4 3.7 3 5 4.6 1-2.5 2.3-5 3.8-7.4 1-1.7 2-3.3 3.5-5 0 .3 0 .7-.2 1-.7 2-1.2 4-1.5 5.8 0 1-.4 2-.3 3v-.3c0 .8-.3 1.7-.2 2.5 0 1.5.2 3 .4 4.4v.6c.5 2.4 1.3 4.8 2.3 7 .6-3.6 1-7.2 1.7-11l1.5-9.6c.3.4.3.8.5 1.2l3.6 12.4 1.3 4 1-2.2.2-1.2v.3c0-.7.4-1.3.6-1.8.5-1 1-2 1-3l3.5-10c.3-.7.5-1.5 1-2.4V27l1 12.6v2l.6-3c.4-2.4 1-5 1.3-7.4l.3-.6 3.6 10.7 1 3c.3-1 .6-1.8.5-2.7 0 0 0 .2.2.3-.2-.6-.2-1.2 0-1.7 0-1.7-.2-3.3-.3-5-.2-1.4-.6-3-1-4.4 0-.8-.6-1.5-.5-2.2.5 0 .6.4.8.7v-.3l.8 1c3.3 3.6 5.7 7.4 7.2 11.3 0 .6.3 1 .6 1.6.3-.7.3-1.5.2-2.3 0-.6 0-1.2-.3-1.7-.6-3.7-3-7.2-6.6-10.5-.2 0-.3 0-.4-.2l.4-.2 2.8 1.7c3 2 5.7 4 7.7 6.3.4.4 1 1 1 1.4 0-.4.3-.8 0-1.3v-1l-.7-9.2v-.6c.6.7.8 1.4 1.2 2l6.5 12.5c.8 1.4 1.4 3 2.3 4.3v-1c1-5.2 1.7-10.4 2.4-15.5 0-.5 0-1 .4-1.5.4.7.5 1.5.7 2.2l4.4 15c.3.7.4 1.5.8 2.3l.4-1.4c0-1.2 0-2.6.6-4 .3-.7 0-1.4.2-2 0-1.5 0-3-.2-4.3-.4-3.5-1.6-7-3.4-10.5l-.5-1c1 .6 1.6 1.4 2.4 2.2 1.7 1.7 3 3.4 4.4 5 .7 1 1.2 2 2 3 2.2-2.5 5.4-5 9-7.3h.8v.2c-3.3 2.8-5.5 5.7-6.7 8.6-.6 1.7-1 3.4-.3 5l1 3.2c0-1.3.5-2.5 1-3.7.2-.8.6-1.6.7-2.4.8-2.8 2-5.5 3.7-8.2 0-.3.3-.5.5-.8.2.5 0 1 0 1.4 0 .7-.2 1.3 0 2 0 .8-.2 1.7 0 2.6 0 1 0 2 .3 2.8l.4-.4c2-1.8 4.5-3.6 7.5-5.2.5-.3.3-.7.4-1 .3-2 .5-4 1-6.2l.2.6.6 2c.3 1 .5 2 1 3 1.5-1 3-1.7 4.8-2.4.5-.3 1.2-.5 1.3-.8 1-2.3 2.2-4.6 3.8-6.8.2.8-.2 1.8-.2 2.6-.4 2.8 0 5.5.2 8.3.4 2.3 1 4.7 2 7l.7-3 .8-4c1.7 4.3 3.3 8.7 4.7 13 .8-1.2 1.5-2.4 2-3.6 2-6-.4-11.7-7-16.5-1-.6-2-1.2-2.8-2l1.2.5c6.7 2.8 11.6 6.2 14.6 10 .4.5 1 1 1 1.6.2-1-.2-1.8-.5-2.6-.8-2-2-4-3.4-5.8-.8-1.2-2-2.4-3-3.5 1.8 1 3.5 2 5 3.2 2.6 2 5 4 6.5 6.2.2.4.4.8.8 1V30c0-1.7-.3-3.5-.4-5.2 0-.8-.3-1.6-.2-2.4l.5.3 1 2 5.3 9.7 1.3 2.2c.3-1.5 1-3 1.5-4.3.8-2 1.8-3.7 2.8-5.5l.6-.6V28c-.2.8 0 1.5-.2 2.2 0 1 0 1.8.2 2.8 0 1 .3 2 .4 3 .2.5 0 1 .5 1.7.7-2 1.7-4 2.5-6l4.7-10c.6-1.4 1-2.7 1.8-4 0 .2 0 .5.2.8l.3 6c.2 1.6 0 3.2.4 4.8l1-.8c1.7-1.5 3.6-3 6-4.5l-.6.7c-4.4 4.5-6 9.2-5 13.7 0 .7.5 1.5.7 2.2.5-.7.5-1.5.7-2.2.6-2.6 1-5 1.7-7.6.2-1 .3-2 .7-3l.5 1c1 2.3 1.6 4.5 2.5 6.7.4 1.2 1 2.5 1.3 3.7l.2-1.3c.2-2.5.4-5 .8-7.4 0-.8.3-1.5.3-2.2 0-.7-.6-1.4-1-2-3-4.7-8.6-9-16.2-12.7l-1-.6-.5.2s.2 0 .3-.2l2.3.8z"/><g><path d="M169.7 2.6l4 1.7v.3c.6 0 .7 0 1 .2 3.5 1.7 6.6 3.5 9.3 5.4l.8.7 1.7 1c.4-.4.4-1 .7-1.5.2-.6.6-1.3.6-2 .8-2 1.6-3.8 2.6-5.7 0-.2.3-.4.4-.6V4c-.3.8-.2 1.5-.3 2.2v8.1c.2.4.2.8.2 1.3 0 .4.7.8 1 1.3 1-2.8 2.5-5.4 4.2-8 1-1.7 2.3-3.4 3.8-5 0 .4-.2 1-.4 1.3-3 7.5-3 15.2-.4 22.6l.7-3.2L201 19l.5-2.5c.4-2.2 1-4.3 1.3-6.4l.5-2.2c0 .2.2.3.3.5L206 18l.6 3c0 .7.3 1.4.5 2 .3.8.3 1.6.7 2.3.3-.7.8-1.4.8-2l7.2-17.8c.4.6.2 1.3.3 2v1.2c-.2.8 0 1.6 0 2.4v10.5c.2-.6.2-1.2.5-1.8L218 14c0-1 .4-2.2.6-3.2l.6.6 3 11.2c.3 1 .7 1.8.8 2.7.3-1 .5-2 .5-3v.4l.3-3.3c0-1.3 0-2.7-.3-4 0-1-.2-2.2-.4-3.3 0-1-.4-2-.7-2.8 0-.4-.3-.8-.2-1.2.7.6 1 1 1.5 1.7 1.8 2.5 3.3 5 4.6 7.4l1 2.3c1.8-1.5 4-3 6.5-4.3l.3-.2.7-3.8c.3-.8.5-1.5.4-2.2 0-.6 0-1.3.5-2l1.5 6.4 5.4-2.3.4-.3c1.3-2.6 2.8-5 4.8-7.6 0 .7-.2 1.4-.3 2-.2 1.4-.4 2.7-.4 4 .3.2-.2.4-.2.7 0 4 .6 8 2 11.8.4.8.8 1.6 1 2.4l.8-2.6L254 15l.5-1c.5.6.5 1.4.8 2.2L258 26c.6-.6 1-1.3 1.2-2 3-6 .4-12.4-7.2-18-.2 0-.3-.3-.2-.5 2 1 4 2 5.6 3 3.3 2.2 6 4.5 7.8 6.8.3.8 1 1.6 1.4 2.4.4.7.8 1.5 1 2.2.2.4.3.8.7 1.2v-2c0-.4 0-1-.2-1.4 0-.8-.2-1.5-.4-2.2-1-3.2-3-6.4-5.8-9.4l-.4-.6c1.7 1 3 2 4.5 3.2 1.8 1.5 3.4 3 4.8 4.7.6.7 1 1.4 1.7 2l1-2.7c1.3-3.4 3-6.8 5-10.2 0 .5 0 1-.2 1.5l-.3 3-.2 2v6c0 1 0 2 .3 2.8 0 .7.4 1.4.4 2 0 .7.2 1.2.3 1.8 0 .4 0 .7.2 1 .2-.2.3-.6.3-1l2-8c.8 1.7 1.3 3.5 1.8 5.2l1.8 5.7 4-24.2V0l.6.5c.2 1.7.6 3.3 1 5 1 4.8 2 9.6 2.8 14.5.6-1.6.5-3 .5-4.6 0-2 0-4-.5-6-.5-2.6-1.3-5-2.5-7.5v-.6l3.4 4c3.7 4.5 6 9.2 7.2 14 0 .7.3 1.5.4 2.2l.5 4V27c0 .6-.2 1 0 1.5l.4 14.4L0 50V40c.4-.5.4-7.4.4-8C.7 29 1.7 26 3 22.8c.2-.3 0-.6 0-1l-1.5-4.3-.3-1.2c0-.2 0-.3.3-.5.3.5 1 1 1.3 1.5.7.7 1.2 1.4 2 2L6.4 17v.7c-.3 1-.4 1.8-.4 2.7 0 .5.7 1 1 1.4.5-1.5.8-3 1.2-4.7l.5-2c.4.7.5 1.2.6 1.8L10 15l.3 1.2 3 11c.3.8 1.2 1.7 1.4 2.6.4-.6.5-1.3.6-2 .2-1-.3-2-.6-3L10.2 11v-.5l2.3 2.5 6 6.4c0 .2.2.3.4.5 1-1.8 2-3.5 3.4-5.2.2-.2 0-.5 0-.7-1-1-2-2.3-3-3.5-.4-.3-1-.7-1-1 2.4 1.3 4.4 2.8 6.3 4.3 2 1.5 3.5 3 4.8 4.8 1-2.4 2.4-4.8 4-7 1-1.7 2.3-3.3 3.8-4.8 0 .3 0 .6-.3 1-.8 1.8-1.4 3.7-1.8 5.6-.2 1-.5 2-.4 3 0-.2 0-.3-.2-.4 0 .8-.2 1.7 0 2.5-.2 1.4 0 3 0 4.4v.4c.4 2.4 1 4.8 2 7.2l2-10.8c.8-3.2 1.3-6.3 2-9.5.4.4.4.8.5 1.2L44 24c.5 1.3.7 2.6 1 4 .5-.7.7-1.5 1-2.2l.4-1v.2c0-.6.4-1.2.7-1.7.6-1 1-2 1.2-2.8l4-9.7c.3-.8.5-1.6 1-2.4v1.3l.2 12.4v2l.8-2.8L56 14c0-.3 0-.5.3-.7l3 10.7c.3 1 .5 2 1 3 0-.8.5-1.7.5-2.5v.2c0-.5 0-1 .2-1.6v-4.7c0-1.5-.3-3-.7-4.5 0-.7-.5-1.4-.4-2 .5 0 .6.3.7.6v-.2l.8 1c3 3.7 5.2 7.6 6.5 11.5 0 .6.2 1 .5 1.6.3-.8.4-1.6.3-2.4 0-.6 0-1.2-.2-1.8-.4-3.6-2.5-7.2-6-10.6 0 0 0-.2-.2-.2l.3-.3c1 .7 2 1.3 2.7 2 3 2 5.5 4.2 7.3 6.4.4.5 1 1 1 1.6 0-.5.2-1 0-1.3v-1.3c0-3 0-6-.2-9V9c.6.7.8 1.5 1.2 2.2l5.7 12.6 2 4.3c0-.4.2-.8.3-1l3-15.3c0-.4.2-1 .4-1.4.5.7.5 1.5.8 2.2 1 5 2.3 10 3.5 15 .2.7.3 1.6.7 2.3 0-.4.3-.8.5-1.3 0-1.3.3-2.7.8-4 .3-.7.2-1.4.4-2v-4.2c-.3-3.6-1.2-7-3-10.6l-.3-1c1 .7 1.5 1.5 2.3 2.3 1.5 1.7 2.8 3.5 4 5.3.6 1 1 2 1.7 3 2.4-2.4 5.7-4.6 9.5-6.8h.5v.2c-3.4 2.5-5.7 5.3-7 8-.7 1.7-1.2 3.4-.6 5l.6 3.2c.3-1.3.7-2.5 1.2-3.7.3-.8.8-1.6 1-2.4 1-2.7 2.4-5.3 4-7.8l.6-.8c.2.5 0 1 0 1.4 0 .6-.3 1.3-.2 2 0 .8-.2 1.7 0 2.5 0 1-.2 2 0 2.8.2 0 .3 0 .4-.3 2-1.6 4.8-3.2 7.8-4.7.6-.3.4-.6.5-1l1.2-6 .3.6c0 .7.3 1.4.5 2 .2 1 .3 2 .7 2.8l5-2c.5-.2 1.2-.4 1.2-.6 1-2.2 2.5-4.4 4.2-6.6.2 1-.3 1.7-.4 2.6-.5 2.7-.3 5.4-.2 8 .3 2.5.8 5 1.7 7.2l.8-3c.4-1.3.8-2.5 1-3.8 1.5 4.3 3 8.7 4 13 1-1 1.7-2.3 2-3.4 2.6-5.7.4-11.5-6-16.6l-2.5-2 1 .5c6.6 3 11.3 6.7 14 10.6.4.5.8 1 1 1.7.2-1-.2-1.8-.4-2.7-.6-2-1.6-4-3-6L139 8c2 1 3.5 2.2 4.8 3.4 2.5 2 4.7 4.4 6.2 6.6.2.4.4.8.8 1v-1.2-5c0-1-.2-1.7 0-2.5 0 .2.2.3.4.5l1 2c1.5 3.3 3 6.5 4.7 9.8.2.8.5 1.5 1 2.2.4-1.4 1-2.7 1.8-4l3-5.4c.2 0 .4-.3.6-.4v1.8c-.2.7 0 1.4-.2 2v2.8l.2 3c.3.5 0 1 .5 1.7.8-2 1.8-4 2.8-5.7l5-10c.8-1.2 1.3-2.4 2-3.7.2.3.2.6.2.8v10.8c.7-.2 1-.5 1.3-.8 1.7-1.4 3.7-2.8 6-4 0 .2-.3.4-.5.6-4.5 4.2-6.5 8.8-5.7 13.2.3.8.6 1.5.7 2.3.5-.8.5-1.5.8-2.2l2-7.4c.3-1 .4-2 .8-3l.5 1 2 6.7c.4 1.2 1 2.5 1 3.8.3-.5.4-1 .4-1.3l1-7.2.6-2.2c0-.7-.6-1.3-1-2-2.8-4.8-8-9.3-15.2-13.3-.4-.3-1-.5-1-.7h-.5.5l2.2.8z"/><path d="M468.5 16c1.4.8 2.5 1.5 4 2.2-.3 0-.2.2-.2.2.6 0 .7.2 1 .3 3.3 2 6.2 4 8.8 6.2.2 0 .5.4.8.6l1.6 1.4c.4-.5.5-1 .8-1.5.3-.6.7-1.3.8-2l3-5.5c.2 0 .4-.3.6-.5l-.3 1.8-.4 2.2c-.4 1.5-.4 3-.6 4.6V31c-.2.5.5 1 .7 1.4 1.5-2.5 3-5 5-7.5l4.4-4.7c0 .5-.4 1-.6 1.4-3.6 7.2-4.4 14.8-2.3 22.4l1-3L498 35c.5-.7.7-1.5 1-2.3l1.8-6.3.7-2.2c0 .2.2.3.3.5l1.4 10 .5 3c0 .6 0 1.3.2 2 0 .8 0 1.6.4 2.3.3-.6.8-1.3 1-2l8.7-17c.4.7.2 1.3 0 2V26c-.2.8 0 1.6-.2 2.4L513 39l.6-1.8c.6-2 1.2-3.7 2-5.6.2-1 .6-2 1-3 .2 0 .3.3.4.6l2 11.4c.3 1 .6 1.8.6 2.7.4-1 .7-2 .8-3v.5c0-1 .5-2.2.5-3.2 0-1.4.2-2.7 0-4 0-1.2 0-2.3-.2-3.4 0-1-.3-2-.5-3 0-.4-.2-.8 0-1 .4.4.7 1 1 1.6 1.7 2.6 3 5.3 4 8l1 2c1.7-1.3 4-2.5 6.7-3.7h.2l1-3.8c.5-.7.7-1.4.7-2 .2-.7 0-1.4.6-2l1 6.5L542 31l.6-.3c1.5-2.4 3.2-5 5.4-7.2 0 .7-.3 1.3-.4 2-.4 1.3-.7 2.6-.8 4 .4 0 0 .3 0 .5-.5 4-.2 8 1 12 0 .8.5 1.6.6 2.4.5-.8.7-1.6 1-2.4l2-6 .6-1.3c.4.8.3 1.6.5 2.3l2 10c.6-.5 1-1 1.2-1.7 3.5-5.8 1.5-12.5-5.5-18.5-.2-.2-.3-.4-.2-.6 2 1 3.8 2.3 5.3 3.5 3 2.4 5.5 5 7.2 7.4.3 1 1 1.7 1.2 2.6l1 2.3c0 .3 0 .8.3 1.2.2-.6.2-1.3.3-2V40c-.3-.8-.3-1.5-.4-2.2-.8-3.3-2.5-6.7-5-10-.3-.2-.4-.4-.4-.6 1.6 1.2 3 2.4 4 3.6 2 1.7 3.4 3.4 4.7 5.2.5.7.8 1.4 1.5 2 .4-.8.7-1.7 1.2-2.5 1.6-3.3 3.5-6.6 5.8-9.8 0 .5 0 1-.2 1.5l-.7 2.8c0 .7-.4 1.4-.4 2l-.5 6c0 1 0 2 .2 3v2c0 .6 0 1 .2 1.7v1.2c.4-.4.6-.8.6-1l2.7-8c.6 2 1 3.6 1.3 5.4l1.2 6 6-23.8c.2 0 .2-.2.3-.3l.4.5c0 1.6.2 3.3.4 5l1.6 14.7c.7-1.5.7-3 1-4.6 0-2 .3-4 0-6-.3-2.6-1-5-2-7.7v-.6c1.2 1.4 2.2 2.8 3 4.3 3.3 4.8 5.2 9.7 6 14.6l.2 2.2c0 1.3.2 2.7 0 4V52c0 .5-.3 1 0 1.4l-1 10.4-301.4-17 1-14.5c.5-.5.4-1 .4-1.6.6-3 2-6 3.5-9v-1l-1-4.5-.2-1.2c0-.2 0-.4.3-.5.2.5.8 1 1 1.6.8.8 1.2 1.6 2 2.4.5-.8 1-1.5 1.7-2.2v.7c-.4.8-.6 1.7-.7 2.6 0 .5.6 1 1 1.4l1.5-4.5.7-2c.4.6.4 1.2.5 1.7l.7-1.6c.3.4.2.8.3 1.2l2 11c.3 1 1 2 1.2 3 .4-.7.6-1.4.8-2 .3-1-.2-2-.4-3-1-4.7-2-9.5-3.2-14.3V10c1 1 1.4 1.8 2.2 2.7l5.3 7 .4.4c1-1.5 2.4-3 4-4.6.2-.2 0-.5 0-.7-.8-1.3-1.7-2.6-2.7-3.8l-1-1.3c2.4 1.6 4.3 3.2 6 5 1.8 1.6 3.2 3.3 4.4 5 1.3-2.2 2.8-4.4 4.6-6.6 1.3-1.4 2.6-3 4.2-4.3 0 .3-.2.6-.4 1-1 1.7-1.7 3.5-2.3 5.4-.2 1-.6 2-.7 3v-.3c0 .8-.4 1.6-.4 2.4l-.3 4.5c0 .2 0 .4.2.5 0 2.5.4 5 1 7.3l3.3-10.5 2.8-9.3c.3.4.2.8.3 1.2l2 12.7c0 1.4.2 2.7.6 4l1-2c.3-.4.5-.7.5-1v.2l.8-1.6 1.4-2.7 4.6-9.3 1.3-2.3V13l-1 12.3c0 .7-.2 1.3 0 2 0-1 .5-1.8.8-2.8l2.4-7c0-.3.2-.4.3-.6l2.2 10.8.6 3c.3-.7.7-1.6.7-2.4l.2.2c0-.5 0-1 .2-1.6.3-1.6.4-3.2.5-4.7 0-1.5-.3-3-.5-4.6 0-.7-.3-1.4-.2-2.2.5.3.6.6.8.8V16c.3.4.5.8.8 1 2.7 4 4.5 8.2 5.4 12.3 0 .5.2 1 .4 1.6.4-1 .5-1.7.5-2.5 0-.5.3-1 0-1.7 0-3.7-1.8-7.4-5-11 0-.2 0-.3-.2-.4 0 0 .3 0 .4-.2.7.7 1.7 1.4 2.5 2 2.8 2.4 5 4.8 6.7 7.2.3.5.7 1 .8 1.6 0-.4.3-.8.3-1.3v-1.2l.6-9c0-.2 0-.4.2-.6l1 2c1.4 4.5 3 8.8 4.5 13.2.6 1.5 1 3 1.7 4.5 0-.3 0-.7.2-1L384 18c.2-.6.2-1 .6-1.5l.4 2.2 2.2 15.2c.2.7.2 1.5.5 2.4l.6-1.3c.2-1.2.5-2.6 1.2-4 .4-.5.3-1.2.5-1.8l.4-4.2c0-3.5-.6-7.2-2-10.8 0-.4-.2-.7-.3-1 1 .7 1.5 1.6 2.2 2.4 1.3 2 2.5 3.8 3.5 5.7l1.5 3c2.5-2 6-4 10-5.8h.6v.2c-3.6 2.3-6 4.8-7.7 7.5-.7 1.5-1.3 3-1 4.8.3 1 .4 2.2.6 3.3l1.4-3.6c.4-.7 1-1.4 1-2.2 1.4-2.5 3-5 5-7.4l.6-.5-.2 1.3c0 .6-.3 1.2-.4 2 0 .7-.3 1.6-.3 2.5 0 1-.2 1.8 0 2.8l.4-.3c2.3-1.5 5-2.8 8.2-4 .6-.2.5-.6.6-1 .7-2 1-4 1.8-5.8l.3.5c0 .7 0 1.4.2 2 0 1 .2 2 .4 3 1.7-.6 3.4-1.2 5.2-1.6.5-.3 1.2-.4 1.3-.7 1.4-2 3-4 5-6.2 0 1-.6 2-.7 2.7-.7 2.7-.8 5.4-1 8 .2 2.5.4 5 1.2 7.3l1-3c.4-1.2 1-2.4 1.3-3.7l3 13.4c.8-1 1.6-2.2 2.2-3.3 3-5.4 1.3-11.4-4.5-17l-2.5-2.2 1 .6c6.3 3.6 10.7 7.6 13 11.7l1 1.8c0-1-.2-1.8-.3-2.7-.5-2-1.3-4-2.6-6.2-.6-1.3-1.6-2.5-2.5-3.8 1.7 1.3 3.2 2.5 4.4 3.8 2.3 2.4 4.2 4.7 5.5 7.2l.7 1 .2-1.2c0-1.7.2-3.4.3-5 0-1 0-1.7.2-2.5l.4.3c0 .7.5 1.4.7 2l4 10.3c.3.8.5 1.5 1 2.3.5-1.4 1.3-2.7 2-4 1-1.8 2.3-3.4 3.5-5l.7-.5v.8c0 .3 0 .7-.3 1l-.4 2-.2 2.8v3c0 .6 0 1.2.3 1.8l3.3-5.4 6-9.4c.8-1 1.4-2.4 2.3-3.5v.8c0 2-.3 4-.4 6-.2 1.6-.5 3-.5 4.7.6-.2 1-.4 1.2-.7 2-1.2 4-2.4 6.4-3.5 0 .2-.2.4-.5.6-4.8 3.8-7.2 8.2-6.7 12.7 0 .8.2 1.6.4 2.4.5-.7.6-1.4 1-2l2.5-7.4 1-2.6c.3.3.4.7.4 1l1.6 6.7.8 4c.2-.4.4-.8.4-1.3.5-2.3 1-4.7 1.8-7 0-.7.5-1.4.6-2.2 0-.6-.5-1.3-.7-2-2.5-5-7.2-10-14-14.6-.5-.4-1-.7-1.2-1l-.3.2.3-.2c.6.4 1.6.7 2.2 1z"/><path d="M766.6 13.8l4.2 1.5c-.2 0 0 .3 0 .3.5 0 .7 0 1 .2 3.5 1.5 6.8 3.2 9.6 5l1 .5 1.7 1.2c.4-.5.4-1 .6-1.6.2-.8.6-1.5.6-2 .7-2 1.4-4 2.3-6 0-.3.2-.5.4-.7-.2.6 0 1.2-.2 1.8v2.4c0 1.5 0 3 .2 4.6 0 1.2 0 2.4.3 3.5l.2 1.3c0 .5.7.8 1 1.3 1-2.7 2.2-5.4 4-8.2 1-1.7 2-3.5 3.6-5.2 0 .4 0 1-.3 1.4-2.6 7.7-2.4 15.4.8 22.8.3-1 .4-2 .6-3.2l1-6c.3-.8.3-1.6.4-2.5l1-6.4c0-.8.2-1.5.4-2.3l.3.4 3 9.8.8 3c0 .6.4 1.3.6 2 .2.7.3 1.5.8 2.2.3-.7.7-1.4.7-2 2-6.2 3.4 3 3.7 3.4 0 0 .3-8 1.3-4 .4 1.5 1 8 1 8v11L598 64.8l-1-10.6c.3-.6.2-1 0-1.7.3-3 1-6.3 2.3-9.6v-1c-.7-1.4-1.3-3-1.8-4.3 0-.5-.2-.8-.4-1.2 0-.2.2-.4.4-.5.3.5 1 1 1.4 1.4l2 2 1.6-2.4v.7c-.2 1-.3 2-.2 2.8 0 .5.7 1 1 1.3.5-1.6.7-3.2 1-4.8.2-.7.2-1.3.5-2 .4.5.5 1 .7 1.6 0-.5.3-1 .4-1.7.4.3.4.6.5 1l3.7 10.8c.3 1 1.2 1.8 1.5 2.7.3-.7.4-1.3.5-2 0-1-.5-2-.8-3L606 30.8c-.2-.2-.2-.3-.2-.5l2.6 2.4 6.3 6.2.4.4c1-1.8 2-3.5 3.4-5.3.2-.3 0-.6 0-.8-1-1.2-2-2.3-3.3-3.4l-1-1c2.6 1.2 4.7 2.5 6.7 4 2 1.4 3.7 3 5 4.6 1-2.5 2.3-5 3.8-7.4 1-1.7 2-3.3 3.5-5 0 .3 0 .7-.2 1-.7 2-1.2 4-1.5 5.8 0 1-.4 2-.3 3v-.3c0 .8-.3 1.7-.2 2.5 0 1.5.2 3 .4 4.4v.6c.5 2.4 1.3 4.8 2.3 7 .6-3.6 1-7.2 1.7-11l1.5-9.6c.3.4.3.8.5 1.2l3.6 12.4 1.3 4 1-2.2.2-1.2v.3c0-.7.4-1.3.6-1.8.5-1 1-2 1-3l3.5-10c.3-.7.5-1.5 1-2.4V27l1 12.6v2l.6-3c.4-2.4 1-5 1.3-7.4l.3-.6 3.6 10.7 1 3c.3-1 .6-1.8.5-2.7 0 0 0 .2.2.3-.2-.6-.2-1.2 0-1.7 0-1.7-.2-3.3-.3-5-.2-1.4-.6-3-1-4.4 0-.8-.6-1.5-.5-2.2.5 0 .6.4.8.7v-.3l.8 1c3.3 3.6 5.7 7.4 7.2 11.3 0 .6.3 1 .6 1.6.3-.7.3-1.5.2-2.3 0-.6 0-1.2-.3-1.7-.6-3.7-3-7.2-6.6-10.5-.2 0-.3 0-.4-.2l.4-.2 2.8 1.7c3 2 5.7 4 7.7 6.3.4.4 1 1 1 1.4 0-.4.3-.8 0-1.3v-1l-.7-9.2v-.6c.6.7.8 1.4 1.2 2l6.5 12.5c.8 1.4 1.4 3 2.3 4.3v-1c1-5.2 1.7-10.4 2.4-15.5 0-.5 0-1 .4-1.5.4.7.5 1.5.7 2.2l4.4 15c.3.7.4 1.5.8 2.3l.4-1.4c0-1.2 0-2.6.6-4 .3-.7 0-1.4.2-2 0-1.5 0-3-.2-4.3-.4-3.5-1.6-7-3.4-10.5l-.5-1c1 .6 1.6 1.4 2.4 2.2 1.7 1.7 3 3.4 4.4 5 .7 1 1.2 2 2 3 2.2-2.5 5.4-5 9-7.3h.8v.2c-3.3 2.8-5.5 5.7-6.7 8.6-.6 1.7-1 3.4-.3 5l1 3.2c0-1.3.5-2.5 1-3.7.2-.8.6-1.6.7-2.4.8-2.8 2-5.5 3.7-8.2 0-.3.3-.5.5-.8.2.5 0 1 0 1.4 0 .7-.2 1.3 0 2 0 .8-.2 1.7 0 2.6 0 1 0 2 .3 2.8l.4-.4c2-1.8 4.5-3.6 7.5-5.2.5-.3.3-.7.4-1 .3-2 .5-4 1-6.2l.2.6.6 2c.3 1 .5 2 1 3 1.5-1 3-1.7 4.8-2.4.5-.3 1.2-.5 1.3-.8 1-2.3 2.2-4.6 3.8-6.8.2.8-.2 1.8-.2 2.6-.4 2.8 0 5.5.2 8.3.4 2.3 1 4.7 2 7l.7-3 .8-4c1.7 4.3 3.3 8.7 4.7 13 .8-1.2 1.5-2.4 2-3.6 2-6-.4-11.7-7-16.5-1-.6-2-1.2-2.8-2l1.2.5c6.7 2.8 11.6 6.2 14.6 10 .4.5 1 1 1 1.6.2-1-.2-1.8-.5-2.6-.8-2-2-4-3.4-5.8-.8-1.2-2-2.4-3-3.5 1.8 1 3.5 2 5 3.2 2.6 2 5 4 6.5 6.2.2.4.4.8.8 1V30c0-1.7-.3-3.5-.4-5.2 0-.8-.3-1.6-.2-2.4l.5.3 1 2 5.3 9.7 1.3 2.2c.3-1.5 1-3 1.5-4.3.8-2 1.8-3.7 2.8-5.5l.6-.6V28c-.2.8 0 1.5-.2 2.2 0 1 0 1.8.2 2.8 0 1 .3 2 .4 3 .2.5 0 1 .5 1.7.7-2 1.7-4 2.5-6l4.7-10c.6-1.4 1-2.7 1.8-4 0 .2 0 .5.2.8l.3 6c.2 1.6 0 3.2.4 4.8l1-.8c1.7-1.5 3.6-3 6-4.5l-.6.7c-4.4 4.5-6 9.2-5 13.7 0 .7.5 1.5.7 2.2.5-.7.5-1.5.7-2.2.6-2.6 1-5 1.7-7.6.2-1 .3-2 .7-3l.5 1c1 2.3 1.6 4.5 2.5 6.7.4 1.2 1 2.5 1.3 3.7l.2-1.3c.2-2.5.4-5 .8-7.4 0-.8.3-1.5.3-2.2 0-.7-.6-1.4-1-2-3-4.7-8.6-9-16.2-12.7l-1-.6-.5.2s.2 0 .3-.2l2.3.8z"/></g></g><g fill="#8CC63F"><path d="M169.7 2.6l4 1.7v.3c.6 0 .7 0 1 .2 3.5 1.7 6.6 3.5 9.3 5.4l.8.7 1.7 1c.4-.4.4-1 .7-1.5.2-.6.6-1.3.6-2 .8-2 1.6-3.8 2.6-5.7 0-.2.3-.4.4-.6V4c-.3.8-.2 1.5-.3 2.2v8.1c.2.4.2.8.2 1.3 0 .4.7.8 1 1.3 1-2.8 2.5-5.4 4.2-8 1-1.7 2.3-3.4 3.8-5 0 .4-.2 1-.4 1.3-3 7.5-3 15.2-.4 22.6l.7-3.2L201 19l.5-2.5c.4-2.2 1-4.3 1.3-6.4l.5-2.2c0 .2.2.3.3.5L206 18l.6 3c0 .7.3 1.4.5 2 .3.8.3 1.6.7 2.3.3-.7.8-1.4.8-2l7.2-17.8c.4.6.2 1.3.3 2v1.2c-.2.8 0 1.6 0 2.4v10.5c.2-.6.2-1.2.5-1.8L218 14c0-1 .4-2.2.6-3.2l.6.6 3 11.2c.3 1 .7 1.8.8 2.7.3-1 .5-2 .5-3v.4l.3-3.3c0-1.3 0-2.7-.3-4 0-1-.2-2.2-.4-3.3 0-1-.4-2-.7-2.8 0-.4-.3-.8-.2-1.2.7.6 1 1 1.5 1.7 1.8 2.5 3.3 5 4.6 7.4l1 2.3c1.8-1.5 4-3 6.5-4.3l.3-.2.7-3.8c.3-.8.5-1.5.4-2.2 0-.6 0-1.3.5-2l1.5 6.4 5.4-2.3.4-.3c1.3-2.6 2.8-5 4.8-7.6 0 .7-.2 1.4-.3 2-.2 1.4-.4 2.7-.4 4 .3.2-.2.4-.2.7 0 4 .6 8 2 11.8.4.8.8 1.6 1 2.4l.8-2.6L254 15l.5-1c.5.6.5 1.4.8 2.2L258 26c.6-.6 1-1.3 1.2-2 3-6 .4-12.4-7.2-18-.2 0-.3-.3-.2-.5 2 1 4 2 5.6 3 3.3 2.2 6 4.5 7.8 6.8.3.8 1 1.6 1.4 2.4.4.7.8 1.5 1 2.2.2.4.3.8.7 1.2v-2c0-.4 0-1-.2-1.4 0-.8-.2-1.5-.4-2.2-1-3.2-3-6.4-5.8-9.4l-.4-.6c1.7 1 3 2 4.5 3.2 1.8 1.5 3.4 3 4.8 4.7.6.7 1 1.4 1.7 2l1-2.7c1.3-3.4 3-6.8 5-10.2 0 .5 0 1-.2 1.5l-.3 3-.2 2v6c0 1 0 2 .3 2.8 0 .7.4 1.4.4 2 0 .7.2 1.2.3 1.8 0 .4 0 .7.2 1 .2-.2.3-.6.3-1l2-8c.8 1.7 1.3 3.5 1.8 5.2l1.8 5.7 4-24.2V0l.6.5c.2 1.7.6 3.3 1 5 1 4.8 2 9.6 2.8 14.5.6-1.6.5-3 .5-4.6 0-2 0-4-.5-6-.5-2.6-1.3-5-2.5-7.5v-.6l3.4 4c3.7 4.5 6 9.2 7.2 14 0 .7.3 1.5.4 2.2l.5 4V27c0 .6-.2 1 0 1.5l.4 14.4L0 50V40c.4-.5.4-7.4.4-8C.7 29 1.7 26 3 22.8c.2-.3 0-.6 0-1l-1.5-4.3-.3-1.2c0-.2 0-.3.3-.5.3.5 1 1 1.3 1.5.7.7 1.2 1.4 2 2L6.4 17v.7c-.3 1-.4 1.8-.4 2.7 0 .5.7 1 1 1.4.5-1.5.8-3 1.2-4.7l.5-2c.4.7.5 1.2.6 1.8L10 15l.3 1.2 3 11c.3.8 1.2 1.7 1.4 2.6.4-.6.5-1.3.6-2 .2-1-.3-2-.6-3L10.2 11v-.5l2.3 2.5 6 6.4c0 .2.2.3.4.5 1-1.8 2-3.5 3.4-5.2.2-.2 0-.5 0-.7-1-1-2-2.3-3-3.5-.4-.3-1-.7-1-1 2.4 1.3 4.4 2.8 6.3 4.3 2 1.5 3.5 3 4.8 4.8 1-2.4 2.4-4.8 4-7 1-1.7 2.3-3.3 3.8-4.8 0 .3 0 .6-.3 1-.8 1.8-1.4 3.7-1.8 5.6-.2 1-.5 2-.4 3 0-.2 0-.3-.2-.4 0 .8-.2 1.7 0 2.5-.2 1.4 0 3 0 4.4v.4c.4 2.4 1 4.8 2 7.2l2-10.8c.8-3.2 1.3-6.3 2-9.5.4.4.4.8.5 1.2L44 24c.5 1.3.7 2.6 1 4 .5-.7.7-1.5 1-2.2l.4-1v.2c0-.6.4-1.2.7-1.7.6-1 1-2 1.2-2.8l4-9.7c.3-.8.5-1.6 1-2.4v1.3l.2 12.4v2l.8-2.8L56 14c0-.3 0-.5.3-.7l3 10.7c.3 1 .5 2 1 3 0-.8.5-1.7.5-2.5v.2c0-.5 0-1 .2-1.6v-4.7c0-1.5-.3-3-.7-4.5 0-.7-.5-1.4-.4-2 .5 0 .6.3.7.6v-.2l.8 1c3 3.7 5.2 7.6 6.5 11.5 0 .6.2 1 .5 1.6.3-.8.4-1.6.3-2.4 0-.6 0-1.2-.2-1.8-.4-3.6-2.5-7.2-6-10.6 0 0 0-.2-.2-.2l.3-.3c1 .7 2 1.3 2.7 2 3 2 5.5 4.2 7.3 6.4.4.5 1 1 1 1.6 0-.5.2-1 0-1.3v-1.3c0-3 0-6-.2-9V9c.6.7.8 1.5 1.2 2.2l5.7 12.6 2 4.3c0-.4.2-.8.3-1l3-15.3c0-.4.2-1 .4-1.4.5.7.5 1.5.8 2.2 1 5 2.3 10 3.5 15 .2.7.3 1.6.7 2.3 0-.4.3-.8.5-1.3 0-1.3.3-2.7.8-4 .3-.7.2-1.4.4-2v-4.2c-.3-3.6-1.2-7-3-10.6l-.3-1c1 .7 1.5 1.5 2.3 2.3 1.5 1.7 2.8 3.5 4 5.3.6 1 1 2 1.7 3 2.4-2.4 5.7-4.6 9.5-6.8h.5v.2c-3.4 2.5-5.7 5.3-7 8-.7 1.7-1.2 3.4-.6 5l.6 3.2c.3-1.3.7-2.5 1.2-3.7.3-.8.8-1.6 1-2.4 1-2.7 2.4-5.3 4-7.8l.6-.8c.2.5 0 1 0 1.4 0 .6-.3 1.3-.2 2 0 .8-.2 1.7 0 2.5 0 1-.2 2 0 2.8.2 0 .3 0 .4-.3 2-1.6 4.8-3.2 7.8-4.7.6-.3.4-.6.5-1l1.2-6 .3.6c0 .7.3 1.4.5 2 .2 1 .3 2 .7 2.8l5-2c.5-.2 1.2-.4 1.2-.6 1-2.2 2.5-4.4 4.2-6.6.2 1-.3 1.7-.4 2.6-.5 2.7-.3 5.4-.2 8 .3 2.5.8 5 1.7 7.2l.8-3c.4-1.3.8-2.5 1-3.8 1.5 4.3 3 8.7 4 13 1-1 1.7-2.3 2-3.4 2.6-5.7.4-11.5-6-16.6l-2.5-2 1 .5c6.6 3 11.3 6.7 14 10.6.4.5.8 1 1 1.7.2-1-.2-1.8-.4-2.7-.6-2-1.6-4-3-6L139 8c2 1 3.5 2.2 4.8 3.4 2.5 2 4.7 4.4 6.2 6.6.2.4.4.8.8 1v-1.2-5c0-1-.2-1.7 0-2.5 0 .2.2.3.4.5l1 2c1.5 3.3 3 6.5 4.7 9.8.2.8.5 1.5 1 2.2.4-1.4 1-2.7 1.8-4l3-5.4c.2 0 .4-.3.6-.4v1.8c-.2.7 0 1.4-.2 2v2.8l.2 3c.3.5 0 1 .5 1.7.8-2 1.8-4 2.8-5.7l5-10c.8-1.2 1.3-2.4 2-3.7.2.3.2.6.2.8v10.8c.7-.2 1-.5 1.3-.8 1.7-1.4 3.7-2.8 6-4 0 .2-.3.4-.5.6-4.5 4.2-6.5 8.8-5.7 13.2.3.8.6 1.5.7 2.3.5-.8.5-1.5.8-2.2l2-7.4c.3-1 .4-2 .8-3l.5 1 2 6.7c.4 1.2 1 2.5 1 3.8.3-.5.4-1 .4-1.3l1-7.2.6-2.2c0-.7-.6-1.3-1-2-2.8-4.8-8-9.3-15.2-13.3-.4-.3-1-.5-1-.7h-.5.5l2.2.8z"/><path d="M468.5 16c1.4.8 2.5 1.5 4 2.2-.3 0-.2.2-.2.2.6 0 .7.2 1 .3 3.3 2 6.2 4 8.8 6.2.2 0 .5.4.8.6l1.6 1.4c.4-.5.5-1 .8-1.5.3-.6.7-1.3.8-2l3-5.5c.2 0 .4-.3.6-.5l-.3 1.8-.4 2.2c-.4 1.5-.4 3-.6 4.6V31c-.2.5.5 1 .7 1.4 1.5-2.5 3-5 5-7.5l4.4-4.7c0 .5-.4 1-.6 1.4-3.6 7.2-4.4 14.8-2.3 22.4l1-3L498 35c.5-.7.7-1.5 1-2.3l1.8-6.3.7-2.2c0 .2.2.3.3.5l1.4 10 .5 3c0 .6 0 1.3.2 2 0 .8 0 1.6.4 2.3.3-.6.8-1.3 1-2l8.7-17c.4.7.2 1.3 0 2V26c-.2.8 0 1.6-.2 2.4L513 39l.6-1.8c.6-2 1.2-3.7 2-5.6.2-1 .6-2 1-3 .2 0 .3.3.4.6l2 11.4c.3 1 .6 1.8.6 2.7.4-1 .7-2 .8-3v.5c0-1 .5-2.2.5-3.2 0-1.4.2-2.7 0-4 0-1.2 0-2.3-.2-3.4 0-1-.3-2-.5-3 0-.4-.2-.8 0-1 .4.4.7 1 1 1.6 1.7 2.6 3 5.3 4 8l1 2c1.7-1.3 4-2.5 6.7-3.7h.2l1-3.8c.5-.7.7-1.4.7-2 .2-.7 0-1.4.6-2l1 6.5L542 31l.6-.3c1.5-2.4 3.2-5 5.4-7.2 0 .7-.3 1.3-.4 2-.4 1.3-.7 2.6-.8 4 .4 0 0 .3 0 .5-.5 4-.2 8 1 12 0 .8.5 1.6.6 2.4.5-.8.7-1.6 1-2.4l2-6 .6-1.3c.4.8.3 1.6.5 2.3l2 10c.6-.5 1-1 1.2-1.7 3.5-5.8 1.5-12.5-5.5-18.5-.2-.2-.3-.4-.2-.6 2 1 3.8 2.3 5.3 3.5 3 2.4 5.5 5 7.2 7.4.3 1 1 1.7 1.2 2.6l1 2.3c0 .3 0 .8.3 1.2.2-.6.2-1.3.3-2V40c-.3-.8-.3-1.5-.4-2.2-.8-3.3-2.5-6.7-5-10-.3-.2-.4-.4-.4-.6 1.6 1.2 3 2.4 4 3.6 2 1.7 3.4 3.4 4.7 5.2.5.7.8 1.4 1.5 2 .4-.8.7-1.7 1.2-2.5 1.6-3.3 3.5-6.6 5.8-9.8 0 .5 0 1-.2 1.5l-.7 2.8c0 .7-.4 1.4-.4 2l-.5 6c0 1 0 2 .2 3v2c0 .6 0 1 .2 1.7v1.2c.4-.4.6-.8.6-1l2.7-8c.6 2 1 3.6 1.3 5.4l1.2 6 6-23.8c.2 0 .2-.2.3-.3l.4.5c0 1.6.2 3.3.4 5l1.6 14.7c.7-1.5.7-3 1-4.6 0-2 .3-4 0-6-.3-2.6-1-5-2-7.7v-.6c1.2 1.4 2.2 2.8 3 4.3 3.3 4.8 5.2 9.7 6 14.6l.2 2.2c0 1.3.2 2.7 0 4V52c0 .5-.3 1 0 1.4l-1 10.4-301.4-17 1-14.5c.5-.5.4-1 .4-1.6.6-3 2-6 3.5-9v-1l-1-4.5-.2-1.2c0-.2 0-.4.3-.5.2.5.8 1 1 1.6.8.8 1.2 1.6 2 2.4.5-.8 1-1.5 1.7-2.2v.7c-.4.8-.6 1.7-.7 2.6 0 .5.6 1 1 1.4l1.5-4.5.7-2c.4.6.4 1.2.5 1.7l.7-1.6c.3.4.2.8.3 1.2l2 11c.3 1 1 2 1.2 3 .4-.7.6-1.4.8-2 .3-1-.2-2-.4-3-1-4.7-2-9.5-3.2-14.3V10c1 1 1.4 1.8 2.2 2.7l5.3 7 .4.4c1-1.5 2.4-3 4-4.6.2-.2 0-.5 0-.7-.8-1.3-1.7-2.6-2.7-3.8l-1-1.3c2.4 1.6 4.3 3.2 6 5 1.8 1.6 3.2 3.3 4.4 5 1.3-2.2 2.8-4.4 4.6-6.6 1.3-1.4 2.6-3 4.2-4.3 0 .3-.2.6-.4 1-1 1.7-1.7 3.5-2.3 5.4-.2 1-.6 2-.7 3v-.3c0 .8-.4 1.6-.4 2.4l-.3 4.5c0 .2 0 .4.2.5 0 2.5.4 5 1 7.3l3.3-10.5 2.8-9.3c.3.4.2.8.3 1.2l2 12.7c0 1.4.2 2.7.6 4l1-2c.3-.4.5-.7.5-1v.2l.8-1.6 1.4-2.7 4.6-9.3 1.3-2.3V13l-1 12.3c0 .7-.2 1.3 0 2 0-1 .5-1.8.8-2.8l2.4-7c0-.3.2-.4.3-.6l2.2 10.8.6 3c.3-.7.7-1.6.7-2.4l.2.2c0-.5 0-1 .2-1.6.3-1.6.4-3.2.5-4.7 0-1.5-.3-3-.5-4.6 0-.7-.3-1.4-.2-2.2.5.3.6.6.8.8V16c.3.4.5.8.8 1 2.7 4 4.5 8.2 5.4 12.3 0 .5.2 1 .4 1.6.4-1 .5-1.7.5-2.5 0-.5.3-1 0-1.7 0-3.7-1.8-7.4-5-11 0-.2 0-.3-.2-.4 0 0 .3 0 .4-.2.7.7 1.7 1.4 2.5 2 2.8 2.4 5 4.8 6.7 7.2.3.5.7 1 .8 1.6 0-.4.3-.8.3-1.3v-1.2l.6-9c0-.2 0-.4.2-.6l1 2c1.4 4.5 3 8.8 4.5 13.2.6 1.5 1 3 1.7 4.5 0-.3 0-.7.2-1L384 18c.2-.6.2-1 .6-1.5l.4 2.2 2.2 15.2c.2.7.2 1.5.5 2.4l.6-1.3c.2-1.2.5-2.6 1.2-4 .4-.5.3-1.2.5-1.8l.4-4.2c0-3.5-.6-7.2-2-10.8 0-.4-.2-.7-.3-1 1 .7 1.5 1.6 2.2 2.4 1.3 2 2.5 3.8 3.5 5.7l1.5 3c2.5-2 6-4 10-5.8h.6v.2c-3.6 2.3-6 4.8-7.7 7.5-.7 1.5-1.3 3-1 4.8.3 1 .4 2.2.6 3.3l1.4-3.6c.4-.7 1-1.4 1-2.2 1.4-2.5 3-5 5-7.4l.6-.5-.2 1.3c0 .6-.3 1.2-.4 2 0 .7-.3 1.6-.3 2.5 0 1-.2 1.8 0 2.8l.4-.3c2.3-1.5 5-2.8 8.2-4 .6-.2.5-.6.6-1 .7-2 1-4 1.8-5.8l.3.5c0 .7 0 1.4.2 2 0 1 .2 2 .4 3 1.7-.6 3.4-1.2 5.2-1.6.5-.3 1.2-.4 1.3-.7 1.4-2 3-4 5-6.2 0 1-.6 2-.7 2.7-.7 2.7-.8 5.4-1 8 .2 2.5.4 5 1.2 7.3l1-3c.4-1.2 1-2.4 1.3-3.7l3 13.4c.8-1 1.6-2.2 2.2-3.3 3-5.4 1.3-11.4-4.5-17l-2.5-2.2 1 .6c6.3 3.6 10.7 7.6 13 11.7l1 1.8c0-1-.2-1.8-.3-2.7-.5-2-1.3-4-2.6-6.2-.6-1.3-1.6-2.5-2.5-3.8 1.7 1.3 3.2 2.5 4.4 3.8 2.3 2.4 4.2 4.7 5.5 7.2l.7 1 .2-1.2c0-1.7.2-3.4.3-5 0-1 0-1.7.2-2.5l.4.3c0 .7.5 1.4.7 2l4 10.3c.3.8.5 1.5 1 2.3.5-1.4 1.3-2.7 2-4 1-1.8 2.3-3.4 3.5-5l.7-.5v.8c0 .3 0 .7-.3 1l-.4 2-.2 2.8v3c0 .6 0 1.2.3 1.8l3.3-5.4 6-9.4c.8-1 1.4-2.4 2.3-3.5v.8c0 2-.3 4-.4 6-.2 1.6-.5 3-.5 4.7.6-.2 1-.4 1.2-.7 2-1.2 4-2.4 6.4-3.5 0 .2-.2.4-.5.6-4.8 3.8-7.2 8.2-6.7 12.7 0 .8.2 1.6.4 2.4.5-.7.6-1.4 1-2l2.5-7.4 1-2.6c.3.3.4.7.4 1l1.6 6.7.8 4c.2-.4.4-.8.4-1.3.5-2.3 1-4.7 1.8-7 0-.7.5-1.4.6-2.2 0-.6-.5-1.3-.7-2-2.5-5-7.2-10-14-14.6-.5-.4-1-.7-1.2-1l-.3.2.3-.2c.6.4 1.6.7 2.2 1z"/><path d="M766.6 13.8l4.2 1.5c-.2 0 0 .3 0 .3.5 0 .7 0 1 .2 3.5 1.5 6.8 3.2 9.6 5l1 .5 1.7 1.2c.4-.5.4-1 .6-1.6.2-.8.6-1.5.6-2 .7-2 1.4-4 2.3-6 0-.3.2-.5.4-.7-.2.6 0 1.2-.2 1.8v2.4c0 1.5 0 3 .2 4.6 0 1.2 0 2.4.3 3.5l.2 1.3c0 .5.7.8 1 1.3 1-2.7 2.2-5.4 4-8.2 1-1.7 2-3.5 3.6-5.2 0 .4 0 1-.3 1.4-2.6 7.7-2.4 15.4.8 22.8.3-1 .4-2 .6-3.2l1-6c.3-.8.3-1.6.4-2.5l1-6.4c0-.8.2-1.5.4-2.3l.3.4 3 9.8.8 3c0 .6.4 1.3.6 2 .2.7.3 1.5.8 2.2.3-.7.7-1.4.7-2 2-6.2 3.4 3 3.7 3.4 0 0 .3-8 1.3-4 .4 1.5 1 8 1 8v11L598 64.8l-1-10.6c.3-.6.2-1 0-1.7.3-3 1-6.3 2.3-9.6v-1c-.7-1.4-1.3-3-1.8-4.3 0-.5-.2-.8-.4-1.2 0-.2.2-.4.4-.5.3.5 1 1 1.4 1.4l2 2 1.6-2.4v.7c-.2 1-.3 2-.2 2.8 0 .5.7 1 1 1.3.5-1.6.7-3.2 1-4.8.2-.7.2-1.3.5-2 .4.5.5 1 .7 1.6 0-.5.3-1 .4-1.7.4.3.4.6.5 1l3.7 10.8c.3 1 1.2 1.8 1.5 2.7.3-.7.4-1.3.5-2 0-1-.5-2-.8-3L606 30.8c-.2-.2-.2-.3-.2-.5l2.6 2.4 6.3 6.2.4.4c1-1.8 2-3.5 3.4-5.3.2-.3 0-.6 0-.8-1-1.2-2-2.3-3.3-3.4l-1-1c2.6 1.2 4.7 2.5 6.7 4 2 1.4 3.7 3 5 4.6 1-2.5 2.3-5 3.8-7.4 1-1.7 2-3.3 3.5-5 0 .3 0 .7-.2 1-.7 2-1.2 4-1.5 5.8 0 1-.4 2-.3 3v-.3c0 .8-.3 1.7-.2 2.5 0 1.5.2 3 .4 4.4v.6c.5 2.4 1.3 4.8 2.3 7 .6-3.6 1-7.2 1.7-11l1.5-9.6c.3.4.3.8.5 1.2l3.6 12.4 1.3 4 1-2.2.2-1.2v.3c0-.7.4-1.3.6-1.8.5-1 1-2 1-3l3.5-10c.3-.7.5-1.5 1-2.4V27l1 12.6v2l.6-3c.4-2.4 1-5 1.3-7.4l.3-.6 3.6 10.7 1 3c.3-1 .6-1.8.5-2.7 0 0 0 .2.2.3-.2-.6-.2-1.2 0-1.7 0-1.7-.2-3.3-.3-5-.2-1.4-.6-3-1-4.4 0-.8-.6-1.5-.5-2.2.5 0 .6.4.8.7v-.3l.8 1c3.3 3.6 5.7 7.4 7.2 11.3 0 .6.3 1 .6 1.6.3-.7.3-1.5.2-2.3 0-.6 0-1.2-.3-1.7-.6-3.7-3-7.2-6.6-10.5-.2 0-.3 0-.4-.2l.4-.2 2.8 1.7c3 2 5.7 4 7.7 6.3.4.4 1 1 1 1.4 0-.4.3-.8 0-1.3v-1l-.7-9.2v-.6c.6.7.8 1.4 1.2 2l6.5 12.5c.8 1.4 1.4 3 2.3 4.3v-1c1-5.2 1.7-10.4 2.4-15.5 0-.5 0-1 .4-1.5.4.7.5 1.5.7 2.2l4.4 15c.3.7.4 1.5.8 2.3l.4-1.4c0-1.2 0-2.6.6-4 .3-.7 0-1.4.2-2 0-1.5 0-3-.2-4.3-.4-3.5-1.6-7-3.4-10.5l-.5-1c1 .6 1.6 1.4 2.4 2.2 1.7 1.7 3 3.4 4.4 5 .7 1 1.2 2 2 3 2.2-2.5 5.4-5 9-7.3h.8v.2c-3.3 2.8-5.5 5.7-6.7 8.6-.6 1.7-1 3.4-.3 5l1 3.2c0-1.3.5-2.5 1-3.7.2-.8.6-1.6.7-2.4.8-2.8 2-5.5 3.7-8.2 0-.3.3-.5.5-.8.2.5 0 1 0 1.4 0 .7-.2 1.3 0 2 0 .8-.2 1.7 0 2.6 0 1 0 2 .3 2.8l.4-.4c2-1.8 4.5-3.6 7.5-5.2.5-.3.3-.7.4-1 .3-2 .5-4 1-6.2l.2.6.6 2c.3 1 .5 2 1 3 1.5-1 3-1.7 4.8-2.4.5-.3 1.2-.5 1.3-.8 1-2.3 2.2-4.6 3.8-6.8.2.8-.2 1.8-.2 2.6-.4 2.8 0 5.5.2 8.3.4 2.3 1 4.7 2 7l.7-3 .8-4c1.7 4.3 3.3 8.7 4.7 13 .8-1.2 1.5-2.4 2-3.6 2-6-.4-11.7-7-16.5-1-.6-2-1.2-2.8-2l1.2.5c6.7 2.8 11.6 6.2 14.6 10 .4.5 1 1 1 1.6.2-1-.2-1.8-.5-2.6-.8-2-2-4-3.4-5.8-.8-1.2-2-2.4-3-3.5 1.8 1 3.5 2 5 3.2 2.6 2 5 4 6.5 6.2.2.4.4.8.8 1V30c0-1.7-.3-3.5-.4-5.2 0-.8-.3-1.6-.2-2.4l.5.3 1 2 5.3 9.7 1.3 2.2c.3-1.5 1-3 1.5-4.3.8-2 1.8-3.7 2.8-5.5l.6-.6V28c-.2.8 0 1.5-.2 2.2 0 1 0 1.8.2 2.8 0 1 .3 2 .4 3 .2.5 0 1 .5 1.7.7-2 1.7-4 2.5-6l4.7-10c.6-1.4 1-2.7 1.8-4 0 .2 0 .5.2.8l.3 6c.2 1.6 0 3.2.4 4.8l1-.8c1.7-1.5 3.6-3 6-4.5l-.6.7c-4.4 4.5-6 9.2-5 13.7 0 .7.5 1.5.7 2.2.5-.7.5-1.5.7-2.2.6-2.6 1-5 1.7-7.6.2-1 .3-2 .7-3l.5 1c1 2.3 1.6 4.5 2.5 6.7.4 1.2 1 2.5 1.3 3.7l.2-1.3c.2-2.5.4-5 .8-7.4 0-.8.3-1.5.3-2.2 0-.7-.6-1.4-1-2-3-4.7-8.6-9-16.2-12.7l-1-.6-.5.2s.2 0 .3-.2l2.3.8z"/><g><path d="M169.7 2.6l4 1.7v.3c.6 0 .7 0 1 .2 3.5 1.7 6.6 3.5 9.3 5.4l.8.7 1.7 1c.4-.4.4-1 .7-1.5.2-.6.6-1.3.6-2 .8-2 1.6-3.8 2.6-5.7 0-.2.3-.4.4-.6V4c-.3.8-.2 1.5-.3 2.2v8.1c.2.4.2.8.2 1.3 0 .4.7.8 1 1.3 1-2.8 2.5-5.4 4.2-8 1-1.7 2.3-3.4 3.8-5 0 .4-.2 1-.4 1.3-3 7.5-3 15.2-.4 22.6l.7-3.2L201 19l.5-2.5c.4-2.2 1-4.3 1.3-6.4l.5-2.2c0 .2.2.3.3.5L206 18l.6 3c0 .7.3 1.4.5 2 .3.8.3 1.6.7 2.3.3-.7.8-1.4.8-2l7.2-17.8c.4.6.2 1.3.3 2v1.2c-.2.8 0 1.6 0 2.4v10.5c.2-.6.2-1.2.5-1.8L218 14c0-1 .4-2.2.6-3.2l.6.6 3 11.2c.3 1 .7 1.8.8 2.7.3-1 .5-2 .5-3v.4l.3-3.3c0-1.3 0-2.7-.3-4 0-1-.2-2.2-.4-3.3 0-1-.4-2-.7-2.8 0-.4-.3-.8-.2-1.2.7.6 1 1 1.5 1.7 1.8 2.5 3.3 5 4.6 7.4l1 2.3c1.8-1.5 4-3 6.5-4.3l.3-.2.7-3.8c.3-.8.5-1.5.4-2.2 0-.6 0-1.3.5-2l1.5 6.4 5.4-2.3.4-.3c1.3-2.6 2.8-5 4.8-7.6 0 .7-.2 1.4-.3 2-.2 1.4-.4 2.7-.4 4 .3.2-.2.4-.2.7 0 4 .6 8 2 11.8.4.8.8 1.6 1 2.4l.8-2.6L254 15l.5-1c.5.6.5 1.4.8 2.2L258 26c.6-.6 1-1.3 1.2-2 3-6 .4-12.4-7.2-18-.2 0-.3-.3-.2-.5 2 1 4 2 5.6 3 3.3 2.2 6 4.5 7.8 6.8.3.8 1 1.6 1.4 2.4.4.7.8 1.5 1 2.2.2.4.3.8.7 1.2v-2c0-.4 0-1-.2-1.4 0-.8-.2-1.5-.4-2.2-1-3.2-3-6.4-5.8-9.4l-.4-.6c1.7 1 3 2 4.5 3.2 1.8 1.5 3.4 3 4.8 4.7.6.7 1 1.4 1.7 2l1-2.7c1.3-3.4 3-6.8 5-10.2 0 .5 0 1-.2 1.5l-.3 3-.2 2v6c0 1 0 2 .3 2.8 0 .7.4 1.4.4 2 0 .7.2 1.2.3 1.8 0 .4 0 .7.2 1 .2-.2.3-.6.3-1l2-8c.8 1.7 1.3 3.5 1.8 5.2l1.8 5.7 4-24.2V0l.6.5c.2 1.7.6 3.3 1 5 1 4.8 2 9.6 2.8 14.5.6-1.6.5-3 .5-4.6 0-2 0-4-.5-6-.5-2.6-1.3-5-2.5-7.5v-.6l3.4 4c3.7 4.5 6 9.2 7.2 14 0 .7.3 1.5.4 2.2l.5 4V27c0 .6-.2 1 0 1.5l.4 14.4L0 50V40c.4-.5.4-7.4.4-8C.7 29 1.7 26 3 22.8c.2-.3 0-.6 0-1l-1.5-4.3-.3-1.2c0-.2 0-.3.3-.5.3.5 1 1 1.3 1.5.7.7 1.2 1.4 2 2L6.4 17v.7c-.3 1-.4 1.8-.4 2.7 0 .5.7 1 1 1.4.5-1.5.8-3 1.2-4.7l.5-2c.4.7.5 1.2.6 1.8L10 15l.3 1.2 3 11c.3.8 1.2 1.7 1.4 2.6.4-.6.5-1.3.6-2 .2-1-.3-2-.6-3L10.2 11v-.5l2.3 2.5 6 6.4c0 .2.2.3.4.5 1-1.8 2-3.5 3.4-5.2.2-.2 0-.5 0-.7-1-1-2-2.3-3-3.5-.4-.3-1-.7-1-1 2.4 1.3 4.4 2.8 6.3 4.3 2 1.5 3.5 3 4.8 4.8 1-2.4 2.4-4.8 4-7 1-1.7 2.3-3.3 3.8-4.8 0 .3 0 .6-.3 1-.8 1.8-1.4 3.7-1.8 5.6-.2 1-.5 2-.4 3 0-.2 0-.3-.2-.4 0 .8-.2 1.7 0 2.5-.2 1.4 0 3 0 4.4v.4c.4 2.4 1 4.8 2 7.2l2-10.8c.8-3.2 1.3-6.3 2-9.5.4.4.4.8.5 1.2L44 24c.5 1.3.7 2.6 1 4 .5-.7.7-1.5 1-2.2l.4-1v.2c0-.6.4-1.2.7-1.7.6-1 1-2 1.2-2.8l4-9.7c.3-.8.5-1.6 1-2.4v1.3l.2 12.4v2l.8-2.8L56 14c0-.3 0-.5.3-.7l3 10.7c.3 1 .5 2 1 3 0-.8.5-1.7.5-2.5v.2c0-.5 0-1 .2-1.6v-4.7c0-1.5-.3-3-.7-4.5 0-.7-.5-1.4-.4-2 .5 0 .6.3.7.6v-.2l.8 1c3 3.7 5.2 7.6 6.5 11.5 0 .6.2 1 .5 1.6.3-.8.4-1.6.3-2.4 0-.6 0-1.2-.2-1.8-.4-3.6-2.5-7.2-6-10.6 0 0 0-.2-.2-.2l.3-.3c1 .7 2 1.3 2.7 2 3 2 5.5 4.2 7.3 6.4.4.5 1 1 1 1.6 0-.5.2-1 0-1.3v-1.3c0-3 0-6-.2-9V9c.6.7.8 1.5 1.2 2.2l5.7 12.6 2 4.3c0-.4.2-.8.3-1l3-15.3c0-.4.2-1 .4-1.4.5.7.5 1.5.8 2.2 1 5 2.3 10 3.5 15 .2.7.3 1.6.7 2.3 0-.4.3-.8.5-1.3 0-1.3.3-2.7.8-4 .3-.7.2-1.4.4-2v-4.2c-.3-3.6-1.2-7-3-10.6l-.3-1c1 .7 1.5 1.5 2.3 2.3 1.5 1.7 2.8 3.5 4 5.3.6 1 1 2 1.7 3 2.4-2.4 5.7-4.6 9.5-6.8h.5v.2c-3.4 2.5-5.7 5.3-7 8-.7 1.7-1.2 3.4-.6 5l.6 3.2c.3-1.3.7-2.5 1.2-3.7.3-.8.8-1.6 1-2.4 1-2.7 2.4-5.3 4-7.8l.6-.8c.2.5 0 1 0 1.4 0 .6-.3 1.3-.2 2 0 .8-.2 1.7 0 2.5 0 1-.2 2 0 2.8.2 0 .3 0 .4-.3 2-1.6 4.8-3.2 7.8-4.7.6-.3.4-.6.5-1l1.2-6 .3.6c0 .7.3 1.4.5 2 .2 1 .3 2 .7 2.8l5-2c.5-.2 1.2-.4 1.2-.6 1-2.2 2.5-4.4 4.2-6.6.2 1-.3 1.7-.4 2.6-.5 2.7-.3 5.4-.2 8 .3 2.5.8 5 1.7 7.2l.8-3c.4-1.3.8-2.5 1-3.8 1.5 4.3 3 8.7 4 13 1-1 1.7-2.3 2-3.4 2.6-5.7.4-11.5-6-16.6l-2.5-2 1 .5c6.6 3 11.3 6.7 14 10.6.4.5.8 1 1 1.7.2-1-.2-1.8-.4-2.7-.6-2-1.6-4-3-6L139 8c2 1 3.5 2.2 4.8 3.4 2.5 2 4.7 4.4 6.2 6.6.2.4.4.8.8 1v-1.2-5c0-1-.2-1.7 0-2.5 0 .2.2.3.4.5l1 2c1.5 3.3 3 6.5 4.7 9.8.2.8.5 1.5 1 2.2.4-1.4 1-2.7 1.8-4l3-5.4c.2 0 .4-.3.6-.4v1.8c-.2.7 0 1.4-.2 2v2.8l.2 3c.3.5 0 1 .5 1.7.8-2 1.8-4 2.8-5.7l5-10c.8-1.2 1.3-2.4 2-3.7.2.3.2.6.2.8v10.8c.7-.2 1-.5 1.3-.8 1.7-1.4 3.7-2.8 6-4 0 .2-.3.4-.5.6-4.5 4.2-6.5 8.8-5.7 13.2.3.8.6 1.5.7 2.3.5-.8.5-1.5.8-2.2l2-7.4c.3-1 .4-2 .8-3l.5 1 2 6.7c.4 1.2 1 2.5 1 3.8.3-.5.4-1 .4-1.3l1-7.2.6-2.2c0-.7-.6-1.3-1-2-2.8-4.8-8-9.3-15.2-13.3-.4-.3-1-.5-1-.7h-.5.5l2.2.8z"/><path d="M468.5 16c1.4.8 2.5 1.5 4 2.2-.3 0-.2.2-.2.2.6 0 .7.2 1 .3 3.3 2 6.2 4 8.8 6.2.2 0 .5.4.8.6l1.6 1.4c.4-.5.5-1 .8-1.5.3-.6.7-1.3.8-2l3-5.5c.2 0 .4-.3.6-.5l-.3 1.8-.4 2.2c-.4 1.5-.4 3-.6 4.6V31c-.2.5.5 1 .7 1.4 1.5-2.5 3-5 5-7.5l4.4-4.7c0 .5-.4 1-.6 1.4-3.6 7.2-4.4 14.8-2.3 22.4l1-3L498 35c.5-.7.7-1.5 1-2.3l1.8-6.3.7-2.2c0 .2.2.3.3.5l1.4 10 .5 3c0 .6 0 1.3.2 2 0 .8 0 1.6.4 2.3.3-.6.8-1.3 1-2l8.7-17c.4.7.2 1.3 0 2V26c-.2.8 0 1.6-.2 2.4L513 39l.6-1.8c.6-2 1.2-3.7 2-5.6.2-1 .6-2 1-3 .2 0 .3.3.4.6l2 11.4c.3 1 .6 1.8.6 2.7.4-1 .7-2 .8-3v.5c0-1 .5-2.2.5-3.2 0-1.4.2-2.7 0-4 0-1.2 0-2.3-.2-3.4 0-1-.3-2-.5-3 0-.4-.2-.8 0-1 .4.4.7 1 1 1.6 1.7 2.6 3 5.3 4 8l1 2c1.7-1.3 4-2.5 6.7-3.7h.2l1-3.8c.5-.7.7-1.4.7-2 .2-.7 0-1.4.6-2l1 6.5L542 31l.6-.3c1.5-2.4 3.2-5 5.4-7.2 0 .7-.3 1.3-.4 2-.4 1.3-.7 2.6-.8 4 .4 0 0 .3 0 .5-.5 4-.2 8 1 12 0 .8.5 1.6.6 2.4.5-.8.7-1.6 1-2.4l2-6 .6-1.3c.4.8.3 1.6.5 2.3l2 10c.6-.5 1-1 1.2-1.7 3.5-5.8 1.5-12.5-5.5-18.5-.2-.2-.3-.4-.2-.6 2 1 3.8 2.3 5.3 3.5 3 2.4 5.5 5 7.2 7.4.3 1 1 1.7 1.2 2.6l1 2.3c0 .3 0 .8.3 1.2.2-.6.2-1.3.3-2V40c-.3-.8-.3-1.5-.4-2.2-.8-3.3-2.5-6.7-5-10-.3-.2-.4-.4-.4-.6 1.6 1.2 3 2.4 4 3.6 2 1.7 3.4 3.4 4.7 5.2.5.7.8 1.4 1.5 2 .4-.8.7-1.7 1.2-2.5 1.6-3.3 3.5-6.6 5.8-9.8 0 .5 0 1-.2 1.5l-.7 2.8c0 .7-.4 1.4-.4 2l-.5 6c0 1 0 2 .2 3v2c0 .6 0 1 .2 1.7v1.2c.4-.4.6-.8.6-1l2.7-8c.6 2 1 3.6 1.3 5.4l1.2 6 6-23.8c.2 0 .2-.2.3-.3l.4.5c0 1.6.2 3.3.4 5l1.6 14.7c.7-1.5.7-3 1-4.6 0-2 .3-4 0-6-.3-2.6-1-5-2-7.7v-.6c1.2 1.4 2.2 2.8 3 4.3 3.3 4.8 5.2 9.7 6 14.6l.2 2.2c0 1.3.2 2.7 0 4V52c0 .5-.3 1 0 1.4l-1 10.4-301.4-17 1-14.5c.5-.5.4-1 .4-1.6.6-3 2-6 3.5-9v-1l-1-4.5-.2-1.2c0-.2 0-.4.3-.5.2.5.8 1 1 1.6.8.8 1.2 1.6 2 2.4.5-.8 1-1.5 1.7-2.2v.7c-.4.8-.6 1.7-.7 2.6 0 .5.6 1 1 1.4l1.5-4.5.7-2c.4.6.4 1.2.5 1.7l.7-1.6c.3.4.2.8.3 1.2l2 11c.3 1 1 2 1.2 3 .4-.7.6-1.4.8-2 .3-1-.2-2-.4-3-1-4.7-2-9.5-3.2-14.3V10c1 1 1.4 1.8 2.2 2.7l5.3 7 .4.4c1-1.5 2.4-3 4-4.6.2-.2 0-.5 0-.7-.8-1.3-1.7-2.6-2.7-3.8l-1-1.3c2.4 1.6 4.3 3.2 6 5 1.8 1.6 3.2 3.3 4.4 5 1.3-2.2 2.8-4.4 4.6-6.6 1.3-1.4 2.6-3 4.2-4.3 0 .3-.2.6-.4 1-1 1.7-1.7 3.5-2.3 5.4-.2 1-.6 2-.7 3v-.3c0 .8-.4 1.6-.4 2.4l-.3 4.5c0 .2 0 .4.2.5 0 2.5.4 5 1 7.3l3.3-10.5 2.8-9.3c.3.4.2.8.3 1.2l2 12.7c0 1.4.2 2.7.6 4l1-2c.3-.4.5-.7.5-1v.2l.8-1.6 1.4-2.7 4.6-9.3 1.3-2.3V13l-1 12.3c0 .7-.2 1.3 0 2 0-1 .5-1.8.8-2.8l2.4-7c0-.3.2-.4.3-.6l2.2 10.8.6 3c.3-.7.7-1.6.7-2.4l.2.2c0-.5 0-1 .2-1.6.3-1.6.4-3.2.5-4.7 0-1.5-.3-3-.5-4.6 0-.7-.3-1.4-.2-2.2.5.3.6.6.8.8V16c.3.4.5.8.8 1 2.7 4 4.5 8.2 5.4 12.3 0 .5.2 1 .4 1.6.4-1 .5-1.7.5-2.5 0-.5.3-1 0-1.7 0-3.7-1.8-7.4-5-11 0-.2 0-.3-.2-.4 0 0 .3 0 .4-.2.7.7 1.7 1.4 2.5 2 2.8 2.4 5 4.8 6.7 7.2.3.5.7 1 .8 1.6 0-.4.3-.8.3-1.3v-1.2l.6-9c0-.2 0-.4.2-.6l1 2c1.4 4.5 3 8.8 4.5 13.2.6 1.5 1 3 1.7 4.5 0-.3 0-.7.2-1L384 18c.2-.6.2-1 .6-1.5l.4 2.2 2.2 15.2c.2.7.2 1.5.5 2.4l.6-1.3c.2-1.2.5-2.6 1.2-4 .4-.5.3-1.2.5-1.8l.4-4.2c0-3.5-.6-7.2-2-10.8 0-.4-.2-.7-.3-1 1 .7 1.5 1.6 2.2 2.4 1.3 2 2.5 3.8 3.5 5.7l1.5 3c2.5-2 6-4 10-5.8h.6v.2c-3.6 2.3-6 4.8-7.7 7.5-.7 1.5-1.3 3-1 4.8.3 1 .4 2.2.6 3.3l1.4-3.6c.4-.7 1-1.4 1-2.2 1.4-2.5 3-5 5-7.4l.6-.5-.2 1.3c0 .6-.3 1.2-.4 2 0 .7-.3 1.6-.3 2.5 0 1-.2 1.8 0 2.8l.4-.3c2.3-1.5 5-2.8 8.2-4 .6-.2.5-.6.6-1 .7-2 1-4 1.8-5.8l.3.5c0 .7 0 1.4.2 2 0 1 .2 2 .4 3 1.7-.6 3.4-1.2 5.2-1.6.5-.3 1.2-.4 1.3-.7 1.4-2 3-4 5-6.2 0 1-.6 2-.7 2.7-.7 2.7-.8 5.4-1 8 .2 2.5.4 5 1.2 7.3l1-3c.4-1.2 1-2.4 1.3-3.7l3 13.4c.8-1 1.6-2.2 2.2-3.3 3-5.4 1.3-11.4-4.5-17l-2.5-2.2 1 .6c6.3 3.6 10.7 7.6 13 11.7l1 1.8c0-1-.2-1.8-.3-2.7-.5-2-1.3-4-2.6-6.2-.6-1.3-1.6-2.5-2.5-3.8 1.7 1.3 3.2 2.5 4.4 3.8 2.3 2.4 4.2 4.7 5.5 7.2l.7 1 .2-1.2c0-1.7.2-3.4.3-5 0-1 0-1.7.2-2.5l.4.3c0 .7.5 1.4.7 2l4 10.3c.3.8.5 1.5 1 2.3.5-1.4 1.3-2.7 2-4 1-1.8 2.3-3.4 3.5-5l.7-.5v.8c0 .3 0 .7-.3 1l-.4 2-.2 2.8v3c0 .6 0 1.2.3 1.8l3.3-5.4 6-9.4c.8-1 1.4-2.4 2.3-3.5v.8c0 2-.3 4-.4 6-.2 1.6-.5 3-.5 4.7.6-.2 1-.4 1.2-.7 2-1.2 4-2.4 6.4-3.5 0 .2-.2.4-.5.6-4.8 3.8-7.2 8.2-6.7 12.7 0 .8.2 1.6.4 2.4.5-.7.6-1.4 1-2l2.5-7.4 1-2.6c.3.3.4.7.4 1l1.6 6.7.8 4c.2-.4.4-.8.4-1.3.5-2.3 1-4.7 1.8-7 0-.7.5-1.4.6-2.2 0-.6-.5-1.3-.7-2-2.5-5-7.2-10-14-14.6-.5-.4-1-.7-1.2-1l-.3.2.3-.2c.6.4 1.6.7 2.2 1z"/><path d="M766.6 13.8l4.2 1.5c-.2 0 0 .3 0 .3.5 0 .7 0 1 .2 3.5 1.5 6.8 3.2 9.6 5l1 .5 1.7 1.2c.4-.5.4-1 .6-1.6.2-.8.6-1.5.6-2 .7-2 1.4-4 2.3-6 0-.3.2-.5.4-.7-.2.6 0 1.2-.2 1.8v2.4c0 1.5 0 3 .2 4.6 0 1.2 0 2.4.3 3.5l.2 1.3c0 .5.7.8 1 1.3 1-2.7 2.2-5.4 4-8.2 1-1.7 2-3.5 3.6-5.2 0 .4 0 1-.3 1.4-2.6 7.7-2.4 15.4.8 22.8.3-1 .4-2 .6-3.2l1-6c.3-.8.3-1.6.4-2.5l1-6.4c0-.8.2-1.5.4-2.3l.3.4 3 9.8.8 3c0 .6.4 1.3.6 2 .2.7.3 1.5.8 2.2.3-.7.7-1.4.7-2 2-6.2 3.4 3 3.7 3.4 0 0 .3-8 1.3-4 .4 1.5 1 8 1 8v11L598 64.8l-1-10.6c.3-.6.2-1 0-1.7.3-3 1-6.3 2.3-9.6v-1c-.7-1.4-1.3-3-1.8-4.3 0-.5-.2-.8-.4-1.2 0-.2.2-.4.4-.5.3.5 1 1 1.4 1.4l2 2 1.6-2.4v.7c-.2 1-.3 2-.2 2.8 0 .5.7 1 1 1.3.5-1.6.7-3.2 1-4.8.2-.7.2-1.3.5-2 .4.5.5 1 .7 1.6 0-.5.3-1 .4-1.7.4.3.4.6.5 1l3.7 10.8c.3 1 1.2 1.8 1.5 2.7.3-.7.4-1.3.5-2 0-1-.5-2-.8-3L606 30.8c-.2-.2-.2-.3-.2-.5l2.6 2.4 6.3 6.2.4.4c1-1.8 2-3.5 3.4-5.3.2-.3 0-.6 0-.8-1-1.2-2-2.3-3.3-3.4l-1-1c2.6 1.2 4.7 2.5 6.7 4 2 1.4 3.7 3 5 4.6 1-2.5 2.3-5 3.8-7.4 1-1.7 2-3.3 3.5-5 0 .3 0 .7-.2 1-.7 2-1.2 4-1.5 5.8 0 1-.4 2-.3 3v-.3c0 .8-.3 1.7-.2 2.5 0 1.5.2 3 .4 4.4v.6c.5 2.4 1.3 4.8 2.3 7 .6-3.6 1-7.2 1.7-11l1.5-9.6c.3.4.3.8.5 1.2l3.6 12.4 1.3 4 1-2.2.2-1.2v.3c0-.7.4-1.3.6-1.8.5-1 1-2 1-3l3.5-10c.3-.7.5-1.5 1-2.4V27l1 12.6v2l.6-3c.4-2.4 1-5 1.3-7.4l.3-.6 3.6 10.7 1 3c.3-1 .6-1.8.5-2.7 0 0 0 .2.2.3-.2-.6-.2-1.2 0-1.7 0-1.7-.2-3.3-.3-5-.2-1.4-.6-3-1-4.4 0-.8-.6-1.5-.5-2.2.5 0 .6.4.8.7v-.3l.8 1c3.3 3.6 5.7 7.4 7.2 11.3 0 .6.3 1 .6 1.6.3-.7.3-1.5.2-2.3 0-.6 0-1.2-.3-1.7-.6-3.7-3-7.2-6.6-10.5-.2 0-.3 0-.4-.2l.4-.2 2.8 1.7c3 2 5.7 4 7.7 6.3.4.4 1 1 1 1.4 0-.4.3-.8 0-1.3v-1l-.7-9.2v-.6c.6.7.8 1.4 1.2 2l6.5 12.5c.8 1.4 1.4 3 2.3 4.3v-1c1-5.2 1.7-10.4 2.4-15.5 0-.5 0-1 .4-1.5.4.7.5 1.5.7 2.2l4.4 15c.3.7.4 1.5.8 2.3l.4-1.4c0-1.2 0-2.6.6-4 .3-.7 0-1.4.2-2 0-1.5 0-3-.2-4.3-.4-3.5-1.6-7-3.4-10.5l-.5-1c1 .6 1.6 1.4 2.4 2.2 1.7 1.7 3 3.4 4.4 5 .7 1 1.2 2 2 3 2.2-2.5 5.4-5 9-7.3h.8v.2c-3.3 2.8-5.5 5.7-6.7 8.6-.6 1.7-1 3.4-.3 5l1 3.2c0-1.3.5-2.5 1-3.7.2-.8.6-1.6.7-2.4.8-2.8 2-5.5 3.7-8.2 0-.3.3-.5.5-.8.2.5 0 1 0 1.4 0 .7-.2 1.3 0 2 0 .8-.2 1.7 0 2.6 0 1 0 2 .3 2.8l.4-.4c2-1.8 4.5-3.6 7.5-5.2.5-.3.3-.7.4-1 .3-2 .5-4 1-6.2l.2.6.6 2c.3 1 .5 2 1 3 1.5-1 3-1.7 4.8-2.4.5-.3 1.2-.5 1.3-.8 1-2.3 2.2-4.6 3.8-6.8.2.8-.2 1.8-.2 2.6-.4 2.8 0 5.5.2 8.3.4 2.3 1 4.7 2 7l.7-3 .8-4c1.7 4.3 3.3 8.7 4.7 13 .8-1.2 1.5-2.4 2-3.6 2-6-.4-11.7-7-16.5-1-.6-2-1.2-2.8-2l1.2.5c6.7 2.8 11.6 6.2 14.6 10 .4.5 1 1 1 1.6.2-1-.2-1.8-.5-2.6-.8-2-2-4-3.4-5.8-.8-1.2-2-2.4-3-3.5 1.8 1 3.5 2 5 3.2 2.6 2 5 4 6.5 6.2.2.4.4.8.8 1V30c0-1.7-.3-3.5-.4-5.2 0-.8-.3-1.6-.2-2.4l.5.3 1 2 5.3 9.7 1.3 2.2c.3-1.5 1-3 1.5-4.3.8-2 1.8-3.7 2.8-5.5l.6-.6V28c-.2.8 0 1.5-.2 2.2 0 1 0 1.8.2 2.8 0 1 .3 2 .4 3 .2.5 0 1 .5 1.7.7-2 1.7-4 2.5-6l4.7-10c.6-1.4 1-2.7 1.8-4 0 .2 0 .5.2.8l.3 6c.2 1.6 0 3.2.4 4.8l1-.8c1.7-1.5 3.6-3 6-4.5l-.6.7c-4.4 4.5-6 9.2-5 13.7 0 .7.5 1.5.7 2.2.5-.7.5-1.5.7-2.2.6-2.6 1-5 1.7-7.6.2-1 .3-2 .7-3l.5 1c1 2.3 1.6 4.5 2.5 6.7.4 1.2 1 2.5 1.3 3.7l.2-1.3c.2-2.5.4-5 .8-7.4 0-.8.3-1.5.3-2.2 0-.7-.6-1.4-1-2-3-4.7-8.6-9-16.2-12.7l-1-.6-.5.2s.2 0 .3-.2l2.3.8z"/></g></g><path d="M0 49.4S148.2 38 222 38c87 0 212.3 19.8 325 21.5 143 2 266-10 266-10v5.3s-123 12-266 10c-112.8-1.5-238-21.4-325-21.4-74 0-222 11.4-222 11.4v-5.4z" fill="#6CAF12"/><path d="M0 51.4S148.2 40 222 40c87 0 212.3 19.8 325 21.5 143 2 266-10 266-10v5.3s-123 12-266 10c-112.8-1.5-238-21.4-325-21.4-74 0-222 11.4-222 11.4v-5.4z" fill="#8B572A"/><path d="M0 56.5S148.2 44 222 44c87 0 212.3 21.4 325 22 143 .6 266-9.5 266-9.5v2s-123 10-266 9.3c-112.8-.6-238-22-325-22C148 46 0 58.5 0 58.5v-2z" fill="#733500"/></g></svg>
