<svg width="77" height="34" viewBox="0 0 77 34" xmlns="http://www.w3.org/2000/svg"><title>Jack</title><path d="M55.5 30l-2 1.6c-1 .5-1.8.8-2.7 1-1 .4-1.8.5-2.7.5-1.4.2-2.7 0-3.7-.8-1-.7-1.7-1.6-2.2-2.7l-.4.6c-.6.7-1 1.3-1.7 1.8l-2 1c-.7.4-1.4.5-2 .5-1.4 0-2.4-.5-3-1.2-.7-.6-1-1.5-1-2.6-.7 1-1.6 1.8-2.7 2.6-1 .7-2 1-3.2 1-1 0-2-.2-2.6-1-.6-.6-1-1.5-1.2-2.6 0-1.2 0-2.4.4-4 .4-1.3 1-2.7 2-4 2-3 4-5 5.6-6 1.8-1.3 3.3-2 4.5-2 1 0 1.8.4 2.3 1 .4.8.7 1.6.6 2.5l1-1.7.7-1.3c.4-.6.8-.7 1.2-.3.3.5.5 1.2.6 2 .2 1 0 2-.6 3.3l-1 2-1.3 2-1 2.2c-.5.8-1 1.4-1.2 2l-.6 2c-.2.5-.3 1-.2 1.4 0 .4 0 .8.3 1 .2.2.5.3 1 .3.4 0 1-.3 1.5-.7l1.6-1.5 1.7-2 .7-1v-1.2c.2-1.4.6-3 1.4-4.4.8-1.5 1.7-2.8 2.6-4 1-1 2-1.8 2.8-2.4 1-.6 2-1 2.7-1 1-.2 1.7 0 2.3.2 1.2.8 2 1.6 2.7 2.7.2.5.3 1 .2 1.5 0 .6-.2 1.2-.5 1.8l-.8 1.8-1 2c0 .2 0 .4-.2.5-.2 0-.4 0-.7-.2-.5 0-1-.6-1.2-1.3-.2-.7-.2-1.6 0-2.7.3-.4.4-1 .7-1.3l.5-1.3.4-1c0-.4 0-.6-.2-.7-.2-.2-.5 0-1 .2-.5 0-1 .6-1.7 1.2s-1.3 1.3-2 2.2l-1.8 3c-.7 1.4-1 2.6-1.3 3.7-.3 1.3-.3 2.3-.2 3 .2 1 .5 1.6 1 2 .4.6 1 .8 1.7.8 1 0 1.8-.2 2.8-.6 1-.4 1.7-1 2.6-1.6l2.2-2.2.7-1 1-2c.5-1.4 1-3 2-4.5l2.4-5 2.7-5.2L67.2 5c.8-1.4 1.6-2.6 2.3-3.5.5-.6 1-.7 1.2 0 .4.7.5 1.6.4 2.6 0 1-.6 2.5-1.6 4.3l-1 1.6c-.4.6-.8 1.2-1 2-.5.6-1 1.3-1.3 2l-1 2 2.3-2 2-.8c1-.3 1.7-.3 2.3 0 .6.4 1 1 1.6 2 .5 1 .6 2 .5 3 0 1-.6 1.8-1.5 2.6-.8.8-1.7 1.6-2.8 2.2-1 .7-2.3 1.3-3.8 1.7 0 2 .4 3.6 1 4.8.6 1.3 1.4 2 2.3 2 .4 0 1 0 1.5-.5l1.6-1.5 1.7-2c.5-1 1-1.7 1.2-2.4 0-.2.3-.3.4-.4.2 0 .4.2.5.4v1.3c0 .5-.3 1-.7 1.7l-1 1.6-1.6 1.6c-.5.5-1.2 1-2 1.3-.7.3-1.5.5-2.5.5-.8 0-1.6-.2-2.4-.6-.7-.4-1.4-1-2-1.7-.5-.7-1-1.7-1.2-2.8-.3-1.2-.5-2.6-.4-4.2v-1l1-.3c1.4-.5 2.7-1 3.8-1.8 1.2-.7 2-1.4 2.8-2.2.7-.7 1.2-1.3 1.5-2 .3-.6.4-1 .2-1.4-.3-.3-1-.4-1.8 0-1 0-2 .8-3.4 1.7-.8.7-1.7 1.5-2.4 2.4-1 1-1.6 2-2.3 3.3-.7 1.3-1.5 2.7-2.2 4.4L57 32.4c0 .2-.2.3-.4.4-.2 0-.3 0-.5-.3-.3-.4-.5-1-.5-1.8V30zm-51-8.5h.7v1c-.6 1.7-1 3-1 4.2-.2 1.2 0 2 0 2.8.2.7.5 1.2 1 1.6.2.4.6.6 1 .7 1 .3 2 0 3-.6s2-1.6 3-3c.8-1 1.6-2.6 2.5-4.2l2.4-5 2.3-4.3 2.3-4.7 2.2-4c.6-1.3 1.2-2.2 1.5-2.7.4-.5.8-.5 1.2 0 .3.7.5 1.4.5 2.4s-.2 2.2-.8 3.7L24.5 13 22 17.6c-.7 1.7-1.6 3.3-2.4 5-.8 1.6-1.6 3-2.3 4-1 1.5-1.8 2.8-2.8 3.7-1 1-2 1.7-2.8 2-1 .6-2 1-3 1h-3c-1.7-.4-3-1.3-4-2.8-.8-1.5-1-3.2-.4-5.3.3-1 .7-2 1.3-2.5.6-.6 1.2-1 2-1.2zm29 2.8c1.5-2.6 2.4-4.6 2.6-6 .4-1.5.2-2.3-.5-2.3-.4 0-1 0-1.5.5L32 18c-.6.6-1.3 1.3-2 2.3-.8 1-1.5 1.8-2 3-.8 1-1.3 2-1.7 3-.3 1-.6 1.8-.7 2.6v1.8c.2.5.5.7 1 .7s1 0 1.5-.5c.7-.3 1.3-.8 1.8-1.5.6-.6 1.2-1.4 1.8-2.3.6-1 1.2-1.8 1.8-3z" stroke="#2076F4" fill="#2076F4" fill-rule="evenodd"/></svg>