<?xml version="1.0" encoding="UTF-8" standalone="no"?>
<svg width="371px" height="198px" viewBox="0 0 371 198" version="1.1" xmlns="http://www.w3.org/2000/svg" xmlns:xlink="http://www.w3.org/1999/xlink">
    <!-- Generator: Sketch 3.6.1 (26313) - http://www.bohemiancoding.com/sketch -->
    <title>Group 30</title>
    <desc>Created with Sketch.</desc>
    <defs></defs>
    <g id="Page-1" stroke="none" stroke-width="1" fill="none" fill-rule="evenodd">
        <g id="Group-30" transform="translate(0.000000, 1.000000)">
            <g id="Group-29" transform="translate(0.000000, 40.000000)">
                <g id="Group-2" transform="translate(153.594943, 101.061807) rotate(11.000000) translate(-153.594943, -101.061807) translate(125.594943, 58.561807)">
                    <path d="M16.9578768,72.0395077 C16.9578768,72.0395077 13.4165536,76.842499 14.891615,82.5388726 C14.891615,82.5388726 7.7135926,82.4396804 8.00886618,83.5197009 C8.3034865,84.6003739 18.9228832,83.5197009 18.9228832,83.5197009 C18.9228832,83.5197009 19.7009161,82.5219056 16.3144155,82.5388726 C16.3144155,82.5388726 15.5056795,76.0293839 18.4433903,73.4053584 C18.4433903,73.4053584 18.5002239,71.7236589 16.9578768,72.0395077" id="Fill-508" fill="#FFA44A"></path>
                    <path d="M40.0423079,72.0395077 C40.0423079,72.0395077 43.5833152,76.842499 42.1083854,82.5388726 C42.1083854,82.5388726 49.2857673,82.4396804 48.9911733,83.5197009 C48.695926,84.6003739 38.0768236,83.5197009 38.0768236,83.5197009 C38.0768236,83.5197009 37.3001666,82.5219056 40.6857118,82.5388726 C40.6857118,82.5388726 41.4943756,76.0293839 38.5569269,73.4053584 C38.5569269,73.4053584 38.5007516,71.7236589 40.0423079,72.0395077" id="Fill-509" fill="#FFA44A" transform="translate(43.500000, 78.000000) rotate(-10.000000) translate(-43.500000, -78.000000) "></path>
                    <path d="M49.5447875,21.8839252 C45.9380545,13.9356041 28.5083139,9.00258713 28.4999081,9 C28.4921489,9.00258713 11.0617618,13.9356041 7.45502882,21.8839252 C3.84764928,29.8348334 -2.7664187,49.5707818 7.45502882,63.2774154 C17.6751831,76.9814619 28.4953819,79.9987064 28.4999081,80 C28.5044343,79.9987064 39.3246332,76.9814619 49.5447875,63.2774154 C59.766235,49.5707818 53.1528136,29.8348334 49.5447875,21.8839252" id="Fill-344" fill="#FFE980"></path>
                    <path d="M10.4436539,63.2774154 C-0.210923834,49.5707818 6.68297683,29.8348334 10.4436539,21.8839252 C13.5735077,15.2660375 26.6927442,10.737907 31,9.40682675 C30.1346399,9.13970521 29.622433,9.00064678 29.6210851,9 C29.6129976,9.00258713 11.4451532,13.9356041 7.68582405,21.8839252 C3.92582094,29.8348334 -2.96807973,49.5707818 7.68582405,63.2774154 C18.3383799,76.9814619 29.6163674,79.9987064 29.6210851,80 C29.622433,80 30.1218347,79.8635287 31,79.5304353 C27.6787425,78.2659737 18.8681097,74.1162115 10.4436539,63.2774154" id="Fill-345" fill="#FFFFFF"></path>
                    <path d="M47.556813,63.2774154 C58.2099355,49.5707818 51.3167782,29.8348334 47.556813,21.8839252 C44.4256428,15.2660375 31.3078863,10.737907 27,9.40682675 C27.8653514,9.13970521 28.3775531,9.00064678 28.378901,9 C28.3876624,9.00258713 46.5546498,13.9356041 50.3139411,21.8839252 C54.0739064,29.8348334 60.9684115,49.5707818 50.3139411,63.2774154 C39.6614926,76.9814619 28.3836187,79.9987064 28.378901,80 C28.3782271,80 27.8781564,79.8635287 27,79.5304353 C30.321224,78.2659737 39.1317681,74.1162115 47.556813,63.2774154" id="Fill-346" fill="#FFDD62"></path>
                    <g id="Group-3" transform="translate(38.000000, 30.000000)">
                        <path d="M4.81625,2.394375 C4.81625,3.70056712 3.75912799,4.75578782 2.45483718,4.75578782 C1.15149701,4.75578782 0.094375,3.70056712 0.094375,2.394375 C0.094375,1.09293613 1.15149701,0.0329621754 2.45483718,0.0329621754 C3.75912799,0.0329621754 4.81625,1.09293613 4.81625,2.394375" id="Fill-347" fill="#4F433B"></path>
                        <path d="M1.72967181,2.26353114 C1.39685126,2.46456991 0.812492371,2.64712743 0.812492371,2.06249237 C0.812492371,1.43749237 1.43749237,0.812492371 2.06249237,0.812492371 C2.68749237,0.812492371 2.06249237,2.06249237 1.72967181,2.26353114 Z" id="Path-22" fill="#FFFFFF"></path>
                    </g>
                    <path d="M26,41.4519444 C26,41.4519444 27.7000498,39 30,39 L30,47 L26,41.4519444 Z M34,41.4519444 C34,41.4519444 32.2999502,39 30,39 L30,47 L34,41.4519444 Z" id="Fill-349" fill="#FFA44A"></path>
                    <path d="M50.3301114,21.6154857 C47.9296061,16.4309953 40.0183413,12.5266579 34.3548343,10.3096188 C30.9799056,8.28421556 35.054049,5.73036205 35.054049,5.73036205 C33.1710416,5.14771179 30.0002151,6.79887681 30.0002151,6.79887681 C30.6540005,4.02886844 34.5589365,2.04024376 34.5589365,2.04024376 C27.6214368,2.04024376 25.5402527,6.60401482 25.5402527,6.60401482 C24.2524336,4.07919704 26.729971,-8.24229573e-13 26.729971,-8.24229573e-13 C21.3785429,3.39976102 20.8406348,10.6251404 20.8406348,10.6270761 C15.2600855,12.8873462 7.96244414,16.6639264 5.66859872,21.6154857 C2.82301896,27.7600908 -5.58204149,48.9690764 5.77723377,63.8927948 C16.2970564,77.7131557 27.6398718,80.9045047 27.7517988,80.9335404 L28.0098894,81 L28.2679799,80.9283785 C28.7321478,80.8006213 39.7483997,77.6531485 50.2234515,63.8927948 C61.58141,48.9703668 53.1776663,27.7600908 50.3301114,21.6154857 L50.3301114,21.6154857 Z M48.6347463,62.7313658 C39.463315,74.7792568 29.7236895,78.4074322 28.0000135,78.9745967 C26.2763374,78.4074322 16.5367119,74.7792568 7.3652806,62.7313658 C-3.34350119,48.6625881 4.74092128,28.3175768 7.47391564,22.417517 C10.6802954,15.4966902 25.7878089,10.8264548 28.0000135,10.1766997 C30.2128764,10.8271 45.322365,15.5005616 48.5254529,22.417517 C51.2584472,28.3175768 59.3435281,48.6625881 48.6347463,62.7313658 L48.6347463,62.7313658 Z" id="Fill-351" fill="#FFD643"></path>
                    <path id="Path-20" stroke="#979797" d="M14,32 C14.0604099,32.05 14.1208198,32.1 14.1812298,32.15 L14,32 Z"></path>
                    <g id="Group" transform="translate(14.000000, 30.000000)">
                        <path d="M4.81625,2.394375 C4.81625,3.70056712 3.75912799,4.75578782 2.45483718,4.75578782 C1.15149701,4.75578782 0.094375,3.70056712 0.094375,2.394375 C0.094375,1.09293613 1.15149701,0.0329621754 2.45483718,0.0329621754 C3.75912799,0.0329621754 4.81625,1.09293613 4.81625,2.394375" id="Fill-347" fill="#4F433B"></path>
                        <path d="M1.72967181,2.26353114 C1.39685126,2.46456991 0.812492371,2.64712743 0.812492371,2.06249237 C0.812492371,1.43749237 1.43749237,0.812492371 2.06249237,0.812492371 C2.68749237,0.812492371 2.06249237,2.06249237 1.72967181,2.26353114 Z" id="Path-22" fill="#FFFFFF"></path>
                    </g>
                </g>
                <g id="Group-2-Copy-5" transform="translate(0.594943, 60.561807)">
                    <path d="M16.9578768,72.0395077 C16.9578768,72.0395077 13.4165536,76.842499 14.891615,82.5388726 C14.891615,82.5388726 7.7135926,82.4396804 8.00886618,83.5197009 C8.3034865,84.6003739 18.9228832,83.5197009 18.9228832,83.5197009 C18.9228832,83.5197009 19.7009161,82.5219056 16.3144155,82.5388726 C16.3144155,82.5388726 15.5056795,76.0293839 18.4433903,73.4053584 C18.4433903,73.4053584 18.5002239,71.7236589 16.9578768,72.0395077" id="Fill-508" fill="#FFA44A"></path>
                    <path d="M40.0423079,72.0395077 C40.0423079,72.0395077 43.5833152,76.842499 42.1083854,82.5388726 C42.1083854,82.5388726 49.2857673,82.4396804 48.9911733,83.5197009 C48.695926,84.6003739 38.0768236,83.5197009 38.0768236,83.5197009 C38.0768236,83.5197009 37.3001666,82.5219056 40.6857118,82.5388726 C40.6857118,82.5388726 41.4943756,76.0293839 38.5569269,73.4053584 C38.5569269,73.4053584 38.5007516,71.7236589 40.0423079,72.0395077" id="Fill-509" fill="#FFA44A" transform="translate(43.500000, 78.000000) rotate(-10.000000) translate(-43.500000, -78.000000) "></path>
                    <path d="M49.5447875,21.8839252 C45.9380545,13.9356041 28.5083139,9.00258713 28.4999081,9 C28.4921489,9.00258713 11.0617618,13.9356041 7.45502882,21.8839252 C3.84764928,29.8348334 -2.7664187,49.5707818 7.45502882,63.2774154 C17.6751831,76.9814619 28.4953819,79.9987064 28.4999081,80 C28.5044343,79.9987064 39.3246332,76.9814619 49.5447875,63.2774154 C59.766235,49.5707818 53.1528136,29.8348334 49.5447875,21.8839252" id="Fill-344" fill="#FFE980"></path>
                    <path d="M10.4436539,63.2774154 C-0.210923834,49.5707818 6.68297683,29.8348334 10.4436539,21.8839252 C13.5735077,15.2660375 26.6927442,10.737907 31,9.40682675 C30.1346399,9.13970521 29.622433,9.00064678 29.6210851,9 C29.6129976,9.00258713 11.4451532,13.9356041 7.68582405,21.8839252 C3.92582094,29.8348334 -2.96807973,49.5707818 7.68582405,63.2774154 C18.3383799,76.9814619 29.6163674,79.9987064 29.6210851,80 C29.622433,80 30.1218347,79.8635287 31,79.5304353 C27.6787425,78.2659737 18.8681097,74.1162115 10.4436539,63.2774154" id="Fill-345" fill="#FFFFFF"></path>
                    <path d="M47.556813,63.2774154 C58.2099355,49.5707818 51.3167782,29.8348334 47.556813,21.8839252 C44.4256428,15.2660375 31.3078863,10.737907 27,9.40682675 C27.8653514,9.13970521 28.3775531,9.00064678 28.378901,9 C28.3876624,9.00258713 46.5546498,13.9356041 50.3139411,21.8839252 C54.0739064,29.8348334 60.9684115,49.5707818 50.3139411,63.2774154 C39.6614926,76.9814619 28.3836187,79.9987064 28.378901,80 C28.3782271,80 27.8781564,79.8635287 27,79.5304353 C30.321224,78.2659737 39.1317681,74.1162115 47.556813,63.2774154" id="Fill-346" fill="#FFDD62"></path>
                    <g id="Group-3" transform="translate(38.000000, 30.000000)">
                        <path d="M4.81625,2.394375 C4.81625,3.70056712 3.75912799,4.75578782 2.45483718,4.75578782 C1.15149701,4.75578782 0.094375,3.70056712 0.094375,2.394375 C0.094375,1.09293613 1.15149701,0.0329621754 2.45483718,0.0329621754 C3.75912799,0.0329621754 4.81625,1.09293613 4.81625,2.394375" id="Fill-347" fill="#4F433B"></path>
                        <path d="M1.72967181,2.26353114 C1.39685126,2.46456991 0.812492371,2.64712743 0.812492371,2.06249237 C0.812492371,1.43749237 1.43749237,0.812492371 2.06249237,0.812492371 C2.68749237,0.812492371 2.06249237,2.06249237 1.72967181,2.26353114 Z" id="Path-22" fill="#FFFFFF"></path>
                    </g>
                    <path d="M26,41.4519444 C26,41.4519444 27.7000498,39 30,39 L30,47 L26,41.4519444 Z M34,41.4519444 C34,41.4519444 32.2999502,39 30,39 L30,47 L34,41.4519444 Z" id="Fill-349" fill="#FFA44A"></path>
                    <path d="M50.3301114,21.6154857 C47.9296061,16.4309953 40.0183413,12.5266579 34.3548343,10.3096188 C30.9799056,8.28421556 35.054049,5.73036205 35.054049,5.73036205 C33.1710416,5.14771179 30.0002151,6.79887681 30.0002151,6.79887681 C30.6540005,4.02886844 34.5589365,2.04024376 34.5589365,2.04024376 C27.6214368,2.04024376 25.5402527,6.60401482 25.5402527,6.60401482 C24.2524336,4.07919704 26.729971,-9.09494702e-13 26.729971,-9.09494702e-13 C21.3785429,3.39976102 20.8406348,10.6251404 20.8406348,10.6270761 C15.2600855,12.8873462 7.96244414,16.6639264 5.66859872,21.6154857 C2.82301896,27.7600908 -5.58204149,48.9690764 5.77723377,63.8927948 C16.2970564,77.7131557 27.6398718,80.9045047 27.7517988,80.9335404 L28.0098894,81 L28.2679799,80.9283785 C28.7321478,80.8006213 39.7483997,77.6531485 50.2234515,63.8927948 C61.58141,48.9703668 53.1776663,27.7600908 50.3301114,21.6154857 L50.3301114,21.6154857 Z M48.6347463,62.7313658 C39.463315,74.7792568 29.7236895,78.4074322 28.0000135,78.9745967 C26.2763374,78.4074322 16.5367119,74.7792568 7.3652806,62.7313658 C-3.34350119,48.6625881 4.74092128,28.3175768 7.47391564,22.417517 C10.6802954,15.4966902 25.7878089,10.8264548 28.0000135,10.1766997 C30.2128764,10.8271 45.322365,15.5005616 48.5254529,22.417517 C51.2584472,28.3175768 59.3435281,48.6625881 48.6347463,62.7313658 L48.6347463,62.7313658 Z" id="Fill-351" fill="#FFD643"></path>
                    <path id="Path-20" stroke="#979797" d="M14,32 C14.0604099,32.05 14.1208198,32.1 14.1812298,32.15 L14,32 Z"></path>
                    <g id="Group" transform="translate(14.000000, 30.000000)">
                        <path d="M4.81625,2.394375 C4.81625,3.70056712 3.75912799,4.75578782 2.45483718,4.75578782 C1.15149701,4.75578782 0.094375,3.70056712 0.094375,2.394375 C0.094375,1.09293613 1.15149701,0.0329621754 2.45483718,0.0329621754 C3.75912799,0.0329621754 4.81625,1.09293613 4.81625,2.394375" id="Fill-347" fill="#4F433B"></path>
                        <path d="M1.72967181,2.26353114 C1.39685126,2.46456991 0.812492371,2.64712743 0.812492371,2.06249237 C0.812492371,1.43749237 1.43749237,0.812492371 2.06249237,0.812492371 C2.68749237,0.812492371 2.06249237,2.06249237 1.72967181,2.26353114 Z" id="Path-22" fill="#FFFFFF"></path>
                    </g>
                </g>
                <g id="Group-2-Copy-6" transform="translate(92.085135, 101.061807) rotate(3.000000) translate(-92.085135, -101.061807) translate(64.085135, 58.561807)">
                    <path d="M16.9578768,72.0395077 C16.9578768,72.0395077 13.4165536,76.842499 14.891615,82.5388726 C14.891615,82.5388726 7.7135926,82.4396804 8.00886618,83.5197009 C8.3034865,84.6003739 18.9228832,83.5197009 18.9228832,83.5197009 C18.9228832,83.5197009 19.7009161,82.5219056 16.3144155,82.5388726 C16.3144155,82.5388726 15.5056795,76.0293839 18.4433903,73.4053584 C18.4433903,73.4053584 18.5002239,71.7236589 16.9578768,72.0395077" id="Fill-508" fill="#FFA44A"></path>
                    <path d="M40.0423079,72.0395077 C40.0423079,72.0395077 43.5833152,76.842499 42.1083854,82.5388726 C42.1083854,82.5388726 49.2857673,82.4396804 48.9911733,83.5197009 C48.695926,84.6003739 38.0768236,83.5197009 38.0768236,83.5197009 C38.0768236,83.5197009 37.3001666,82.5219056 40.6857118,82.5388726 C40.6857118,82.5388726 41.4943756,76.0293839 38.5569269,73.4053584 C38.5569269,73.4053584 38.5007516,71.7236589 40.0423079,72.0395077" id="Fill-509" fill="#FFA44A" transform="translate(43.500000, 78.000000) rotate(-10.000000) translate(-43.500000, -78.000000) "></path>
                    <path d="M47.5815331,22.2655431 C43.9748002,14.3172221 26.5450596,9.38420512 26.5366538,9.38161799 C26.5288946,9.38420512 9.09850739,14.3172221 5.49177445,22.2655431 C1.88439492,30.2164514 -4.72967307,49.9523998 5.49177445,63.6590334 C15.7119288,77.3630799 26.5321276,80.3803244 26.5366538,80.381618 C26.54118,80.3803244 37.3613788,77.3630799 47.5815331,63.6590334 C57.8029806,49.9523998 51.1895592,30.2164514 47.5815331,22.2655431" id="Fill-344" fill="#FFE980"></path>
                    <path d="M10.4436539,63.2774154 C-0.210923834,49.5707818 6.68297683,29.8348334 10.4436539,21.8839252 C13.5735077,15.2660375 26.6927442,10.737907 31,9.40682675 C30.1346399,9.13970521 29.622433,9.00064678 29.6210851,9 C29.6129976,9.00258713 11.4451532,13.9356041 7.68582405,21.8839252 C3.92582094,29.8348334 -2.96807973,49.5707818 7.68582405,63.2774154 C18.3383799,76.9814619 29.6163674,79.9987064 29.6210851,80 C29.622433,80 30.1218347,79.8635287 31,79.5304353 C27.6787425,78.2659737 18.8681097,74.1162115 10.4436539,63.2774154" id="Fill-345" fill="#FFFFFF"></path>
                    <path d="M47.556813,63.2774154 C58.2099355,49.5707818 51.3167782,29.8348334 47.556813,21.8839252 C44.4256428,15.2660375 31.3078863,10.737907 27,9.40682675 C27.8653514,9.13970521 28.3775531,9.00064678 28.378901,9 C28.3876624,9.00258713 46.5546498,13.9356041 50.3139411,21.8839252 C54.0739064,29.8348334 60.9684115,49.5707818 50.3139411,63.2774154 C39.6614926,76.9814619 28.3836187,79.9987064 28.378901,80 C28.3782271,80 27.8781564,79.8635287 27,79.5304353 C30.321224,78.2659737 39.1317681,74.1162115 47.556813,63.2774154" id="Fill-346" fill="#FFDD62"></path>
                    <g id="Group-3" transform="translate(38.000000, 30.000000)">
                        <path d="M4.81625,2.394375 C4.81625,3.70056712 3.75912799,4.75578782 2.45483718,4.75578782 C1.15149701,4.75578782 0.094375,3.70056712 0.094375,2.394375 C0.094375,1.09293613 1.15149701,0.0329621754 2.45483718,0.0329621754 C3.75912799,0.0329621754 4.81625,1.09293613 4.81625,2.394375" id="Fill-347" fill="#4F433B"></path>
                        <path d="M1.72967181,2.26353114 C1.39685126,2.46456991 0.812492371,2.64712743 0.812492371,2.06249237 C0.812492371,1.43749237 1.43749237,0.812492371 2.06249237,0.812492371 C2.68749237,0.812492371 2.06249237,2.06249237 1.72967181,2.26353114 Z" id="Path-22" fill="#FFFFFF"></path>
                    </g>
                    <path d="M26,41.4519444 C26,41.4519444 27.7000498,39 30,39 L30,47 L26,41.4519444 Z M34,41.4519444 C34,41.4519444 32.2999502,39 30,39 L30,47 L34,41.4519444 Z" id="Fill-349" fill="#FFA44A"></path>
                    <path d="M50.3301114,21.6154857 C47.9296061,16.4309953 40.0183413,12.5266579 34.3548343,10.3096188 C30.9799056,8.28421556 35.054049,5.73036205 35.054049,5.73036205 C33.1710416,5.14771179 30.0002151,6.79887681 30.0002151,6.79887681 C30.6540005,4.02886844 34.5589365,2.04024376 34.5589365,2.04024376 C27.6214368,2.04024376 25.5402527,6.60401482 25.5402527,6.60401482 C24.2524336,4.07919704 26.729971,-3.7658765e-13 26.729971,-3.7658765e-13 C21.3785429,3.39976102 20.8406348,10.6251404 20.8406348,10.6270761 C15.2600855,12.8873462 7.96244414,16.6639264 5.66859872,21.6154857 C2.82301896,27.7600908 -5.58204149,48.9690764 5.77723377,63.8927948 C16.2970564,77.7131557 27.6398718,80.9045047 27.7517988,80.9335404 L28.0098894,81 L28.2679799,80.9283785 C28.7321478,80.8006213 39.7483997,77.6531485 50.2234515,63.8927948 C61.58141,48.9703668 53.1776663,27.7600908 50.3301114,21.6154857 L50.3301114,21.6154857 Z M48.6347463,62.7313658 C39.463315,74.7792568 29.7236895,78.4074322 28.0000135,78.9745967 C26.2763374,78.4074322 16.5367119,74.7792568 7.3652806,62.7313658 C-3.34350119,48.6625881 4.74092128,28.3175768 7.47391564,22.417517 C10.6802954,15.4966902 25.7878089,10.8264548 28.0000135,10.1766997 C30.2128764,10.8271 45.322365,15.5005616 48.5254529,22.417517 C51.2584472,28.3175768 59.3435281,48.6625881 48.6347463,62.7313658 L48.6347463,62.7313658 Z" id="Fill-351" fill="#FFD643"></path>
                    <path id="Path-20" stroke="#979797" d="M14,32 C14.0604099,32.05 14.1208198,32.1 14.1812298,32.15 L14,32 Z"></path>
                    <g id="Group" transform="translate(14.000000, 30.000000)">
                        <path d="M4.81625,2.394375 C4.81625,3.70056712 3.75912799,4.75578782 2.45483718,4.75578782 C1.15149701,4.75578782 0.094375,3.70056712 0.094375,2.394375 C0.094375,1.09293613 1.15149701,0.0329621754 2.45483718,0.0329621754 C3.75912799,0.0329621754 4.81625,1.09293613 4.81625,2.394375" id="Fill-347" fill="#4F433B"></path>
                        <path d="M1.72967181,2.26353114 C1.39685126,2.46456991 0.812492371,2.64712743 0.812492371,2.06249237 C0.812492371,1.43749237 1.43749237,0.812492371 2.06249237,0.812492371 C2.68749237,0.812492371 2.06249237,2.06249237 1.72967181,2.26353114 Z" id="Path-22" fill="#FFFFFF"></path>
                    </g>
                </g>
                <g id="Group-4" transform="translate(245.522609, 80.548743) rotate(7.000000) translate(-245.522609, -80.548743) translate(196.522609, 5.548743)">
                    <path d="M28.2874533,127.069119 C28.2874533,127.069119 21.8489662,135.47482 24.5295907,145.442885 C24.5295907,145.442885 11.4804009,145.270431 12.0160507,147.15943 C12.5528883,149.050713 31.8600358,147.15943 31.8600358,147.15943 C31.8600358,147.15943 33.2733912,145.413191 27.1175751,145.442885 C27.1175751,145.442885 25.6460227,134.051789 30.9882686,129.460632 C30.9882686,129.460632 31.0892226,126.516352 28.2874533,127.069119" id="Fill-378" fill="#FF9329"></path>
                    <path d="M69.7137238,127.069119 C69.7137238,127.069119 76.1505857,135.47482 73.4701434,145.442885 C73.4701434,145.442885 86.5184463,145.270431 85.9840205,147.15943 C85.4472195,149.050713 66.1401966,147.15943 66.1401966,147.15943 C66.1401966,147.15943 64.7257496,145.413191 70.8823349,145.442885 C70.8823349,145.442885 72.3537873,134.051789 67.0130921,129.460632 C67.0130921,129.460632 66.912145,126.516352 69.7137238,127.069119" id="Fill-379" fill="#FF9329" transform="translate(76.000000, 137.500000) rotate(-13.000000) translate(-76.000000, -137.500000) "></path>
                    <path d="M87.3247174,38.8644306 C80.9278703,24.7589593 50.0158923,16.0045913 50.0009839,16 L49.9998371,16 C49.9860755,16.0045913 19.0729507,24.7589593 12.6749568,38.8644306 C6.27696288,52.974493 -5.45364826,87.9988522 12.6749568,112.323301 C30.802415,136.643158 49.9918095,141.997704 49.9998371,142 L50.0009839,142 C50.0078647,141.997704 69.1995528,136.643158 87.3247174,112.323301 C105.453322,87.9988522 93.7238581,52.974493 87.3247174,38.8644306" id="Fill-374" fill="#2076F5"></path>
                    <path d="M15.5576856,112.323301 C-2.81068709,87.9988522 9.07391035,52.974493 15.5576856,38.8644306 C20.9550219,27.1200102 43.5727076,19.0841729 51,16.7219742 C49.5080345,16.2479276 48.6249397,16.0011478 48.6226157,16 L48.6214538,16 C48.6075102,16.0045913 17.2855304,24.7589593 10.8029171,38.8644306 C4.32030377,52.974493 -7.56545564,87.9988522 10.8029171,112.323301 C29.1701279,136.643158 48.61332,141.997704 48.6214538,142 L48.6226157,142 C48.6237777,142 49.4847952,141.757812 51,141.166688 C45.2738271,138.922714 30.0834339,131.558347 15.5576856,112.323301" id="Fill-375" fill="#FFFFFF"></path>
                    <path d="M82.4410467,112.323301 C100.811129,87.9988522 88.9238532,52.974493 82.4410467,38.8644306 C77.0447116,27.1200102 54.4263518,19.0841729 47,16.7219742 C48.490848,16.2479276 49.3739691,16.0011478 49.3762931,16 C49.3913992,16.0045913 80.7143124,24.7589593 87.195957,38.8644306 C93.6799255,52.974493 105.566039,87.9988522 87.195957,112.323301 C68.8293608,136.643158 49.3844271,141.997704 49.3762931,142 C49.3751311,142 48.512926,141.757812 47,141.166688 C52.7263435,138.922714 67.9171896,131.558347 82.4410467,112.323301" id="Fill-376" fill="#0062F3"></path>
                    <path d="M88.0776374,38.4275302 C83.8790332,29.2106584 70.0319352,22.2696141 60.1207405,18.3282113 C54.214581,14.7274943 61.343221,10.1873103 61.343221,10.1873103 C58.0502433,9.15148763 52.5001126,12.0868921 52.5001126,12.0868921 C53.6442438,7.16243279 60.4767693,3.62710001 60.4767693,3.62710001 C48.3383787,3.62710001 44.6962854,11.7404708 44.6962854,11.7404708 C42.442589,7.25190584 46.7771524,-2.94875235e-13 46.7771524,-2.94875235e-13 C37.4132511,6.0440196 36.4719065,18.8891385 36.4719065,18.8925798 C26.7047364,22.9108376 13.9349421,29.624758 9.92068938,38.4275302 C4.93974373,49.3512726 -9.76804513,87.0561357 10.1096496,113.587191 C28.5205982,138.156721 48.369488,143.830231 48.5642092,143.88185 L49.0181746,144 L49.4686835,143.872673 C50.280982,143.645549 69.5606868,138.050042 87.8909816,113.587191 C107.767524,87.0584299 93.0608875,49.3512726 88.0776374,38.4275302 L88.0776374,38.4275302 Z M85.1107313,111.522428 C69.0617857,132.940901 52.01619,139.390991 48.9997395,140.399283 C45.9832889,139.390991 28.9399977,132.940901 12.8898999,111.522428 C-5.85057689,86.5112678 8.29609226,50.3423587 13.0788601,39.8533636 C18.6900573,27.5496714 45.1295113,19.2470307 48.9997395,18.0919106 C52.8722721,19.2481778 79.3140305,27.5565539 84.9194667,39.8533636 C89.7033867,50.3423587 103.85236,86.5112678 85.1107313,111.522428 L85.1107313,111.522428 Z" id="Fill-377" fill="#0048B2"></path>
                    <path d="M49.7621961,71.0186622 C45.8420203,71.324799 43,75.2946354 43,75.2946354 L49.7621961,84.3608331 L49.7621961,85 L50.000545,84.6803917 L50.2389309,85 L50.2389309,84.3607335 L57,75.2946354 C57,75.2946354 54.1550901,71.3251281 50.2389309,71.0187003 L50.2389309,71 C50.1590274,71 50.0795251,71.0015811 50.0004381,71.0046826 C49.9214318,71.0015811 49.8420131,71 49.7621961,71 L49.7621961,71.0186622 Z" id="Fill-854" fill="#FF9429"></path>
                    <path d="M7,54 C16.4838083,51.3038262 24.5814767,45.5832046 34,42.7445242 C31.2580311,41.0102699 28.0835492,40 24.6852332,40 C16.4266839,40 9.43536269,45.8745797 7,54 Z" id="Fill-858" fill="#FFFFFF"></path>
                    <path d="M34.8771585,42 C25.413754,44.6787307 17.2774986,50.0770154 7.74849802,52.6212693 C7.40177593,53.7078902 7.15579067,54.8389365 7,56 C17.3337238,51.9392796 27.6662762,47.4499142 38,44.3341338 C37.0418288,43.4528302 35.9981485,42.6663808 34.8771585,42" id="Fill-859" fill="#E4E5E3"></path>
                    <path d="M43,52.3930236 C42.0137618,49.1194679 40.1565,46.2250039 37.6747744,44 C27.5105293,46.9901011 17.3474365,51.2983816 7.18319145,55.1953072 C7.070281,56.0064945 7,56.8303567 7,57.6738072 C7,60.6742785 7.73391794,63.4973027 9.0070409,66 C20.2013058,61.1443985 32.4820457,58.8260619 43,52.3930236" id="Fill-860" fill="#FFFFFF"></path>
                    <path d="M44,57.2632068 C44,55.4291808 43.7067298,53.6675052 43.2001722,52 C32.6181029,58.4116264 20.2625025,60.7222465 9,65.5616865 C10.5869047,68.6486383 13.0304365,71.2268402 16.0153011,73 C25.6051202,69.9578366 34.6396966,66.0853659 43.6394979,60.8600569 C43.8724912,59.6955594 44,58.4943126 44,57.2632068" id="Fill-861" fill="#E4E5E3"></path>
                    <path d="M15,72.5305025 C17.7089505,74.0935723 20.8722253,75 24.2609626,75 C33.0381436,75 40.350384,68.9822361 42,61 C33.2035584,65.9629918 24.3731274,69.6410596 15,72.5305025" id="Fill-862" fill="#FFFFFF"></path>
                    <path d="M24.5,77 C13.7478784,77 5,68.2530131 5,57.5005746 C5,46.7481361 13.7478784,38 24.5,38 C35.2521216,38 44,46.7481361 44,57.5005746 C44,68.2530131 35.2521216,77 24.5,77 L24.5,77 Z M24.5,40.2985119 C15.0154703,40.2985119 7.29844413,48.0146162 7.29844413,57.5005746 C7.29844413,66.9853838 15.0154703,74.7014881 24.5,74.7014881 C33.9856789,74.7014881 41.7015559,66.9853838 41.7015559,57.5005746 C41.7015559,48.0146162 33.9856789,40.2985119 24.5,40.2985119 L24.5,40.2985119 Z" id="Fill-863" fill="#4F433B"></path>
                    <path d="M54,55 C63.2410369,50.4922531 72.8308366,46.8076178 82,42.7743706 C79.1698367,41.0252582 75.8671941,40 72.3230096,40 C63.3836055,40 55.9158391,46.4117979 54,55 Z" id="Fill-864" fill="#FFFFFF"></path>
                    <path d="M86,47.8125987 C84.5774971,45.8868586 82.7990815,44.2484028 80.761194,43 C71.8266361,46.8911864 62.4822044,50.4460397 53.4776119,54.7950127 C53.1745121,56.139177 53,57.5335577 53,58.9711479 C53,59.3179913 53.032147,59.6578278 53.0516648,60 C64.0344432,55.9371436 75.0172216,51.8754551 86,47.8125987" id="Fill-865" fill="#E4E5E3"></path>
                    <path d="M90,55.1436469 C89.5332114,52.119123 88.3008894,49.3395549 86.4897496,47 C75.3264997,50.9453764 64.1632499,54.8896187 53,58.834995 C53.2695704,63.6207059 55.4471393,67.911969 58.8056835,71 C69.6736895,65.9863441 79.5766101,59.7411048 90,55.1436469" id="Fill-866" fill="#FFFFFF"></path>
                    <path d="M89,57.643162 C89,56.7435517 88.9205305,55.8628688 88.7869297,55 C78.4996656,59.5136389 68.7260737,65.6450176 58,70.5672667 C59.0215857,71.5036185 60.1664066,72.309705 61.390697,73 C70.4985882,69.707738 79.1699733,66.327519 88.3089612,62.418445 C88.7477708,60.8964557 89,59.2998701 89,57.643162" id="Fill-867" fill="#E4E5E3"></path>
                    <path d="M70.5877118,75 C79.3703577,75 86.7525244,69.07056 89,61 C79.4937532,65.2091111 70.4739004,68.8487755 61,72.3937318 C63.8177306,74.0397328 67.0859148,75 70.5877118,75 Z" id="Fill-868" fill="#FFFFFF"></path>
                    <path d="M71.4988508,77 C60.7467291,77 52,68.2530131 52,57.5005746 C52,46.7481361 60.7467291,38 71.4988508,38 C82.2509724,38 91,46.7481361 91,57.5005746 C91,68.2530131 82.2509724,77 71.4988508,77 L71.4988508,77 Z M71.4988508,40.2985119 C62.0143211,40.2985119 54.2984441,48.0146162 54.2984441,57.5005746 C54.2984441,66.9853838 62.0143211,74.7014881 71.4988508,74.7014881 C80.9845297,74.7014881 88.7015559,66.9853838 88.7015559,57.5005746 C88.7015559,48.0146162 80.9845297,40.2985119 71.4988508,40.2985119 L71.4988508,40.2985119 Z" id="Fill-869" fill="#4F433B"></path>
                    <path d="M18.2782593,60.214047 C20.3191875,57.1235907 25.9799622,55.2844918 29.3826641,57.0477166 C31.3566009,58.070319 33.108773,55.1372733 31.1325262,54.1146709 C25.9995976,51.4556781 18.3879866,53.805512 15.285591,58.4995176 C14.0670402,60.3442787 17.0677937,62.0452187 18.2782593,60.214047" id="Fill-870" fill="#4F433B"></path>
                    <path d="M80.7142935,58.49961 C77.6115397,53.8069105 70.0002049,51.4548987 64.8678387,54.1149255 C62.8913637,55.1386225 64.642583,58.0704273 66.6167477,57.0478627 C70.0198426,55.2847032 75.6801158,57.1248665 77.7224348,60.214076 C78.9330402,62.0451801 81.932985,60.344303 80.7142935,58.49961" id="Fill-871" fill="#4F433B"></path>
                    <path d="M43,55 C43,55 46.4020733,52.7785985 53,54.957512" id="Stroke-872" stroke="#4F433B" stroke-width="2"></path>
                </g>
            </g>
            <g id="Bubble" transform="translate(337.500000, 40.000000) scale(-1, 1) translate(-337.500000, -40.000000) translate(305.000000, 0.000000)" stroke="#D6E8FF" stroke-width="2" fill="#FFFFFF">
                <path d="M40.766979,64.0752392 C54.7114992,60.4099238 65,47.6958002 65,32.57078 C65,14.5821307 50.4490556,0 32.4996764,0 C14.5509444,0 0,14.5821307 0,32.57078 C0,50.5594292 14.5509444,65.1422085 32.4996764,65.1422085 C32.7203708,65.1422085 32.937182,65.1298849 33.156582,65.1253446 C33.9707566,68.1835576 38.3801141,79.3896546 59.4043293,80 C59.4043293,80 41.1099937,74.2909032 40.766979,64.0752392" id="Fill-873"></path>
            </g>
            <text id="?" transform="translate(339.000000, 32.500000) rotate(9.000000) translate(-339.000000, -32.500000) " font-family="Lato-Heavy, Lato" font-size="43" font-weight="600" fill="#459EFF">
                <tspan x="329" y="49">?</tspan>
            </text>
        </g>
    </g>
</svg>