<?xml version="1.0" encoding="UTF-8"?>
<svg width="242px" height="241px" viewBox="0 0 242 241" version="1.1" xmlns="http://www.w3.org/2000/svg" xmlns:xlink="http://www.w3.org/1999/xlink">
    <!-- Generator: Sketch 51.3 (57544) - http://www.bohemiancoding.com/sketch -->
    <title>jack</title>
    <desc>Created with Sketch.</desc>
    <defs></defs>
    <g id="Page-1" stroke="none" stroke-width="1" fill="none" fill-rule="evenodd">
        <g id="jack">
            <path d="M234.5,179 C230.9,171 213.5,166 213.5,166 C213.5,166 196.1,171 192.5,179 C188.8,186.8 182.2,206.6 192.5,220.3 C202.7,234 213.5,237 213.5,237 C213.5,237 224.3,234 234.5,220.3 C244.8,206.6 238.2,186.8 234.5,178.9" id="Shape" fill="#FFE980" fill-rule="nonzero"></path>
            <path d="M195.4,220.3 C184.8,206.6 191.7,186.8 195.4,178.9 C198.6,172.2 211.7,167.6 216,166.3 L214.6,165.9 C214.6,165.9 196.4,170.9 192.6,178.9 C188.9,186.7 182,206.5 192.6,220.2 C203.3,233.9 214.6,236.9 214.6,236.9 C214.6,236.9 215.1,236.9 216,236.4 C212.7,235.2 204,231 195.4,220.2" id="Shape" fill="#FFFFFF" fill-rule="nonzero"></path>
            <path d="M232.6,220.3 C243.2,206.6 236.3,186.8 232.6,178.9 C229.4,172.2 216.3,167.6 212,166.3 L213.4,165.9 C213.4,165.9 231.6,170.9 235.4,178.9 C239.1,186.7 246,206.5 235.4,220.2 C224.7,233.9 213.4,236.9 213.4,236.9 C213.4,236.9 212.9,236.9 212,236.4 C215.3,235.2 224,231 232.6,220.2" id="Shape" fill="#FFDD62" fill-rule="nonzero"></path>
            <path d="M227.8,189.4 C227.8,190.7 226.8,191.8 225.5,191.8 C224.2,191.8 223.1,190.8 223.1,189.4 C223.1,188.1 224.3,187 225.6,187 C226.9,187 227.9,188 227.9,189.4" id="Shape" fill="#4F433B" fill-rule="nonzero"></path>
            <path d="M224.7,189.3 C224.4,189.5 223.7,189.6 223.7,189.1 C223.7,188.5 224.4,187.9 225.1,187.9 C225.8,187.9 225.1,189.2 224.8,189.4 L224.7,189.3 Z" id="Shape" fill="#FFFFFF" fill-rule="nonzero"></path>
            <path d="M211,198.5 C211,198.5 212.7,196 215,196 L215,204 L211,198.5 Z M219,198.5 C219,198.5 217.3,196 215,196 L215,204 L219,198.5 Z" id="Shape" fill="#FFA44A" fill-rule="nonzero"></path>
            <path d="M235.3,178.6 C232.9,173.4 225,169.6 219.3,167.3 C216,165.3 220.1,162.7 220.1,162.7 C218.3,162.1 215.1,163.7 215.1,163.7 C215.8,161 219.7,159 219.7,159 C212.7,159 210.7,163.6 210.7,163.6 C209.4,161.1 211.7,157 211.7,157 C206.5,160.4 205.9,167.6 205.9,167.6 C200.4,169.9 193.1,173.6 190.9,178.6 C187.9,184.8 179.5,206 190.9,220.9 C201.4,234.6 212.7,237.9 212.9,237.9 L213.4,237.9 C213.8,237.7 224.8,234.6 235.4,220.9 C246.7,205.9 238.4,184.7 235.4,178.5 L235.3,178.6 Z M233.6,219.6 C224.6,231.8 214.6,235.4 213,236 C211.3,235.4 201.5,231.8 192.4,219.7 C181.7,205.7 189.7,185.3 192.4,179.4 C195.7,172.4 210.8,167.8 213,167.2 C215.2,167.8 230.3,172.5 233.5,179.4 C236.3,185.4 244.3,205.7 233.5,219.7 L233.6,219.6 Z" id="Shape" fill="#FFD643" fill-rule="nonzero"></path>
            <path d="M199,189 L199.2,189 L199,189 Z" id="Shape" stroke="#979797"></path>
            <g id="Group" transform="translate(199.000000, 187.000000)" fill-rule="nonzero">
                <path d="M4.8,2.4 C4.8,3.7 3.8,4.8 2.5,4.8 C1.2,4.8 0.1,3.8 0.1,2.4 C0.1,1.1 1.3,0 2.6,0 C3.9,0 4.9,1 4.9,2.4" id="Shape" fill="#4F433B"></path>
                <path d="M1.7,2.3 C1.4,2.5 0.7,2.6 0.7,2.1 C0.7,1.5 1.4,0.9 2.1,0.9 C2.8,0.9 2.1,2.2 1.8,2.4 L1.7,2.3 Z" id="Shape" fill="#FFFFFF"></path>
            </g>
            <g id="Group" transform="translate(124.000000, 79.000000)">
                <path d="M29.3,127 C29.3,127 22.8,135.5 25.5,145.4 C25.5,145.4 12.5,145.4 13,147.2 C13.6,149.2 33,147.2 33,147.2 C33,147.2 34.3,145.4 28,145.4 C28,145.4 26.6,134.1 32,129.4 C32,129.4 32,126.4 29.3,127.1 M70.7,127 C70.7,127 77.2,135.5 74.5,145.4 C74.5,145.4 87.5,145.4 87,147.2 C86.4,149.2 67,147.2 67,147.2 C67,147.2 65.7,145.4 72,145.4 C72,145.4 73.4,134.1 68,129.4 C68,129.4 68,126.4 70.7,127.1" id="Shape" fill="#FF9329" fill-rule="nonzero"></path>
                <path d="M88.3,39 C82,24.7 51,16 51,16 C51,16 20,24.8 13.7,39 C7.3,53 -4.5,88 13.7,112.3 C31.7,136.6 51,142 51,142 C51,142 70.2,136.6 88.3,112.3 C106.5,88 94.7,53 88.3,38.9" id="Shape" fill="#2076F5" fill-rule="nonzero"></path>
                <path d="M16.6,112.3 C-1.8,88 10.1,53 16.6,38.9 C22,26.9 44.6,18.9 52,16.6 L49.6,15.9 C49.6,15.9 18.3,24.7 11.8,38.9 C5.3,52.9 -6.6,87.9 11.8,112.2 C30.2,136.5 49.6,141.9 49.6,141.9 C49.6,141.9 50.6,141.7 52,141.1 C46.3,138.8 31,131.5 16.6,112.1" id="Shape" fill="#FFFFFF" fill-rule="nonzero"></path>
                <path d="M83.4,112.3 C101.8,88 89.9,53 83.4,38.9 C78,26.9 55.4,18.9 48,16.6 L50.4,15.9 C50.4,15.9 81.7,24.7 88.2,38.9 C94.7,52.9 106.6,87.9 88.2,112.2 C69.8,136.5 50.4,141.9 50.4,141.9 C50.4,141.9 49.4,141.7 48,141.1 C53.7,138.8 69,131.5 83.4,112.1" id="Shape" fill="#0062F3" fill-rule="nonzero"></path>
                <path d="M89,38.4 C85,29.2 71,22.4 61,18.4 C55.2,14.7 62.3,10.2 62.3,10.2 C59.1,9.2 53.5,12.2 53.5,12.2 C54.5,7.2 61.5,3.6 61.5,3.6 C49.3,3.6 45.7,11.6 45.7,11.6 C43.4,7.3 47.7,1.42108547e-14 47.7,1.42108547e-14 C38.4,6 37.5,19 37.5,19 C27.7,23 14.9,29.6 10.9,38.4 C5.9,49.4 -8.9,87.1 10.9,113.6 C29.4,138.2 49.3,143.8 49.5,143.9 L50.4,143.9 C51.2,143.5 70.4,137.9 88.8,113.5 C108.6,87 93.8,49.3 88.8,38.3 L89,38.4 Z M86,111.4 C70,132.9 53,139.4 50,140.4 C47,139.4 30,132.9 14,111.4 C-5,86.4 9.3,50.4 14,39.9 C19.7,27.4 46,19.1 50,17.9 C54,19.1 80.3,27.5 86,39.9 C90.7,50.2 105,86.4 86,111.4 Z" id="Shape" fill="#0048B2" fill-rule="nonzero"></path>
                <path d="M50.8,71 C46.8,71.3 44,75.3 44,75.3 L50.8,84.3 L50.8,85 L51,84.7 L51.2,85 L51.2,84.4 L58,75.4 C58,75.4 55.2,71.4 51.2,71 L51,71 L50.8,71 Z" id="Shape" fill="#FF9429" fill-rule="nonzero"></path>
                <circle id="Oval" fill="#FFFDFD" fill-rule="nonzero" cx="26" cy="58" r="18"></circle>
                <circle id="Oval-Copy" fill="#FFFDFD" fill-rule="nonzero" cx="72" cy="58" r="18"></circle>
                <path d="M25.5,77 C14.7,77 6,68.3 6,57.5 C6,46.7 14.7,38 25.5,38 C36.3,38 45,46.7 45,57.5 C45,68.3 36.3,77 25.5,77 Z M25.5,40.3 C16,40.3 8.3,48 8.3,57.5 C8.3,67 16,74.7 25.5,74.7 C35,74.7 42.7,67 42.7,57.5 C42.7,48 35,40.3 25.5,40.3 Z" id="Shape" fill="#4F433B" fill-rule="nonzero"></path>
                <path d="M72.5,77 C61.7,77 53,68.3 53,57.5 C53,46.7 61.7,38 72.5,38 C83.3,38 92,46.7 92,57.5 C92,68.3 83.3,77 72.5,77 Z M72.5,40.3 C63,40.3 55.3,48 55.3,57.5 C55.3,67 63,74.7 72.5,74.7 C82,74.7 89.7,67 89.7,57.5 C89.7,48 82,40.3 72.5,40.3 Z M19.3,60.2 C21.3,57.2 27,55.2 30.3,57 C32.3,58 34.1,55 32.1,54 C27.1,51.5 19.5,53.8 16.4,58.5 C15.2,60.3 18.2,62 19.4,60.2 L19.3,60.2 Z" id="Shape" fill="#4F433B" fill-rule="nonzero"></path>
                <path d="M81.7,58.5 C78.7,53.8 71,51.5 65.9,54.1 C63.9,55.1 65.5,58.1 67.5,57.1 C70.9,55.4 76.5,57.1 78.5,60.3 C79.8,62.1 82.8,60.3 81.5,58.6" id="Shape" fill="#4F433B" fill-rule="nonzero"></path>
                <path d="M44,55 C44,55 47.4,52.8 54,55" id="Shape" stroke="#4F433B" stroke-width="2"></path>
            </g>
            <g id="Group" transform="translate(61.000000, 154.000000)">
                <path d="M17,72 C17,72 13.4,76.8 15,82.5 C15,82.5 7.7,82.5 8,83.5 C8.3,84.5 19,83.5 19,83.5 C19,83.5 19.7,82.5 16.3,82.5 C16.3,82.5 15.5,76 18.3,73.5 C18.3,73.5 18.5,71.7 17,72 M40,72 C40,72 43.6,76.8 42,82.5 C42,82.5 49.3,82.5 49,83.5 C48.7,84.5 38,83.5 38,83.5 C38,83.5 37.3,82.5 40.7,82.5 C40.7,82.5 41.5,76 38.7,73.5 C38.7,73.5 38.5,71.7 40,72" id="Shape" fill="#FFA44A" fill-rule="nonzero"></path>
                <path d="M49.5,22 C45.9,14 28.5,9 28.5,9 C28.5,9 11.1,14 7.5,22 C3.8,29.8 -2.8,49.6 7.5,63.3 C17.7,77 28.5,80 28.5,80 C28.5,80 39.3,77 49.5,63.3 C59.8,49.6 53.2,29.8 49.5,21.9" id="Shape" fill="#FFE980" fill-rule="nonzero"></path>
                <path d="M10.4,63.3 C-0.2,49.6 6.7,29.8 10.4,21.9 C13.6,15.2 26.7,10.6 31,9.3 L29.6,8.9 C29.6,8.9 11.4,13.9 7.6,21.9 C3.9,29.7 -3,49.5 7.6,63.2 C18.3,76.9 29.6,79.9 29.6,79.9 C29.6,79.9 30.1,79.9 31,79.4 C27.7,78.2 19,74 10.4,63.2" id="Shape" fill="#FFFFFF" fill-rule="nonzero"></path>
                <path d="M47.6,63.3 C58.2,49.6 51.3,29.8 47.6,21.9 C44.4,15.2 31.3,10.6 27,9.3 L28.4,8.9 C28.4,8.9 46.6,13.9 50.4,21.9 C54.1,29.7 61,49.5 50.4,63.2 C39.7,76.9 28.4,79.9 28.4,79.9 C28.4,79.9 27.9,79.9 27,79.4 C30.3,78.2 39,74 47.6,63.2" id="Shape" fill="#FFDD62" fill-rule="nonzero"></path>
                <path d="M42.8,32.4 C42.8,33.7 41.8,34.8 40.5,34.8 C39.2,34.8 38.1,33.8 38.1,32.4 C38.1,31.1 39.3,30 40.6,30 C41.9,30 42.9,31 42.9,32.4" id="Shape" fill="#4F433B" fill-rule="nonzero"></path>
                <path d="M39.7,32.3 C39.4,32.5 38.7,32.6 38.7,32.1 C38.7,31.5 39.4,30.9 40.1,30.9 C40.8,30.9 40.1,32.2 39.8,32.4 L39.7,32.3 Z" id="Shape" fill="#FFFFFF" fill-rule="nonzero"></path>
                <path d="M26,41.5 C26,41.5 27.7,39 30,39 L30,47 L26,41.5 Z M34,41.5 C34,41.5 32.3,39 30,39 L30,47 L34,41.5 Z" id="Shape" fill="#FFA44A" fill-rule="nonzero"></path>
                <path d="M50.3,21.6 C47.9,16.4 40,12.6 34.3,10.3 C31,8.3 35.1,5.7 35.1,5.7 C33.3,5.1 30.1,6.7 30.1,6.7 C30.8,4 34.7,2 34.7,2 C27.7,2 25.7,6.6 25.7,6.6 C24.4,4.1 26.7,0 26.7,0 C21.5,3.4 20.9,10.6 20.9,10.6 C15.4,12.9 8.1,16.6 5.9,21.6 C2.9,27.8 -5.5,49 5.9,63.9 C16.4,77.6 27.7,80.9 27.9,80.9 L28.4,80.9 C28.8,80.7 39.8,77.6 50.4,63.9 C61.7,48.9 53.4,27.7 50.4,21.5 L50.3,21.6 Z M48.6,62.6 C39.6,74.8 29.6,78.4 28,79 C26.3,78.4 16.5,74.8 7.4,62.7 C-3.3,48.7 4.7,28.3 7.4,22.4 C10.7,15.4 25.8,10.8 28,10.2 C30.2,10.8 45.3,15.5 48.5,22.4 C51.3,28.4 59.3,48.7 48.5,62.7 L48.6,62.6 Z" id="Shape" fill="#FFD643" fill-rule="nonzero"></path>
                <path d="M14,32 L14.2,32 L14,32 Z" id="Shape" stroke="#979797"></path>
                <g transform="translate(14.000000, 30.000000)" fill-rule="nonzero" id="Shape">
                    <path d="M4.8,2.4 C4.8,3.7 3.8,4.8 2.5,4.8 C1.2,4.8 0.1,3.8 0.1,2.4 C0.1,1.1 1.3,0 2.6,0 C3.9,0 4.9,1 4.9,2.4" fill="#4F433B"></path>
                    <path d="M1.7,2.3 C1.4,2.5 0.7,2.6 0.7,2.1 C0.7,1.5 1.4,0.9 2.1,0.9 C2.8,0.9 2.1,2.2 1.8,2.4 L1.7,2.3 Z" fill="#FFFFFF"></path>
                </g>
            </g>
            <g id="Group" transform="translate(104.000000, 157.000000)">
                <path d="M17,72 C17,72 13.4,76.8 15,82.5 C15,82.5 7.7,82.5 8,83.5 C8.3,84.5 19,83.5 19,83.5 C19,83.5 19.7,82.5 16.3,82.5 C16.3,82.5 15.5,76 18.3,73.5 C18.3,73.5 18.5,71.7 17,72 M40,72 C40,72 43.6,76.8 42,82.5 C42,82.5 49.3,82.5 49,83.5 C48.7,84.5 38,83.5 38,83.5 C38,83.5 37.3,82.5 40.7,82.5 C40.7,82.5 41.5,76 38.7,73.5 C38.7,73.5 38.5,71.7 40,72" id="Shape" fill="#FFA44A" fill-rule="nonzero"></path>
                <path d="M49.5,22 C45.9,14 28.5,9 28.5,9 C28.5,9 11.1,14 7.5,22 C3.8,29.8 -2.8,49.6 7.5,63.3 C17.7,77 28.5,80 28.5,80 C28.5,80 39.3,77 49.5,63.3 C59.8,49.6 53.2,29.8 49.5,21.9" id="Shape" fill="#FFE980" fill-rule="nonzero"></path>
                <path d="M10.4,63.3 C-0.2,49.6 6.7,29.8 10.4,21.9 C13.6,15.2 26.7,10.6 31,9.3 L29.6,8.9 C29.6,8.9 11.4,13.9 7.6,21.9 C3.9,29.7 -3,49.5 7.6,63.2 C18.3,76.9 29.6,79.9 29.6,79.9 C29.6,79.9 30.1,79.9 31,79.4 C27.7,78.2 19,74 10.4,63.2" id="Shape" fill="#FFFFFF" fill-rule="nonzero"></path>
                <path d="M47.6,63.3 C58.2,49.6 51.3,29.8 47.6,21.9 C44.4,15.2 31.3,10.6 27,9.3 L28.4,8.9 C28.4,8.9 46.6,13.9 50.4,21.9 C54.1,29.7 61,49.5 50.4,63.2 C39.7,76.9 28.4,79.9 28.4,79.9 C28.4,79.9 27.9,79.9 27,79.4 C30.3,78.2 39,74 47.6,63.2" id="Shape" fill="#FFDD62" fill-rule="nonzero"></path>
                <path d="M42.8,32.4 C42.8,33.7 41.8,34.8 40.5,34.8 C39.2,34.8 38.1,33.8 38.1,32.4 C38.1,31.1 39.3,30 40.6,30 C41.9,30 42.9,31 42.9,32.4" id="Shape" fill="#4F433B" fill-rule="nonzero"></path>
                <path d="M39.7,32.3 C39.4,32.5 38.7,32.6 38.7,32.1 C38.7,31.5 39.4,30.9 40.1,30.9 C40.8,30.9 40.1,32.2 39.8,32.4 L39.7,32.3 Z" id="Shape" fill="#FFFFFF" fill-rule="nonzero"></path>
                <path d="M26,41.5 C26,41.5 27.7,39 30,39 L30,47 L26,41.5 Z M34,41.5 C34,41.5 32.3,39 30,39 L30,47 L34,41.5 Z" id="Shape" fill="#FFA44A" fill-rule="nonzero"></path>
                <path d="M50.3,21.6 C47.9,16.4 40,12.6 34.3,10.3 C31,8.3 35.1,5.7 35.1,5.7 C33.3,5.1 30.1,6.7 30.1,6.7 C30.8,4 34.7,2 34.7,2 C27.7,2 25.7,6.6 25.7,6.6 C24.4,4.1 26.7,0 26.7,0 C21.5,3.4 20.9,10.6 20.9,10.6 C15.4,12.9 8.1,16.6 5.9,21.6 C2.9,27.8 -5.5,49 5.9,63.9 C16.4,77.6 27.7,80.9 27.9,80.9 L28.4,80.9 C28.8,80.7 39.8,77.6 50.4,63.9 C61.7,48.9 53.4,27.7 50.4,21.5 L50.3,21.6 Z M48.6,62.6 C39.6,74.8 29.6,78.4 28,79 C26.3,78.4 16.5,74.8 7.4,62.7 C-3.3,48.7 4.7,28.3 7.4,22.4 C10.7,15.4 25.8,10.8 28,10.2 C30.2,10.8 45.3,15.5 48.5,22.4 C51.3,28.4 59.3,48.7 48.5,62.7 L48.6,62.6 Z" id="Shape" fill="#FFD643" fill-rule="nonzero"></path>
                <path d="M14,32 L14.2,32 L14,32 Z" id="Shape" stroke="#979797"></path>
                <g transform="translate(14.000000, 30.000000)" fill-rule="nonzero" id="Shape">
                    <path d="M4.8,2.4 C4.8,3.7 3.8,4.8 2.5,4.8 C1.2,4.8 0.1,3.8 0.1,2.4 C0.1,1.1 1.3,0 2.6,0 C3.9,0 4.9,1 4.9,2.4" fill="#4F433B"></path>
                    <path d="M1.7,2.3 C1.4,2.5 0.7,2.6 0.7,2.1 C0.7,1.5 1.4,0.9 2.1,0.9 C2.8,0.9 2.1,2.2 1.8,2.4 L1.7,2.3 Z" fill="#FFFFFF"></path>
                </g>
            </g>
            <g id="Group" fill-rule="nonzero">
                <path d="M63,98.8 C84.5,93.1 100.4,73.5 100.4,50.2 C100.4,22.5 78,0 50.2,0 C22.5,0 0,22.5 0,50.2 C0,78 22.5,100.4 50.2,100.4 L51.2,100.4 C52.5,105.1 59.2,122.4 91.8,123.4 C91.8,123.4 63.5,114.4 63,98.8" id="Shape" fill="#3989FF"></path>
                <path d="M19.8,33.8 C19.6,45.8 20.8,57.8 20.8,69.6 C20.8,73.6 26.8,73.6 26.8,69.6 C26.8,57.6 25.6,45.8 25.8,33.8 C25.8,30 19.8,30 19.8,33.8" id="Shape" fill="#FFFFFF"></path>
                <path d="M24.6,53.8 C29.6,53.8 34.6,52.8 39.8,53.1 C43.8,53.3 43.8,47.3 39.8,47.1 C34.8,47.1 29.8,47.9 24.6,47.9 C20.6,47.9 20.6,53.9 24.6,53.9" id="Shape" fill="#FFFFFF"></path>
                <path d="M37.7,32 C39.3,37.7 38.9,43.6 39.3,49.3 C39.8,55.5 40,61.7 40.9,67.9 C41.4,71.6 47.2,69.9 46.6,66.2 C44.8,54.5 46.6,41.8 43.4,30.4 C42.4,26.7 36.4,28.4 37.6,32 M52,49 C52,54.6 52.4,60 53.4,65.4 C54.1,69.2 59.9,67.6 59.2,63.8 C58.2,58.8 58.2,54 58.2,49.1 C58.2,45.3 52.2,45.3 52.2,49.1 M51.3,35.8 C51.3,37.1 51.7,38 52.3,39 C53.5,40.2 55.6,40 56.7,39 C57.2,38.4 57.7,37.6 57.7,36.8 C57.7,36 57.2,35.4 56.7,34.8 L57,35.1 C57,35.5 57.2,35.7 57.3,35.9 L57.3,35.6 L57.3,35.8 C57.3,34.2 56,32.8 54.3,32.8 C52.7,32.8 51.3,34.2 51.3,35.8 M71,27 C71,39 70.4,50.7 70.3,62.6 C70.3,66.6 76.3,66.6 76.3,62.6 C76.3,50.6 77,38.9 77.1,27.1 C77.1,23.3 71.1,23.3 71.1,27.1 M72,76.6 C76,76.6 76,70.6 72,70.6 C68.2,70.6 68.2,76.6 72,76.6" id="Shape" fill="#FFFFFF"></path>
            </g>
        </g>
    </g>
</svg>