<?xml version="1.0" encoding="UTF-8"?>
<svg width="371px" height="198px" viewBox="0 0 371 198" version="1.1" xmlns="http://www.w3.org/2000/svg" xmlns:xlink="http://www.w3.org/1999/xlink">
    <!-- Generator: Sketch 51.3 (57544) - http://www.bohemiancoding.com/sketch -->
    <title>jack-home</title>
    <desc>Created with Sketch.</desc>
    <defs></defs>
    <g id="Page-1" stroke="none" stroke-width="1" fill="none" fill-rule="evenodd">
        <g id="jack-home" transform="translate(0.000000, 1.000000)">
            <path d="M137,168 C137,168 132.7,172 133,178 C133,178 126,176.4 126,177.5 C126.2,178.5 137,179.5 137,179.5 C137,179.5 137.8,178.8 134.5,178.1 C134.5,178.1 134.9,171.7 138.3,169.7 C138.3,169.7 138.7,168 137.1,168.1 M158.7,172.8 C158.7,172.8 162.1,177.8 160.7,183.4 C160.7,183.4 167.7,183.4 167.4,184.4 C167.1,185.6 156.4,184.4 156.4,184.4 C156.4,184.4 155.8,183.4 159.1,183.4 C159.1,183.4 160.1,176.9 157.3,174.2 C157.3,174.2 157.3,172.5 158.8,172.8" id="Shape" fill="#FFA44A" fill-rule="nonzero"></path>
            <path d="M178.7,125 C176.7,116.4 160.5,108.3 160.5,108.3 C160.5,108.3 142.5,109.8 137.5,116.9 C132.3,123.9 122,141.9 129.5,157.4 C137,173 147,178 147,178 C147,178 158,177 170.8,165.6 C183.4,154.1 180.8,133.4 178.8,124.9" id="Shape" fill="#FFE980" fill-rule="nonzero"></path>
            <path d="M132.4,158 C124.6,142.6 135.1,124.6 140.4,117.5 C144.6,111.5 158.4,109.5 162.9,109.1 L161.5,108.6 C161.5,108.6 142.7,110 137.5,117 C132.3,124 121.7,142 129.5,157.6 C137.5,173.1 147.9,178.2 147.9,178.2 L149.4,178 C146.4,176 138.4,170.4 132.4,158" id="Shape" fill="#FFFFFF" fill-rule="nonzero"></path>
            <path d="M168.8,165.2 C181.8,153.8 178.8,133.2 176.8,124.6 C174.8,117.6 162.8,110.6 158.8,108.4 C159.8,108.4 160.4,108.2 160.4,108.2 C160.4,108.2 177.4,116.6 179.4,125.2 C181.6,133.6 184.6,154.2 171.4,165.7 C158.5,177 147,178 147,178 L145.7,177.2 C149.2,176.6 158.7,174.2 169,165.2" id="Shape" fill="#FFDD62" fill-rule="nonzero"></path>
            <path d="M170,134 C169.8,135.3 168.6,136 167.3,135.8 C166,135.6 165.3,134.4 165.3,133.1 C165.7,131.9 166.9,131.1 168.3,131.3 C169.5,131.5 170.3,132.8 170.1,134.1" id="Shape" fill="#4F433B" fill-rule="nonzero"></path>
            <path d="M167,133.3 C166.7,133.3 166,133.5 166.2,132.9 C166.2,132.2 167.2,131.7 167.7,131.9 C168.3,131.9 167.4,132.9 167.1,133.2 L167,133.3 Z" id="Shape" fill="#FFFFFF" fill-rule="nonzero"></path>
            <path d="M151.8,139.7 C151.8,139.7 154,137.7 156.2,138 L154.7,146 L151.7,139.7 L151.8,139.7 Z M159.8,141.2 C159.8,141.2 158.5,138.4 156.2,138 L154.7,146 L159.7,141.2 L159.8,141.2 Z" id="Shape" fill="#FFA44A" fill-rule="nonzero"></path>
            <path d="M179.5,124.8 C178.1,119.3 171.1,113.8 166,110.8 C163,108 167.5,106.3 167.5,106.3 C165.8,105.3 162.5,106.3 162.5,106.3 C163.5,103.8 167.8,102.6 167.8,102.6 C160.8,101.3 158,105.4 158,105.4 C157.2,102.6 160.5,99.1 160.5,99.1 C154.5,101.5 152.5,108.5 152.5,108.5 C146.7,109.7 138.9,112 135.7,116.5 C131.7,121.9 119.4,141.1 127.7,157.9 C135.4,173.5 145.9,178.9 146,178.9 L146.5,178.9 C147,178.9 158.5,177.9 171.3,166.4 C185.3,153.9 181.1,131.4 179.5,124.9 L179.5,124.8 Z M170,164.8 C158.7,174.8 148.4,176.6 146.6,176.8 C145.1,176 136.2,170.6 129.6,157 C121.6,141 133.6,122.7 137.3,117.4 C141.7,111.2 157.5,109.4 159.8,109.4 C161.8,110.4 175.8,117.9 177.6,125.4 C179.1,131.6 183.2,153.1 170,164.9 L170,164.8 Z" id="Shape" fill="#FFD643" fill-rule="nonzero"></path>
            <polygon id="Shape" stroke="#979797" points="142 128 142 128.3 142 128.1"></polygon>
            <g id="Group" transform="translate(141.000000, 126.000000)" fill-rule="nonzero">
                <path d="M5.5,3.4 C5.3,4.7 4,5.4 2.7,5.4 C1.5,5 0.7,3.8 0.9,2.4 C0.9,1.2 2.3,0.4 3.5,0.6 C4.8,0.9 5.7,2.1 5.5,3.4" id="Shape" fill="#4F433B"></path>
                <path d="M2.5,2.7 C2.1,2.7 1.5,2.9 1.5,2.3 C1.8,1.7 2.5,1.3 3.1,1.3 C3.8,1.3 3.1,2.5 2.6,2.7 L2.5,2.7 Z" id="Shape" fill="#FFFFFF"></path>
            </g>
            <g id="Group" transform="translate(0.000000, 100.000000)">
                <path d="M17.6,72.6 C17.6,72.6 14,77.4 15.6,83.1 C15.6,83.1 8.3,83.1 8.6,84.1 C8.9,85.3 19.6,84.1 19.6,84.1 C19.6,84.1 20.3,83.1 16.9,83.1 C16.9,83.1 15.9,76.7 18.9,74.1 C18.9,74.1 18.9,72.4 17.5,72.7 M39.7,73.3 C39.7,73.3 44,77.3 43.5,83.3 C43.5,83.3 50.5,81.9 50.5,83 C50.5,84.2 39.7,85 39.7,85 C39.7,85 38.7,84 42.1,83.5 C42.1,83.5 41.9,77 38.5,74.9 C38.5,74.9 38.2,73.1 39.8,73.2" id="Shape" fill="#FFA44A" fill-rule="nonzero"></path>
                <path d="M50,22.4 C46.5,14.4 29,9.6 29,9.6 C29,9.6 11.7,14.6 8,22.4 C4.4,30.4 -2.2,50.1 8,63.8 C18.3,77.5 29,80.6 29,80.6 C29,80.6 40,77.6 50,63.8 C60.4,50.1 53.7,30.4 50,22.4" id="Shape" fill="#FFE980" fill-rule="nonzero"></path>
                <path d="M11,63.8 C0.4,50 7.3,30.4 11,22.4 C14.2,15.8 27.3,11.4 31.6,10 L30.2,9.6 C30.2,9.6 12,14.6 8.2,22.4 C4.5,30.4 -2.4,50.1 8.2,63.8 C18.9,77.5 30.2,80.6 30.2,80.6 L31.6,80.1 C28.3,78.9 19.6,74.8 11,63.9" id="Shape" fill="#FFFFFF" fill-rule="nonzero"></path>
                <path d="M48.2,63.8 C58.8,50.1 51.9,30.4 48.2,22.4 C45,15.8 31.9,11.4 27.6,10 L29,9.6 C29,9.6 47,14.6 51,22.4 C54.7,30.4 61.6,50.1 51,63.8 C40.3,77.5 29,80.6 29,80.6 L27.6,80.1 C30.9,78.9 39.6,74.8 48.2,63.9" id="Shape" fill="#FFDD62" fill-rule="nonzero"></path>
                <path d="M43.4,33 C43.4,34.3 42.4,35.3 41,35.3 C39.7,35.3 38.7,34.3 38.7,33 C38.7,31.7 39.7,30.6 41,30.6 C42.4,30.6 43.4,31.6 43.4,33" id="Shape" fill="#4F433B" fill-rule="nonzero"></path>
                <path d="M40.3,32.8 C40,33 39.3,33.2 39.3,32.6 C39.3,32 40,31.4 40.7,31.4 C41.3,31.4 40.7,32.6 40.3,32.8 Z" id="Shape" fill="#FFFFFF" fill-rule="nonzero"></path>
                <path d="M26.6,42 C26.6,42 28.3,39.6 30.6,39.6 L30.6,47.6 L26.6,42 Z M34.6,42 C34.6,42 32.9,39.6 30.6,39.6 L30.6,47.6 L34.6,42 Z" id="Shape" fill="#FFA44A" fill-rule="nonzero"></path>
                <path d="M51,22.2 C48.5,17 40.6,13.2 35,10.9 C31.6,8.7 35.6,6.2 35.6,6.2 C33.8,5.6 30.6,7.2 30.6,7.2 C31.2,4.5 35.2,2.5 35.2,2.5 C28.2,2.5 26.2,7.1 26.2,7.1 C24.8,4.5 27.2,0.5 27.2,0.5 C22,3.9 21.4,11.1 21.4,11.1 C15.9,13.3 8.6,17.1 6.4,22.1 C3.4,28.1 -5,49.4 6.4,64.4 C16.9,78.2 28.2,81.4 28.4,81.4 L28.9,81.4 C29.2,81.4 40.2,78.1 50.7,64.4 C62.1,49.4 53.7,28.2 50.7,22.1 L51,22.2 Z M49.2,63.2 C40.2,75.2 30.2,79 28.6,79.5 C27,79 17,75.3 8,63.3 C-2.7,49.3 5.3,28.9 8,23 C11.3,16 26.4,11.4 28.6,10.7 C30.8,11.4 45.9,16.1 49.1,23 C52.1,29 60.1,49.2 49.3,63.3 L49.2,63.2 Z" id="Shape" fill="#FFD643" fill-rule="nonzero"></path>
                <path d="M14.6,32.6 L14.8,32.6 L14.6,32.6 Z" id="Shape" stroke="#979797"></path>
                <g transform="translate(14.000000, 30.000000)" fill-rule="nonzero" id="Shape">
                    <path d="M5.4,3 C5.4,4.3 4.4,5.3 3,5.3 C1.7,5.3 0.7,4.3 0.7,3 C0.7,1.7 1.7,0.6 3,0.6 C4.4,0.6 5.4,1.6 5.4,3" fill="#4F433B"></path>
                    <path d="M2.3,2.8 C2,3 1.3,3.2 1.3,2.6 C1.3,2 2,1.4 2.7,1.4 C3.3,1.4 2.7,2.6 2.3,2.8 Z" fill="#FFFFFF"></path>
                </g>
            </g>
            <g id="Group" transform="translate(63.000000, 98.000000)">
                <path d="M16.5,72 C16.5,72 12.7,76.6 13.9,82.4 C13.9,82.4 6.6,81.9 6.9,83 C7.1,84 17.9,83.6 17.9,83.6 C17.9,83.6 18.6,82.6 15.2,82.4 C15.2,82.4 14.8,75.9 17.8,73.4 C17.8,73.4 17.8,71.7 16.3,72 M38.5,73.8 C38.5,73.8 42.5,78.2 41.9,84 C41.9,84 48.9,83 48.7,84 C48.7,85.2 37.9,85.5 37.9,85.5 C37.9,85.5 36.9,84.5 40.4,84.2 C40.4,84.2 40.4,77.6 37.1,75.4 C37.1,75.4 36.9,73.7 38.4,73.8" id="Shape" fill="#FFA44A" fill-rule="nonzero"></path>
                <path d="M49.7,24 C46.5,15.8 29.4,10 29.4,10 C29.4,10 11.7,14 7.7,21.7 C3.7,29.4 -4,48.7 5.5,63 C15,77.2 25.5,80.8 25.5,80.8 C25.5,80.8 36.5,78.4 47.5,65.2 C58.5,52.2 52.9,32 49.7,23.9" id="Shape" fill="#FFE980" fill-rule="nonzero"></path>
                <path d="M10.5,63 C0.5,48.6 8.5,29.3 12.5,21.6 C16.1,15.1 29.5,11.3 33.8,10.2 L32.5,9.7 C32.5,9.7 14,13.7 9.9,21.4 C5.6,29.2 -2.3,48.4 7.6,62.7 C17.6,77 28.6,80.7 28.6,80.7 L30,80.2 C27,78.8 18.3,74.2 10.5,62.9" id="Shape" fill="#FFFFFF" fill-rule="nonzero"></path>
                <path d="M47.5,64.8 C58.9,51.8 53,31.6 49.7,23.5 C46.9,16.7 34.1,11.5 29.7,10 L31.2,9.6 C31.2,9.6 49.2,15.6 52.4,23.6 C55.8,31.8 61.6,51.8 50.4,65 C38.9,78 27.4,80.5 27.4,80.5 C27.4,80.5 27,80.5 26.1,80 C29.6,79 38.6,75.2 47.6,64.8" id="Shape" fill="#FFDD62" fill-rule="nonzero"></path>
                <path d="M44.4,33.7 C44.4,35 43.2,36 41.9,36 C40.5,36 39.5,34.8 39.6,33.5 C39.6,32.2 40.8,31.2 42.1,31.3 C43.4,31.3 44.4,32.3 44.3,33.7" id="Shape" fill="#4F433B" fill-rule="nonzero"></path>
                <path d="M41.3,33.5 C41,33.5 40.3,33.8 40.3,33.2 C40.5,32.6 41.1,32 41.7,32 C42.4,32 41.7,33.3 41.3,33.5 Z" id="Shape" fill="#FFFFFF" fill-rule="nonzero"></path>
                <path d="M27,42 C27,42 29,39.6 31.3,39.7 L30.8,47.7 L27,42 Z M35,42.3 C35,42.3 33.6,39.8 31.3,39.7 L30.8,47.7 L35.1,42.3 L35,42.3 Z" id="Shape" fill="#FFA44A" fill-rule="nonzero"></path>
                <path d="M52.5,23.4 C50.5,18.1 42.7,13.8 37.1,11.2 C34.1,9 38.1,6.7 38.1,6.7 C36.3,6 33.1,7.5 33.1,7.5 C33.8,4.8 37.9,3 37.9,3 C30.9,2.6 28.6,7 28.6,7 C27.6,4.5 30.1,0.6 30.1,0.6 C24.6,3.6 23.7,10.9 23.7,10.9 C18,12.7 10.5,16.1 8,20.9 C4.7,26.9 -4.8,47.7 5.8,63.2 C15.6,77.5 26.8,81.2 26.8,81.2 L27.1,81.4 L27.4,81.4 C27.9,81.2 39.1,78.7 50.4,65.4 C62.4,51.2 55.1,29.6 52.6,23.4 L52.5,23.4 Z M48.5,64.4 C38.8,75.9 28.9,79 27.2,79.4 C25.5,78.8 15.9,74.7 7.4,62.2 C-2.6,47.6 6.6,27.7 9.6,21.9 C13.2,15.1 28.6,11.2 30.8,10.7 C33,11.4 47.8,16.9 50.6,24 C53.1,30 60.1,51 48.6,64.3 L48.5,64.4 Z" id="Shape" fill="#FFD643" fill-rule="nonzero"></path>
                <path d="M15.7,31.8 L15.7,32 L15.7,31.8 Z" id="Shape" stroke="#979797"></path>
                <g transform="translate(15.000000, 29.000000)" fill-rule="nonzero" id="Shape">
                    <path d="M5.4,3.5 C5.4,4.8 4.4,5.8 3,5.7 C1.7,5.7 0.7,4.5 0.7,3.2 C0.7,1.9 1.9,0.9 3.2,1 C4.5,1 5.5,2.2 5.4,3.5" fill="#4F433B"></path>
                    <path d="M2.4,3.2 C2,3.4 1.4,3.5 1.4,2.9 C1.4,2.2 2.2,1.6 2.8,1.7 C3.4,1.7 2.8,2.9 2.4,3.1 L2.4,3.2 Z" fill="#FFFFFF"></path>
                </g>
            </g>
            <g id="Group" transform="translate(195.000000, 45.000000)">
                <path d="M23.6,124.7 C23.6,124.7 16.2,132.3 17.6,142.5 C17.6,142.5 4.6,140.7 5,142.7 C5.3,144.7 24.7,145.1 24.7,145.1 C24.7,145.1 26.3,143.6 20.2,142.9 C20.2,142.9 20.2,131.4 26,127.5 C26,127.5 26.5,124.5 23.6,124.8 M62.4,131.2 C62.4,131.2 69.6,138.8 68,149 C68,149 81,147.5 80.6,149.4 C80.3,151.4 60.9,151.4 60.9,151.4 C60.9,151.4 59.2,149.9 65.3,149.4 C65.3,149.4 65.6,137.8 59.8,133.8 C59.8,133.8 59.3,130.8 62.2,131.2" id="Shape" fill="#FF9329" fill-rule="nonzero"></path>
                <path d="M93,44.4 C88.3,29.6 58.7,17 58.7,17 C58.7,17 27,22 19,35.4 C10.8,48.6 -5,81.9 10,108.4 C25,134.6 43.3,142.4 43.3,142.4 C43.3,142.4 63.1,139.4 84,117.4 C105,95.4 97.6,59.2 93,44.4" id="Shape" fill="#2076F5" fill-rule="nonzero"></path>
                <path d="M12.8,108.5 C-2.5,82.1 13.6,48.8 21.8,35.5 C28.5,24.5 52,19.5 59.6,17.9 L57.3,16.9 C57.3,16.9 25.3,21.7 17,34.9 C9,48.1 -7.2,81.5 8,107.9 C23.3,134.2 42,141.9 42,141.9 C42,141.9 43,141.9 44.4,141.4 C39,138.4 24.9,129.4 12.8,108.4" id="Shape" fill="#FFFFFF" fill-rule="nonzero"></path>
                <path d="M79.2,116.7 C100.4,94.7 92.8,58.7 88.2,43.7 C84.2,31.4 62.7,20.7 55.6,17.5 L58.1,17 C58.1,17 88.1,29.5 92.9,44.3 C97.7,59.1 105.2,95.3 83.9,117.3 C62.9,139.1 42.9,142.1 42.9,142.1 C42.9,142.1 41.9,141.8 40.6,141.1 C46.6,139.5 62.6,134.1 79.3,116.8" id="Shape" fill="#0062F3" fill-rule="nonzero"></path>
                <path d="M93.8,44 C90.8,34.4 77.8,25.8 68.5,20.7 C63,16.4 70.7,12.7 70.7,12.7 C67.5,11.3 61.7,13.5 61.7,13.5 C63.4,8.8 70.7,6.1 70.7,6.1 C58.7,4.7 54,12.3 54,12.3 C52.3,7.6 57.5,0.9 57.5,0.9 C47.5,5.9 44.9,18.4 44.9,18.4 C34.6,21.2 21.1,26.4 16.1,34.6 C9.8,44.8 -9.4,80.6 7.1,109.2 C22.4,135.9 41.4,144 41.6,144.2 L42.6,144.2 C43.4,144 63.2,140.8 84.4,118.8 C107.4,94.8 97.4,55.8 93.8,44.2 L93.8,44 Z M81.8,116.2 C63.4,135.5 45.8,139.8 42.6,140.5 C39.6,139.1 23.6,130.5 10.2,107.5 C-5.3,80.3 13.2,46.1 19.2,36.3 C26.2,24.8 53.5,19.7 57.5,19.1 C61.2,20.8 86.5,32.3 90.5,45.1 C93.9,56.1 103.5,93.8 81.9,116.3 L81.8,116.2 Z" id="Shape" fill="#0048B2" fill-rule="nonzero"></path>
                <path d="M51.8,71.7 C47.8,71.5 44.5,75.1 44.5,75.1 L50.1,85.1 L50.1,85.7 L50.4,85.4 L50.6,85.7 L50.6,85.1 L58.6,76.9 C58.6,76.9 56.2,72.6 52.3,71.9 L52.1,71.9 L51.9,71.9 L51.8,71.7 Z" id="Shape" fill="#FF9429" fill-rule="nonzero"></path>
                <circle id="Oval" fill="#FFFFFF" fill-rule="nonzero" cx="28" cy="55" r="18"></circle>
                <circle id="Oval-Copy" fill="#FFFFFF" fill-rule="nonzero" cx="75" cy="61" r="18"></circle>
                <path d="M26,74.5 C15.3,73.2 7.7,63.5 9,52.8 C10.3,42.1 20,34.5 30.7,35.8 C41.4,37.1 49,46.8 47.7,57.6 C46.4,68.2 36.7,75.9 26,74.6 L26,74.5 Z M30.4,38.1 C21,37.1 12.4,43.8 11.4,53.1 C10.1,62.6 16.8,71.1 26.2,72.4 C35.7,73.4 44.2,66.8 45.4,57.4 C46.6,48 39.8,39.4 30.4,38.2 L30.4,38.1 Z" id="Shape" fill="#4F433B" fill-rule="nonzero"></path>
                <path d="M72.6,80.3 C61.9,79 54.3,69.3 55.6,58.5 C56.9,47.9 66.6,40.3 77.4,41.5 C88,42.9 95.7,52.5 94.4,63.3 C93,74 83.4,81.6 72.6,80.3 Z M77.1,43.8 C67.8,42.8 59.1,49.4 58.1,58.8 C56.9,68.2 63.6,76.8 73.1,78 C82.4,79.2 91.1,72.4 92.1,63 C93.3,53.6 86.6,45 77.1,43.8 Z M21.8,57 C24.2,54.3 30.1,53.2 33.2,55.3 C35.2,56.6 37.2,53.9 35.2,52.6 C30.6,49.4 22.7,50.8 19.2,55.1 C17.6,56.8 20.4,58.9 21.8,57.1 L21.8,57 Z" id="Shape" fill="#4F433B" fill-rule="nonzero"></path>
                <path d="M84,63 C81.5,58 74.2,54.7 68.8,56.8 C66.8,57.5 68.1,60.8 70.2,59.8 C73.8,58.5 79.2,61.1 80.8,64.4 C81.8,66.4 85,65 84,63" id="Shape" fill="#4F433B" fill-rule="nonzero"></path>
                <path d="M47,55 C47,55 50.7,53.2 57,56" id="Shape" stroke="#4F433B" stroke-width="2"></path>
            </g>
            <g id="Group" transform="translate(305.000000, 0.000000)" fill-rule="nonzero">
                <path d="M24.2,64 C10.2,60.4 0,47.7 0,32.6 C0,14.6 14.6,0 32.5,0 C50.5,0 65,14.6 65,32.6 C65,50.6 50.4,65 32.5,65 L31.8,65 C31,68.2 26.6,79.4 5.6,80 C5.6,80 23.9,74.3 24.2,64" id="Shape" stroke="#D6E8FF" stroke-width="2" fill="#FFFFFF"></path>
                <path d="M25,23.6 L27.2,38.6 C26,38.6 24.7,39 23.5,39.8 C21.5,41.4 20.7,43.8 21.8,45.1 C22.8,46.5 25.3,46.3 27.3,44.7 C28.8,43.7 29.7,41.9 29.5,40.5 L27.7,28 L40,26 L41.4,36.5 C40.4,36.5 38.9,37 37.8,37.8 C35.8,39.4 35,41.8 36,43.1 C37,44.5 39.6,44.3 41.6,42.7 C43.1,41.5 44,39.7 43.6,38.4 L43.8,38.4 L41.4,21.4 L25.1,23.7 L25,23.6 Z" id="Shape" fill="#459EFF"></path>
            </g>
        </g>
    </g>
</svg>